<svg xmlns="http://www.w3.org/2000/svg" xmlns:xlink="http://www.w3.org/1999/xlink" width="500" zoomAndPan="magnify" viewBox="0 0 375 374.999991" height="500" preserveAspectRatio="xMidYMid meet" version="1.0"><defs><clipPath id="35e6873668"><path d="M 12.535156 61.207031 L 362.785156 61.207031 L 362.785156 313.957031 L 12.535156 313.957031 Z M 12.535156 61.207031 " clip-rule="nonzero"/></clipPath><clipPath id="8e79916ffe"><path d="M 246 61.207031 L 362.785156 61.207031 L 362.785156 313.957031 L 246 313.957031 Z M 246 61.207031 " clip-rule="nonzero"/></clipPath><clipPath id="c405f3ba84"><path d="M 129 61.207031 L 247 61.207031 L 247 313.957031 L 129 313.957031 Z M 129 61.207031 " clip-rule="nonzero"/></clipPath></defs><g clip-path="url(#35e6873668)"><path fill="#141414" d="M 362.683594 275.0625 C 362.683594 296.539062 345.269531 313.949219 323.789062 313.949219 L 51.53125 313.949219 C 30.054688 313.949219 12.636719 296.539062 12.636719 275.0625 L 12.636719 100.082031 C 12.636719 78.609375 30.054688 61.199219 51.53125 61.199219 L 323.789062 61.199219 C 345.269531 61.199219 362.683594 78.609375 362.683594 100.082031 Z M 362.683594 275.0625 " fill-opacity="1" fill-rule="nonzero"/></g><g clip-path="url(#8e79916ffe)"><path fill="#007a36" d="M 323.789062 61.199219 C 345.269531 61.199219 362.683594 78.609375 362.683594 100.082031 L 362.683594 275.0625 C 362.683594 296.539062 345.269531 313.949219 323.789062 313.949219 L 246.003906 313.949219 L 246.003906 61.199219 Z M 323.789062 61.199219 " fill-opacity="1" fill-rule="nonzero"/></g><g clip-path="url(#c405f3ba84)"><path fill="#d32011" d="M 129.320312 61.199219 L 246.003906 61.199219 L 246.003906 313.949219 L 129.320312 313.949219 Z M 129.320312 61.199219 " fill-opacity="1" fill-rule="nonzero"/></g><path fill="#ffffff" d="M 227.023438 243.800781 C 226.710938 244.578125 225.652344 245.269531 224.816406 244.9375 C 223.980469 244.605469 223.6875 243.371094 224 242.59375 C 224.308594 241.816406 226.691406 239.492188 226.945312 239.589844 C 227.195312 239.6875 227.332031 243.023438 227.023438 243.800781 Z M 227.613281 244.53125 C 226.789062 244.664062 225.875 245.539062 226.019531 246.433594 C 226.167969 247.320312 227.292969 247.882812 228.128906 247.746094 C 228.957031 247.609375 231.746094 245.792969 231.707031 245.53125 C 231.660156 245.269531 228.441406 244.402344 227.617188 244.53125 Z M 231.039062 240.632812 C 230.746094 241.351562 229.765625 241.992188 228.996094 241.691406 C 228.226562 241.390625 227.945312 240.242188 228.238281 239.511719 C 228.527344 238.785156 230.738281 236.636719 230.96875 236.722656 C 231.203125 236.8125 231.320312 239.910156 231.039062 240.632812 Z M 231.582031 241.3125 C 230.8125 241.4375 229.96875 242.253906 230.105469 243.082031 C 230.242188 243.90625 231.289062 244.421875 232.058594 244.296875 C 232.828125 244.167969 235.414062 242.488281 235.375 242.234375 C 235.335938 241.984375 232.351562 241.195312 231.582031 241.3125 Z M 213.777344 246.542969 C 213.59375 247.535156 212.515625 248.601562 211.445312 248.410156 C 210.386719 248.214844 209.742188 246.832031 209.917969 245.84375 C 210.101562 244.851562 212.359375 241.546875 212.679688 241.605469 C 213 241.660156 213.953125 245.550781 213.777344 246.542969 Z M 214.644531 247.261719 C 213.699219 247.609375 212.835938 248.875 213.214844 249.886719 C 213.59375 250.898438 215.0625 251.285156 216.015625 250.9375 C 216.957031 250.585938 219.816406 247.777344 219.699219 247.464844 C 219.582031 247.164062 215.585938 246.910156 214.644531 247.261719 Z M 217.222656 242.566406 C 217.074219 243.390625 216.171875 244.277344 215.285156 244.121094 C 214.402344 243.964844 213.867188 242.808594 214.023438 241.984375 C 214.167969 241.15625 216.054688 238.40625 216.316406 238.453125 C 216.578125 238.503906 217.375 241.738281 217.222656 242.566406 Z M 217.941406 243.167969 C 217.152344 243.460938 216.441406 244.511719 216.753906 245.347656 C 217.066406 246.183594 218.289062 246.511719 219.078125 246.222656 C 219.867188 245.929688 222.238281 243.585938 222.140625 243.332031 C 222.054688 243.089844 218.726562 242.878906 217.941406 243.167969 Z M 220.527344 238.675781 C 220.390625 239.445312 219.554688 240.261719 218.726562 240.117188 C 217.910156 239.96875 217.414062 238.902344 217.550781 238.132812 C 217.6875 237.363281 219.4375 234.816406 219.679688 234.855469 C 219.925781 234.90625 220.664062 237.910156 220.527344 238.675781 Z M 221.199219 239.230469 C 220.46875 239.503906 219.808594 240.476562 220.097656 241.253906 C 220.390625 242.03125 221.527344 242.332031 222.257812 242.058594 C 222.988281 241.789062 225.183594 239.621094 225.105469 239.386719 C 225.027344 239.152344 221.925781 238.960938 221.199219 239.230469 Z M 223.386719 235.324219 C 223.257812 236.015625 222.5 236.761719 221.761719 236.625 C 221.023438 236.488281 220.574219 235.527344 220.703125 234.835938 C 220.828125 234.148438 222.402344 231.832031 222.628906 231.882812 C 222.839844 231.910156 223.511719 234.632812 223.386719 235.324219 Z M 223.988281 235.828125 C 223.328125 236.070312 222.722656 236.945312 222.996094 237.65625 C 223.257812 238.367188 224.289062 238.628906 224.949219 238.386719 C 225.613281 238.144531 227.605469 236.179688 227.527344 235.964844 C 227.449219 235.75 224.648438 235.585938 223.988281 235.828125 Z M 223.046875 252.890625 C 222.304688 253.570312 220.800781 253.773438 220.058594 252.976562 C 219.320312 252.179688 219.640625 250.691406 220.382812 250.011719 C 221.121094 249.332031 224.921875 248.046875 225.136719 248.28125 C 225.351562 248.515625 223.785156 252.210938 223.046875 252.890625 Z M 223.296875 253.988281 C 222.324219 253.707031 220.886719 254.191406 220.585938 255.222656 C 220.273438 256.261719 221.226562 257.449219 222.191406 257.742188 C 223.160156 258.023438 227.128906 257.496094 227.214844 257.1875 C 227.3125 256.886719 224.269531 254.28125 223.296875 253.988281 Z M 228.1875 251.792969 C 227.578125 252.363281 226.320312 252.53125 225.710938 251.867188 C 225.097656 251.207031 225.359375 249.972656 225.980469 249.398438 C 226.59375 248.828125 229.753906 247.765625 229.9375 247.960938 C 230.113281 248.15625 228.800781 251.21875 228.1875 251.792969 Z M 228.402344 252.707031 C 227.597656 252.460938 226.398438 252.871094 226.148438 253.734375 C 225.894531 254.601562 226.671875 255.59375 227.480469 255.824219 C 228.285156 256.070312 231.582031 255.621094 231.660156 255.367188 C 231.738281 255.105469 229.199219 252.9375 228.402344 252.707031 Z M 233.167969 250.664062 C 232.59375 251.1875 231.4375 251.34375 230.863281 250.730469 C 230.300781 250.121094 230.542969 248.972656 231.117188 248.445312 C 231.6875 247.921875 234.617188 246.929688 234.78125 247.117188 C 234.957031 247.289062 233.742188 250.128906 233.167969 250.664062 Z M 233.371094 251.507812 C 232.621094 251.285156 231.515625 251.664062 231.269531 252.460938 C 231.039062 253.257812 231.765625 254.183594 232.507812 254.40625 C 233.253906 254.628906 236.316406 254.222656 236.386719 253.980469 C 236.453125 253.734375 234.109375 251.734375 233.371094 251.507812 Z M 237.464844 249.703125 C 236.949219 250.175781 235.898438 250.324219 235.382812 249.769531 C 234.867188 249.214844 235.09375 248.175781 235.609375 247.699219 C 236.125 247.222656 238.777344 246.328125 238.921875 246.492188 C 239.078125 246.660156 237.980469 249.226562 237.464844 249.703125 Z M 237.648438 250.46875 C 236.980469 250.265625 235.96875 250.605469 235.753906 251.335938 C 235.539062 252.054688 236.199219 252.890625 236.871094 253.09375 C 237.542969 253.296875 240.3125 252.929688 240.382812 252.707031 C 240.441406 252.492188 238.320312 250.671875 237.648438 250.46875 Z M 240.984375 223.53125 C 241.113281 224.53125 240.390625 225.875 239.3125 226 C 238.242188 226.128906 237.222656 225 237.09375 224 C 236.96875 222.996094 238.15625 219.167969 238.476562 219.128906 C 238.796875 219.089844 240.859375 222.53125 240.984375 223.53125 Z M 242.027344 223.960938 C 241.226562 224.570312 240.78125 226.03125 241.441406 226.886719 C 242.101562 227.742188 243.621094 227.671875 244.425781 227.0625 C 245.222656 226.449219 247.121094 222.910156 246.925781 222.65625 C 246.710938 222.402344 242.824219 223.347656 242.027344 223.960938 Z M 243.09375 218.710938 C 243.191406 219.546875 242.597656 220.65625 241.703125 220.769531 C 240.808594 220.878906 239.964844 219.945312 239.855469 219.109375 C 239.761719 218.273438 240.742188 215.09375 241.003906 215.054688 C 241.277344 215.027344 242.996094 217.875 243.09375 218.710938 Z M 243.960938 219.070312 C 243.300781 219.585938 242.921875 220.789062 243.472656 221.5 C 244.027344 222.210938 245.292969 222.152344 245.953125 221.644531 C 246.613281 221.128906 248.191406 218.195312 248.023438 217.980469 C 247.871094 217.777344 244.632812 218.5625 243.960938 219.070312 Z M 245.097656 214.015625 C 245.195312 214.78125 244.640625 215.824219 243.804688 215.921875 C 242.96875 216.015625 242.191406 215.152344 242.09375 214.375 C 241.996094 213.605469 242.910156 210.652344 243.152344 210.621094 C 243.40625 210.59375 245 213.238281 245.097656 214.015625 Z M 245.90625 214.34375 C 245.292969 214.820312 244.941406 215.941406 245.457031 216.601562 C 245.972656 217.261719 247.140625 217.214844 247.753906 216.738281 C 248.363281 216.261719 249.832031 213.539062 249.679688 213.34375 C 249.523438 213.148438 246.519531 213.867188 245.90625 214.34375 Z M 246.828125 209.972656 C 246.917969 210.671875 246.410156 211.605469 245.660156 211.703125 C 244.914062 211.789062 244.203125 211 244.117188 210.300781 C 244.027344 209.601562 244.855469 206.929688 245.078125 206.910156 C 245.300781 206.871094 246.75 209.269531 246.828125 209.972656 Z M 247.558594 210.273438 C 247.003906 210.699219 246.691406 211.722656 247.148438 212.3125 C 247.605469 212.90625 248.675781 212.867188 249.230469 212.429688 C 249.785156 212.003906 251.105469 209.535156 250.972656 209.359375 C 250.835938 209.183594 248.121094 209.835938 247.558594 210.273438 Z M 251.71875 226.847656 C 251.214844 227.722656 249.832031 228.363281 248.898438 227.820312 C 247.964844 227.273438 247.832031 225.757812 248.328125 224.894531 C 248.832031 224.019531 252.078125 221.664062 252.351562 221.832031 C 252.625 221.996094 252.226562 225.972656 251.71875 226.847656 Z M 252.285156 227.820312 C 251.273438 227.828125 250.039062 228.722656 250.058594 229.800781 C 250.078125 230.882812 251.332031 231.746094 252.332031 231.726562 C 253.34375 231.71875 256.980469 230.035156 256.96875 229.703125 C 256.980469 229.394531 253.296875 227.808594 252.285156 227.820312 Z M 256.300781 224.269531 C 255.882812 225 254.734375 225.523438 253.957031 225.078125 C 253.179688 224.628906 253.0625 223.367188 253.480469 222.636719 C 253.898438 221.910156 256.601562 219.953125 256.835938 220.089844 C 257.066406 220.226562 256.726562 223.542969 256.300781 224.269531 Z M 256.777344 225.078125 C 255.941406 225.085938 254.910156 225.835938 254.917969 226.730469 C 254.929688 227.625 255.980469 228.34375 256.816406 228.335938 C 257.652344 228.324219 260.675781 226.925781 260.675781 226.652344 C 260.675781 226.390625 257.613281 225.066406 256.777344 225.078125 Z M 260.722656 221.714844 C 260.335938 222.386719 259.265625 222.878906 258.546875 222.460938 C 257.824219 222.042969 257.71875 220.878906 258.109375 220.207031 C 258.496094 219.535156 260.996094 217.71875 261.21875 217.84375 C 261.441406 217.972656 261.113281 221.042969 260.722656 221.714844 Z M 261.171875 222.460938 C 260.394531 222.472656 259.441406 223.164062 259.449219 224 C 259.460938 224.835938 260.433594 225.496094 261.210938 225.484375 C 261.988281 225.476562 264.789062 224.171875 264.789062 223.929688 C 264.789062 223.6875 261.949219 222.453125 261.171875 222.460938 Z M 264.546875 219.527344 C 264.195312 220.140625 263.230469 220.585938 262.570312 220.207031 C 261.917969 219.828125 261.824219 218.769531 262.171875 218.164062 C 262.523438 217.5625 264.789062 215.921875 264.984375 216.027344 C 265.1875 216.132812 264.894531 218.914062 264.546875 219.527344 Z M 264.945312 220.207031 C 264.242188 220.21875 263.378906 220.839844 263.386719 221.597656 C 263.398438 222.355469 264.273438 222.949219 264.984375 222.9375 C 265.691406 222.929688 268.21875 221.753906 268.21875 221.53125 C 268.21875 221.304688 265.652344 220.199219 264.945312 220.207031 Z M 254.722656 214.8125 C 254.703125 215.824219 253.789062 217.046875 252.710938 217.019531 C 251.632812 216.988281 250.785156 215.726562 250.804688 214.722656 C 250.824219 213.722656 252.546875 210.097656 252.867188 210.105469 C 253.199219 210.105469 254.753906 213.800781 254.722656 214.8125 Z M 255.695312 215.394531 C 254.820312 215.890625 254.160156 217.261719 254.695312 218.203125 C 255.230469 219.148438 256.738281 219.304688 257.621094 218.808594 C 258.507812 218.3125 260.878906 215.09375 260.722656 214.8125 C 260.566406 214.53125 256.570312 214.898438 255.695312 215.394531 Z M 257.515625 210.351562 C 257.496094 211.1875 256.746094 212.207031 255.84375 212.1875 C 254.9375 212.167969 254.238281 211.117188 254.257812 210.273438 C 254.277344 209.4375 255.707031 206.421875 255.980469 206.433594 C 256.242188 206.441406 257.535156 209.515625 257.515625 210.351562 Z M 258.3125 210.835938 C 257.582031 211.246094 257.039062 212.390625 257.476562 213.179688 C 257.914062 213.964844 259.175781 214.09375 259.90625 213.675781 C 260.636719 213.265625 262.621094 210.582031 262.484375 210.351562 C 262.367188 210.105469 259.050781 210.417969 258.3125 210.835938 Z M 260.167969 205.984375 C 260.148438 206.761719 259.449219 207.707031 258.625 207.6875 C 257.789062 207.667969 257.136719 206.695312 257.15625 205.917969 C 257.175781 205.140625 258.496094 202.347656 258.75 202.347656 C 258.992188 202.359375 260.1875 205.207031 260.167969 205.984375 Z M 260.917969 206.433594 C 260.238281 206.8125 259.730469 207.871094 260.148438 208.601562 C 260.566406 209.328125 261.726562 209.445312 262.40625 209.058594 C 263.085938 208.667969 264.925781 206.1875 264.796875 205.976562 C 264.671875 205.761719 261.589844 206.054688 260.917969 206.433594 Z M 252.703125 189.828125 C 253.101562 190.761719 252.769531 192.25 251.777344 192.667969 C 250.785156 193.085938 249.492188 192.289062 249.09375 191.355469 C 248.695312 190.421875 248.773438 186.417969 249.074219 186.289062 C 249.375 186.171875 252.3125 188.90625 252.703125 189.828125 Z M 253.820312 189.964844 C 253.226562 190.78125 253.199219 192.296875 254.0625 192.9375 C 254.9375 193.582031 256.378906 193.09375 256.96875 192.277344 C 257.5625 191.460938 258.410156 187.554688 258.15625 187.359375 C 257.902344 187.164062 254.421875 189.148438 253.820312 189.964844 Z M 253.402344 184.617188 C 253.734375 185.386719 253.460938 186.628906 252.632812 186.980469 C 251.808594 187.332031 250.726562 186.660156 250.40625 185.890625 C 250.085938 185.125 250.144531 181.789062 250.386719 181.683594 C 250.640625 181.574219 253.082031 183.851562 253.402344 184.617188 Z M 254.335938 184.726562 C 253.839844 185.40625 253.808594 186.667969 254.539062 187.203125 C 255.269531 187.738281 256.464844 187.332031 256.960938 186.660156 C 257.457031 185.980469 258.15625 182.722656 257.941406 182.566406 C 257.730469 182.410156 254.832031 184.054688 254.335938 184.726562 Z M 254.035156 179.554688 C 254.335938 180.273438 254.09375 181.417969 253.324219 181.742188 C 252.554688 182.0625 251.554688 181.449219 251.253906 180.730469 C 250.953125 180.011719 251.011719 176.929688 251.242188 176.832031 C 251.46875 176.734375 253.734375 178.835938 254.035156 179.554688 Z M 254.898438 179.652344 C 254.441406 180.28125 254.414062 181.449219 255.085938 181.945312 C 255.753906 182.441406 256.875 182.0625 257.332031 181.4375 C 257.789062 180.808594 258.4375 177.792969 258.246094 177.648438 C 258.039062 177.492188 255.355469 179.027344 254.898438 179.652344 Z M 254.578125 175.179688 C 254.851562 175.832031 254.628906 176.859375 253.9375 177.160156 C 253.246094 177.453125 252.34375 176.898438 252.058594 176.25 C 251.789062 175.597656 251.835938 172.808594 252.050781 172.71875 C 252.265625 172.632812 254.304688 174.539062 254.578125 175.179688 Z M 255.367188 175.277344 C 254.949219 175.839844 254.929688 176.910156 255.542969 177.355469 C 256.152344 177.804688 257.15625 177.464844 257.574219 176.898438 C 257.992188 176.335938 258.585938 173.605469 258.398438 173.46875 C 258.214844 173.320312 255.785156 174.703125 255.367188 175.277344 Z M 263.933594 190.0625 C 263.6875 191.042969 262.53125 192.035156 261.492188 191.773438 C 260.453125 191.511719 259.886719 190.089844 260.140625 189.109375 C 260.382812 188.128906 262.851562 184.976562 263.164062 185.054688 C 263.476562 185.132812 264.175781 189.082031 263.933594 190.0625 Z M 264.75 190.839844 C 263.785156 191.132812 262.84375 192.328125 263.15625 193.367188 C 263.464844 194.40625 264.914062 194.882812 265.878906 194.59375 C 266.839844 194.300781 269.875 191.675781 269.777344 191.375 C 269.699219 191.054688 265.722656 190.546875 264.75 190.839844 Z M 267.636719 186.320312 C 267.433594 187.136719 266.480469 187.960938 265.605469 187.75 C 264.730469 187.535156 264.273438 186.347656 264.476562 185.53125 C 264.679688 184.714844 266.734375 182.089844 266.996094 182.160156 C 267.25 182.226562 267.832031 185.503906 267.636719 186.320312 Z M 268.308594 186.960938 C 267.5 187.203125 266.722656 188.195312 266.984375 189.0625 C 267.25 189.925781 268.445312 190.324219 269.25 190.082031 C 270.058594 189.839844 272.578125 187.660156 272.5 187.398438 C 272.421875 187.144531 269.113281 186.726562 268.308594 186.960938 Z M 271.175781 182.644531 C 270.992188 183.402344 270.097656 184.171875 269.289062 183.96875 C 268.484375 183.761719 268.054688 182.675781 268.238281 181.914062 C 268.425781 181.15625 270.332031 178.726562 270.574219 178.785156 C 270.816406 178.84375 271.371094 181.886719 271.175781 182.644531 Z M 271.808594 183.246094 C 271.058594 183.472656 270.339844 184.394531 270.582031 185.191406 C 270.828125 185.988281 271.933594 186.359375 272.683594 186.132812 C 273.433594 185.910156 275.765625 183.890625 275.699219 183.644531 C 275.621094 183.414062 272.558594 183.015625 271.808594 183.246094 Z M 274.25 179.484375 C 274.074219 180.164062 273.277344 180.867188 272.546875 180.679688 C 271.816406 180.496094 271.429688 179.503906 271.605469 178.824219 C 271.78125 178.144531 273.5 175.9375 273.714844 175.996094 C 273.929688 176.042969 274.414062 178.804688 274.25 179.484375 Z M 274.824219 180.03125 C 274.152344 180.234375 273.492188 181.070312 273.714844 181.789062 C 273.929688 182.507812 274.941406 182.847656 275.609375 182.644531 C 276.28125 182.441406 278.402344 180.613281 278.332031 180.398438 C 278.265625 180.175781 275.492188 179.824219 274.824219 180.03125 Z M 263.503906 177.667969 C 263.757812 178.640625 263.230469 180.070312 262.183594 180.339844 C 261.132812 180.613281 259.976562 179.632812 259.710938 178.660156 C 259.460938 177.6875 260.109375 173.730469 260.421875 173.652344 C 260.734375 173.574219 263.25 176.6875 263.503906 177.667969 Z M 264.59375 177.949219 C 263.882812 178.667969 263.640625 180.164062 264.410156 180.925781 C 265.175781 181.683594 266.675781 181.410156 267.382812 180.691406 C 268.09375 179.972656 269.496094 176.21875 269.261719 175.996094 C 269.039062 175.773438 265.304688 177.238281 264.59375 177.949219 Z M 264.953125 172.601562 C 265.167969 173.417969 264.71875 174.59375 263.855469 174.828125 C 262.988281 175.050781 262.015625 174.246094 261.804688 173.429688 C 261.589844 172.613281 262.132812 169.328125 262.394531 169.257812 C 262.648438 169.199219 264.738281 171.796875 264.953125 172.601562 Z M 265.859375 172.847656 C 265.265625 173.449219 265.058594 174.691406 265.703125 175.324219 C 266.34375 175.957031 267.589844 175.734375 268.183594 175.128906 C 268.773438 174.527344 269.933594 171.40625 269.746094 171.222656 C 269.5625 171.039062 266.449219 172.253906 265.859375 172.847656 Z M 266.304688 167.683594 C 266.5 168.433594 266.089844 169.539062 265.285156 169.746094 C 264.476562 169.957031 263.582031 169.199219 263.378906 168.441406 C 263.183594 167.695312 263.6875 164.640625 263.921875 164.574219 C 264.164062 164.515625 266.101562 166.925781 266.304688 167.683594 Z M 267.140625 167.90625 C 266.597656 168.460938 266.402344 169.617188 266.996094 170.203125 C 267.589844 170.785156 268.746094 170.582031 269.289062 170.027344 C 269.835938 169.472656 270.914062 166.574219 270.738281 166.402344 C 270.5625 166.226562 267.6875 167.351562 267.140625 167.90625 Z M 254.152344 156.816406 C 255.027344 157.15625 255.792969 158.34375 255.425781 159.273438 C 255.054688 160.207031 253.683594 160.539062 252.820312 160.199219 C 251.945312 159.859375 249.347656 157.203125 249.464844 156.921875 C 249.570312 156.640625 253.277344 156.476562 254.152344 156.816406 Z M 254.96875 156.15625 C 255.113281 157.078125 256.105469 158.089844 257.097656 157.921875 C 258.089844 157.757812 258.703125 156.496094 258.554688 155.570312 C 258.410156 154.648438 256.367188 151.546875 256.066406 151.59375 C 255.765625 151.644531 254.8125 155.230469 254.96875 156.15625 Z M 251.15625 152.964844 C 251.875 153.246094 252.527344 154.230469 252.214844 155.007812 C 251.914062 155.785156 250.765625 156.058594 250.046875 155.777344 C 249.328125 155.492188 247.160156 153.285156 247.257812 153.054688 C 247.34375 152.820312 250.4375 152.675781 251.15625 152.964844 Z M 251.835938 152.421875 C 251.960938 153.191406 252.78125 154.027344 253.605469 153.890625 C 254.433594 153.753906 254.9375 152.703125 254.820312 151.9375 C 254.703125 151.167969 253.003906 148.589844 252.75 148.628906 C 252.496094 148.667969 251.710938 151.652344 251.835938 152.421875 Z M 248.210938 149.253906 C 248.878906 149.515625 249.484375 150.429688 249.191406 151.148438 C 248.898438 151.867188 247.851562 152.121094 247.179688 151.859375 C 246.507812 151.59375 244.503906 149.542969 244.59375 149.332031 C 244.679688 149.117188 247.539062 148.988281 248.210938 149.253906 Z M 248.839844 148.746094 C 248.957031 149.457031 249.714844 150.234375 250.484375 150.109375 C 251.253906 149.980469 251.71875 149.007812 251.613281 148.289062 C 251.496094 147.582031 249.921875 145.1875 249.699219 145.21875 C 249.453125 145.265625 248.726562 148.039062 248.839844 148.746094 Z M 245.679688 146.054688 C 246.285156 146.296875 246.828125 147.113281 246.574219 147.765625 C 246.324219 148.417969 245.359375 148.648438 244.757812 148.40625 C 244.15625 148.164062 242.335938 146.316406 242.414062 146.121094 C 242.492188 145.929688 245.070312 145.8125 245.679688 146.054688 Z M 246.246094 145.597656 C 246.351562 146.238281 247.042969 146.949219 247.734375 146.832031 C 248.421875 146.714844 248.851562 145.832031 248.753906 145.1875 C 248.648438 144.546875 247.226562 142.378906 247.023438 142.410156 C 246.808594 142.449219 246.148438 144.957031 246.246094 145.597656 Z M 261.597656 149.535156 C 262.085938 150.332031 261.996094 151.742188 261.140625 152.265625 C 260.285156 152.792969 258.992188 152.226562 258.507812 151.429688 C 258.019531 150.632812 257.535156 146.949219 257.796875 146.792969 C 258.058594 146.636719 261.101562 148.738281 261.597656 149.535156 Z M 262.640625 149.503906 C 262.203125 150.332031 262.386719 151.730469 263.269531 152.199219 C 264.15625 152.664062 265.410156 152.023438 265.847656 151.195312 C 266.285156 150.371094 266.519531 146.667969 266.257812 146.519531 C 265.992188 146.375 263.078125 148.667969 262.640625 149.503906 Z M 261.519531 144.664062 C 261.929688 145.324219 261.851562 146.5 261.140625 146.9375 C 260.433594 147.375 259.351562 146.910156 258.945312 146.25 C 258.535156 145.585938 258.136719 142.527344 258.351562 142.390625 C 258.566406 142.253906 261.113281 143.992188 261.519531 144.664062 Z M 262.394531 144.636719 C 262.035156 145.324219 262.183594 146.492188 262.921875 146.871094 C 263.660156 147.257812 264.699219 146.726562 265.070312 146.035156 C 265.429688 145.34375 265.625 142.261719 265.410156 142.144531 C 265.1875 142.03125 262.757812 143.945312 262.394531 144.636719 Z M 261.394531 139.929688 C 261.773438 140.542969 261.707031 141.632812 261.042969 142.039062 C 260.382812 142.449219 259.382812 142.011719 259.011719 141.398438 C 258.632812 140.785156 258.265625 137.945312 258.457031 137.820312 C 258.652344 137.695312 261.015625 139.308594 261.394531 139.929688 Z M 262.203125 139.902344 C 261.863281 140.542969 262.007812 141.621094 262.6875 141.980469 C 263.367188 142.339844 264.339844 141.84375 264.679688 141.203125 C 265.023438 140.5625 265.195312 137.703125 264.992188 137.597656 C 264.789062 137.488281 262.542969 139.257812 262.203125 139.902344 Z M 261.296875 135.847656 C 261.636719 136.402344 261.578125 137.382812 260.976562 137.753906 C 260.382812 138.121094 259.480469 137.734375 259.140625 137.167969 C 258.796875 136.613281 258.457031 134.039062 258.644531 133.933594 C 258.816406 133.824219 260.957031 135.292969 261.296875 135.847656 Z M 262.027344 135.828125 C 261.726562 136.402344 261.851562 137.382812 262.472656 137.703125 C 263.097656 138.023438 263.972656 137.578125 264.273438 137.003906 C 264.574219 136.429688 264.738281 133.84375 264.554688 133.746094 C 264.371094 133.648438 262.335938 135.246094 262.027344 135.828125 Z M 253.121094 141.765625 C 253.9375 142.234375 254.53125 143.507812 254.035156 144.382812 C 253.539062 145.246094 252.128906 145.382812 251.320312 144.917969 C 250.503906 144.449219 248.316406 141.457031 248.472656 141.195312 C 248.609375 140.929688 252.304688 141.300781 253.121094 141.765625 Z M 254.015625 141.234375 C 254.035156 142.164062 254.859375 143.304688 255.863281 143.292969 C 256.863281 143.273438 257.660156 142.109375 257.640625 141.175781 C 257.621094 140.242188 256.054688 136.878906 255.753906 136.878906 C 255.464844 136.886719 254.003906 140.300781 254.015625 141.234375 Z M 250.707031 137.527344 C 251.378906 137.917969 251.886719 138.976562 251.46875 139.707031 C 251.058594 140.425781 249.890625 140.53125 249.210938 140.144531 C 248.539062 139.753906 246.710938 137.265625 246.839844 137.042969 C 246.964844 136.828125 250.039062 137.140625 250.707031 137.527344 Z M 251.457031 137.082031 C 251.46875 137.859375 252.15625 138.8125 252.992188 138.792969 C 253.828125 138.78125 254.492188 137.8125 254.472656 137.03125 C 254.460938 136.253906 253.148438 133.457031 252.90625 133.464844 C 252.664062 133.464844 251.449219 136.304688 251.457031 137.082031 Z M 248.328125 133.4375 C 248.949219 133.796875 249.414062 134.777344 249.027344 135.449219 C 248.636719 136.121094 247.558594 136.226562 246.9375 135.867188 C 246.3125 135.507812 244.621094 133.191406 244.738281 132.988281 C 244.855469 132.785156 247.703125 133.078125 248.328125 133.4375 Z M 249.027344 133.019531 C 249.035156 133.738281 249.679688 134.621094 250.457031 134.601562 C 251.234375 134.59375 251.835938 133.6875 251.828125 132.96875 C 251.816406 132.25 250.601562 129.65625 250.367188 129.65625 C 250.136719 129.65625 249.015625 132.300781 249.027344 133.019531 Z M 249.027344 133.019531 " fill-opacity="1" fill-rule="nonzero"/><path fill="#ffffff" d="M 260.199219 237.316406 C 260.199219 237.316406 253.238281 237.238281 247.285156 233.222656 C 241.335938 229.210938 229.152344 221.820312 219.398438 231.394531 C 219.398438 231.394531 226.207031 230.25 231.320312 234.496094 C 236.433594 238.753906 244.359375 243.742188 251.03125 243.1875 C 257.699219 242.644531 260.199219 237.316406 260.199219 237.316406 Z M 260.199219 237.316406 " fill-opacity="1" fill-rule="nonzero"/><path fill="#ff5b57" d="M 139.171875 131.082031 L 130.574219 122.488281 C 145.949219 107.121094 166.375 98.664062 188.109375 98.664062 C 209.839844 98.664062 230.269531 107.128906 245.644531 122.488281 L 237.039062 131.082031 C 223.96875 118.019531 206.59375 110.816406 188.109375 110.816406 C 169.625 110.816406 152.238281 118.019531 139.171875 131.082031 Z M 139.171875 131.082031 " fill-opacity="1" fill-rule="nonzero"/><path fill="#ffffff" d="M 154.398438 224.53125 L 154.320312 218.390625 L 220.332031 218.390625 L 220.59375 224.667969 Z M 154.398438 224.53125 " fill-opacity="1" fill-rule="nonzero"/><path fill="#ffffff" d="M 220.59375 163.757812 L 215.050781 163.066406 L 215.050781 150.089844 C 215.050781 149.796875 214.957031 149.535156 214.886719 149.261719 L 215.148438 149.261719 C 215.996094 149.261719 216.695312 148.570312 216.695312 147.714844 C 216.695312 146.871094 216.003906 146.171875 215.148438 146.171875 L 208.273438 146.171875 C 207.429688 146.171875 206.730469 146.859375 206.730469 147.714844 C 206.730469 148.5625 207.417969 149.261719 208.273438 149.261719 L 208.539062 149.261719 C 208.46875 149.535156 208.371094 149.796875 208.371094 150.089844 L 208.371094 162.238281 L 205.835938 161.929688 L 200.796875 156.515625 C 201.800781 155.007812 202.421875 153.324219 202.421875 151.507812 C 202.421875 145.480469 196.1875 140.601562 188.488281 140.601562 C 180.785156 140.601562 174.554688 145.480469 174.554688 151.507812 C 174.554688 153.304688 175.167969 154.988281 176.148438 156.484375 L 171.082031 161.9375 L 168.535156 162.25 L 168.535156 150.097656 C 168.535156 149.808594 168.4375 149.542969 168.371094 149.273438 L 168.632812 149.273438 C 169.476562 149.273438 170.179688 148.582031 170.179688 147.726562 C 170.179688 146.878906 169.488281 146.179688 168.632812 146.179688 L 161.769531 146.179688 C 160.921875 146.179688 160.222656 146.871094 160.222656 147.726562 C 160.222656 148.570312 160.910156 149.273438 161.769531 149.273438 L 162.03125 149.273438 C 161.960938 149.542969 161.863281 149.808594 161.863281 150.097656 L 161.863281 163.074219 L 156.332031 163.757812 L 160.921875 170.628906 L 161.640625 170.628906 L 161.640625 180.136719 L 168.75 180.136719 L 168.75 170.628906 L 208.160156 170.628906 L 208.160156 180.136719 L 215.265625 180.136719 L 215.265625 170.628906 L 216.003906 170.628906 Z M 220.59375 163.757812 " fill-opacity="1" fill-rule="nonzero"/><path fill="#ffffff" d="M 211.707031 145.042969 C 214.332031 145.042969 216.453125 143.914062 216.453125 142.527344 C 216.453125 141.765625 215.78125 141.105469 214.769531 140.640625 L 211.699219 136.234375 L 208.636719 140.640625 C 207.625 141.097656 206.953125 141.757812 206.953125 142.527344 C 206.960938 143.914062 209.09375 145.042969 211.707031 145.042969 Z M 187.914062 139.277344 C 190.636719 139.277344 192.84375 137.917969 192.84375 136.246094 C 192.84375 135.351562 192.191406 134.574219 191.199219 134.019531 L 187.914062 129.296875 L 184.628906 134.019531 C 183.636719 134.574219 182.984375 135.359375 182.984375 136.246094 C 182.984375 137.917969 185.191406 139.277344 187.914062 139.277344 Z M 165.191406 145.042969 C 167.816406 145.042969 169.933594 143.914062 169.933594 142.527344 C 169.933594 141.765625 169.265625 141.105469 168.253906 140.640625 L 165.191406 136.234375 L 162.128906 140.640625 C 161.117188 141.097656 160.445312 141.757812 160.445312 142.527344 C 160.445312 143.914062 162.566406 145.042969 165.191406 145.042969 Z M 165.191406 145.042969 " fill-opacity="1" fill-rule="nonzero"/><path fill="#ffffff" d="M 219.945312 215.425781 L 215.265625 210.371094 L 215.265625 201.511719 L 208.160156 201.511719 L 208.160156 210.011719 L 205.300781 210.011719 L 186.980469 184.636719 L 173 183.890625 L 172.289062 205.519531 L 190.65625 205.703125 L 199.289062 210.011719 L 199.289062 215.425781 Z M 219.945312 215.425781 " fill-opacity="1" fill-rule="nonzero"/><path fill="#ffffff" d="M 168.738281 201.511719 L 161.640625 201.511719 L 161.640625 210.789062 L 157.34375 215.425781 L 177.988281 215.425781 L 177.988281 210.011719 L 168.738281 210.011719 Z M 149.574219 166.566406 L 147.394531 168.472656 C 147.394531 168.472656 137.972656 175.335938 141.105469 181.964844 C 139.355469 184.402344 135.386719 189.285156 138.429688 194.242188 C 141.484375 199.199219 144.382812 203.621094 142.476562 208.269531 C 148.195312 205.296875 150.789062 199.800781 149.03125 193.628906 C 147.5625 188.449219 154.835938 184.480469 157.238281 183.324219 L 161.632812 189.953125 L 161.632812 196.058594 L 168.738281 196.058594 L 168.738281 185.582031 L 162.585938 185.582031 Z M 235.792969 181.972656 C 238.921875 175.34375 229.5 168.480469 229.5 168.480469 L 227.324219 166.574219 L 214.3125 185.589844 L 208.160156 185.589844 L 208.160156 196.070312 L 215.265625 196.070312 L 215.265625 189.964844 L 219.660156 183.335938 C 222.054688 184.480469 229.335938 188.449219 227.867188 193.640625 C 226.117188 199.8125 228.703125 205.304688 234.421875 208.28125 C 232.515625 203.632812 235.414062 199.210938 238.464844 194.25 C 241.511719 189.292969 237.542969 184.414062 235.792969 181.972656 Z M 235.792969 181.972656 " fill-opacity="1" fill-rule="nonzero"/><path fill="#ffffff" d="M 223.367188 266.179688 C 223.367188 268.046875 221.847656 269.5625 219.980469 269.5625 C 218.117188 269.5625 207.449219 268.046875 207.449219 266.179688 C 207.449219 264.3125 218.117188 262.796875 219.980469 262.796875 C 221.859375 262.796875 223.367188 264.3125 223.367188 266.179688 Z M 223.367188 266.179688 " fill-opacity="1" fill-rule="nonzero"/><path fill="#ffffff" d="M 235.519531 266.429688 C 245.050781 264.652344 245.429688 259.5 245.429688 259.5 C 245.429688 259.5 240.246094 262.796875 234.148438 261.582031 C 228.054688 260.367188 222.550781 260.558594 222.550781 260.558594 C 222.550781 260.558594 228.355469 266.996094 223.472656 270.195312 C 221.3125 271.613281 215.335938 271.011719 212.730469 270.4375 C 210.121094 269.863281 204.511719 268.824219 203.285156 268.824219 C 201.421875 268.824219 199.902344 270.339844 199.902344 272.207031 C 199.902344 274.070312 201.421875 275.589844 203.285156 275.589844 C 204.53125 275.589844 210.074219 274.558594 212.960938 273.898438 C 215.851562 273.234375 217.871094 272.925781 220.039062 272.476562 C 222.636719 271.941406 228.054688 272.632812 234.839844 273.167969 C 241.625 273.703125 246.585938 270.574219 248.871094 267.832031 C 244.058594 269.355469 237.726562 267.53125 235.519531 266.429688 Z M 281.277344 189.625 C 281.660156 188.699219 272.957031 195.195312 267.015625 194.464844 C 261.074219 193.738281 249.660156 192.113281 247.324219 196.546875 C 244.980469 200.96875 242.890625 205.558594 242.890625 205.558594 C 242.890625 205.558594 246.847656 203.253906 251.972656 203.222656 C 257.117188 203.195312 267.917969 202.699219 272.167969 201.28125 C 276.4375 199.851562 279.761719 193.269531 281.277344 189.625 Z M 273.0625 160.910156 C 272.957031 158.972656 269.105469 159.789062 268.308594 158.1875 C 267.519531 156.582031 270.464844 153.171875 268.832031 152.011719 C 267.210938 150.855469 258.925781 158.273438 254.316406 163.242188 C 249.707031 168.21875 248.421875 176.160156 249.910156 178.503906 C 251.378906 180.847656 250.4375 178.707031 250.4375 178.707031 C 250.4375 178.707031 253.351562 172.921875 258.03125 170.5625 C 262.707031 168.207031 273.0625 160.910156 273.0625 160.910156 Z M 147.609375 243.800781 C 147.921875 244.578125 148.980469 245.269531 149.816406 244.9375 C 150.652344 244.605469 150.945312 243.371094 150.632812 242.59375 C 150.324219 241.816406 147.941406 239.492188 147.6875 239.589844 C 147.433594 239.6875 147.300781 243.023438 147.609375 243.800781 Z M 147.027344 244.53125 C 147.851562 244.664062 148.765625 245.539062 148.621094 246.433594 C 148.476562 247.320312 147.347656 247.882812 146.511719 247.746094 C 145.675781 247.609375 142.894531 245.792969 142.933594 245.53125 C 142.980469 245.269531 146.199219 244.402344 147.027344 244.53125 Z M 143.605469 240.632812 C 143.894531 241.351562 144.878906 241.992188 145.644531 241.691406 C 146.414062 241.390625 146.695312 240.242188 146.40625 239.511719 C 146.113281 238.785156 143.90625 236.636719 143.671875 236.722656 C 143.4375 236.8125 143.3125 239.910156 143.605469 240.632812 Z M 143.058594 241.3125 C 143.828125 241.4375 144.671875 242.253906 144.539062 243.082031 C 144.402344 243.90625 143.351562 244.421875 142.582031 244.296875 C 141.816406 244.167969 139.230469 242.488281 139.265625 242.234375 C 139.304688 241.984375 142.292969 241.195312 143.058594 241.3125 Z M 160.863281 246.542969 C 161.046875 247.535156 162.128906 248.601562 163.195312 248.410156 C 164.257812 248.214844 164.898438 246.832031 164.722656 245.84375 C 164.539062 244.851562 162.28125 241.546875 161.960938 241.601562 C 161.640625 241.660156 160.679688 245.550781 160.863281 246.542969 Z M 159.996094 247.261719 C 160.941406 247.609375 161.804688 248.875 161.425781 249.886719 C 161.046875 250.898438 159.578125 251.285156 158.628906 250.9375 C 157.683594 250.585938 154.824219 247.777344 154.941406 247.464844 C 155.046875 247.164062 159.054688 246.910156 159.996094 247.261719 Z M 157.410156 242.566406 C 157.558594 243.390625 158.460938 244.277344 159.347656 244.121094 C 160.230469 243.957031 160.765625 242.808594 160.609375 241.984375 C 160.464844 241.15625 158.578125 238.40625 158.316406 238.453125 C 158.054688 238.503906 157.265625 241.738281 157.410156 242.566406 Z M 156.691406 243.167969 C 157.480469 243.460938 158.1875 244.511719 157.878906 245.347656 C 157.566406 246.183594 156.34375 246.511719 155.554688 246.222656 C 154.765625 245.929688 152.394531 243.585938 152.492188 243.332031 C 152.578125 243.089844 155.90625 242.878906 156.691406 243.167969 Z M 154.105469 238.675781 C 154.242188 239.445312 155.078125 240.261719 155.90625 240.117188 C 156.722656 239.96875 157.21875 238.902344 157.082031 238.132812 C 156.945312 237.363281 155.195312 234.816406 154.953125 234.855469 C 154.707031 234.90625 153.96875 237.910156 154.105469 238.675781 Z M 153.445312 239.230469 C 154.171875 239.503906 154.835938 240.476562 154.542969 241.253906 C 154.25 242.03125 153.113281 242.332031 152.382812 242.058594 C 151.65625 241.789062 149.457031 239.621094 149.535156 239.386719 C 149.632812 239.152344 152.714844 238.960938 153.445312 239.230469 Z M 151.257812 235.324219 C 151.382812 236.015625 152.140625 236.761719 152.878906 236.625 C 153.621094 236.488281 154.066406 235.527344 153.941406 234.835938 C 153.8125 234.148438 152.238281 231.832031 152.015625 231.882812 C 151.792969 231.910156 151.128906 234.632812 151.257812 235.324219 Z M 150.644531 235.828125 C 151.304688 236.070312 151.90625 236.945312 151.636719 237.65625 C 151.375 238.367188 150.34375 238.628906 149.679688 238.386719 C 149.019531 238.144531 147.027344 236.179688 147.105469 235.964844 C 147.203125 235.761719 149.992188 235.585938 150.644531 235.828125 Z M 151.597656 252.890625 C 152.335938 253.570312 153.84375 253.773438 154.582031 252.976562 C 155.320312 252.179688 155 250.691406 154.261719 250.011719 C 153.523438 249.332031 149.71875 248.046875 149.507812 248.28125 C 149.273438 248.523438 150.847656 252.210938 151.597656 252.890625 Z M 151.335938 253.988281 C 152.308594 253.707031 153.746094 254.191406 154.046875 255.222656 C 154.359375 256.261719 153.40625 257.449219 152.441406 257.742188 C 151.46875 258.023438 147.503906 257.496094 147.414062 257.1875 C 147.328125 256.875 150.371094 254.28125 151.335938 253.988281 Z M 146.453125 251.792969 C 147.066406 252.363281 148.320312 252.53125 148.933594 251.867188 C 149.546875 251.207031 149.28125 249.972656 148.660156 249.398438 C 148.046875 248.828125 144.886719 247.765625 144.703125 247.960938 C 144.519531 248.15625 145.832031 251.21875 146.453125 251.792969 Z M 146.238281 252.703125 C 147.046875 252.460938 148.242188 252.871094 148.496094 253.734375 C 148.746094 254.601562 147.96875 255.59375 147.164062 255.824219 C 146.355469 256.070312 143.058594 255.621094 142.980469 255.367188 C 142.902344 255.105469 145.433594 252.9375 146.238281 252.703125 Z M 141.464844 250.664062 C 142.039062 251.1875 143.195312 251.34375 143.769531 250.730469 C 144.332031 250.121094 144.089844 248.972656 143.515625 248.445312 C 142.941406 247.921875 140.015625 246.929688 139.851562 247.117188 C 139.675781 247.289062 140.890625 250.128906 141.464844 250.664062 Z M 141.269531 251.507812 C 142.019531 251.285156 143.128906 251.664062 143.371094 252.460938 C 143.605469 253.257812 142.875 254.183594 142.136719 254.40625 C 141.386719 254.628906 138.324219 254.222656 138.257812 253.980469 C 138.1875 253.734375 140.523438 251.734375 141.269531 251.507812 Z M 137.167969 249.703125 C 137.683594 250.175781 138.734375 250.324219 139.246094 249.769531 C 139.761719 249.214844 139.539062 248.175781 139.023438 247.699219 C 138.507812 247.222656 135.855469 246.328125 135.707031 246.492188 C 135.554688 246.660156 136.652344 249.226562 137.167969 249.703125 Z M 136.992188 250.46875 C 137.664062 250.265625 138.675781 250.605469 138.886719 251.335938 C 139.101562 252.054688 138.441406 252.890625 137.769531 253.09375 C 137.097656 253.296875 134.328125 252.929688 134.261719 252.703125 C 134.191406 252.492188 136.3125 250.671875 136.992188 250.46875 Z M 133.65625 223.53125 C 133.53125 224.53125 134.25 225.875 135.328125 226 C 136.398438 226.128906 137.421875 225 137.546875 224 C 137.671875 222.996094 136.488281 219.167969 136.164062 219.128906 C 135.84375 219.089844 133.773438 222.53125 133.65625 223.53125 Z M 132.617188 223.960938 C 133.414062 224.570312 133.859375 226.03125 133.199219 226.886719 C 132.539062 227.742188 131.023438 227.671875 130.214844 227.0625 C 129.417969 226.449219 127.519531 222.910156 127.714844 222.65625 C 127.921875 222.402344 131.808594 223.347656 132.617188 223.960938 Z M 131.539062 218.710938 C 131.441406 219.546875 132.03125 220.65625 132.929688 220.769531 C 133.824219 220.878906 134.667969 219.945312 134.773438 219.109375 C 134.871094 218.273438 133.890625 215.09375 133.628906 215.054688 C 133.355469 215.027344 131.644531 217.875 131.539062 218.710938 Z M 130.671875 219.070312 C 131.332031 219.585938 131.710938 220.789062 131.15625 221.5 C 130.605469 222.210938 129.339844 222.152344 128.679688 221.644531 C 128.015625 221.128906 126.441406 218.195312 126.609375 217.980469 C 126.773438 217.777344 130.011719 218.5625 130.671875 219.070312 Z M 129.535156 214.015625 C 129.4375 214.78125 129.992188 215.824219 130.828125 215.921875 C 131.664062 216.015625 132.441406 215.152344 132.539062 214.375 C 132.636719 213.605469 131.722656 210.652344 131.480469 210.621094 C 131.234375 210.59375 129.632812 213.238281 129.535156 214.015625 Z M 128.738281 214.34375 C 129.347656 214.820312 129.699219 215.941406 129.183594 216.601562 C 128.679688 217.261719 127.503906 217.214844 126.890625 216.738281 C 126.277344 216.261719 124.808594 213.539062 124.964844 213.34375 C 125.121094 213.148438 128.113281 213.867188 128.738281 214.34375 Z M 127.804688 209.972656 C 127.714844 210.671875 128.222656 211.605469 128.96875 211.703125 C 129.71875 211.789062 130.429688 211 130.515625 210.300781 C 130.605469 209.601562 129.777344 206.929688 129.554688 206.910156 C 129.328125 206.871094 127.890625 209.269531 127.804688 209.972656 Z M 127.074219 210.273438 C 127.628906 210.699219 127.941406 211.71875 127.484375 212.3125 C 127.027344 212.90625 125.957031 212.867188 125.402344 212.429688 C 124.847656 212.003906 123.523438 209.535156 123.660156 209.359375 C 123.796875 209.183594 126.519531 209.835938 127.074219 210.273438 Z M 122.921875 226.847656 C 123.429688 227.722656 124.808594 228.363281 125.742188 227.820312 C 126.675781 227.273438 126.8125 225.757812 126.316406 224.894531 C 125.820312 224.027344 122.5625 221.664062 122.289062 221.832031 C 122.019531 221.996094 122.417969 225.972656 122.921875 226.847656 Z M 122.347656 227.820312 C 123.359375 227.828125 124.59375 228.722656 124.574219 229.800781 C 124.554688 230.882812 123.300781 231.746094 122.300781 231.726562 C 121.289062 231.71875 117.652344 230.035156 117.660156 229.703125 C 117.660156 229.394531 121.335938 227.808594 122.347656 227.820312 Z M 118.332031 224.269531 C 118.75 225 119.898438 225.523438 120.675781 225.078125 C 121.453125 224.628906 121.570312 223.367188 121.152344 222.636719 C 120.734375 221.910156 118.03125 219.953125 117.796875 220.089844 C 117.574219 220.226562 117.914062 223.542969 118.332031 224.269531 Z M 117.855469 225.078125 C 118.691406 225.085938 119.722656 225.835938 119.714844 226.730469 C 119.703125 227.632812 118.652344 228.34375 117.816406 228.335938 C 116.980469 228.324219 113.957031 226.925781 113.957031 226.652344 C 113.957031 226.390625 117.019531 225.066406 117.855469 225.078125 Z M 113.910156 221.714844 C 114.296875 222.386719 115.367188 222.878906 116.085938 222.460938 C 116.804688 222.042969 116.914062 220.878906 116.523438 220.207031 C 116.136719 219.535156 113.636719 217.71875 113.414062 217.84375 C 113.1875 217.972656 113.519531 221.042969 113.910156 221.714844 Z M 113.472656 222.460938 C 114.25 222.472656 115.203125 223.164062 115.191406 224 C 115.183594 224.835938 114.210938 225.496094 113.433594 225.484375 C 112.652344 225.476562 109.855469 224.171875 109.855469 223.929688 C 109.855469 223.6875 112.691406 222.453125 113.472656 222.460938 Z M 110.085938 219.527344 C 110.4375 220.140625 111.398438 220.585938 112.0625 220.207031 C 112.710938 219.828125 112.808594 218.769531 112.460938 218.164062 C 112.109375 217.5625 109.84375 215.921875 109.648438 216.027344 C 109.445312 216.132812 109.738281 218.914062 110.085938 219.527344 Z M 109.6875 220.207031 C 110.390625 220.21875 111.253906 220.839844 111.246094 221.597656 C 111.234375 222.355469 110.359375 222.949219 109.648438 222.9375 C 108.941406 222.929688 106.410156 221.753906 106.410156 221.53125 C 106.421875 221.304688 108.988281 220.199219 109.6875 220.207031 Z M 119.90625 214.8125 C 119.925781 215.824219 120.839844 217.046875 121.921875 217.019531 C 123 216.988281 123.847656 215.726562 123.828125 214.722656 C 123.808594 213.722656 122.085938 210.097656 121.765625 210.105469 C 121.433594 210.105469 119.886719 213.800781 119.90625 214.8125 Z M 118.945312 215.394531 C 119.820312 215.890625 120.480469 217.261719 119.945312 218.203125 C 119.410156 219.148438 117.90625 219.304688 117.019531 218.808594 C 116.144531 218.3125 113.761719 215.09375 113.917969 214.8125 C 114.074219 214.519531 118.058594 214.898438 118.945312 215.394531 Z M 117.128906 210.351562 C 117.148438 211.1875 117.894531 212.207031 118.800781 212.1875 C 119.703125 212.167969 120.402344 211.117188 120.382812 210.273438 C 120.363281 209.4375 118.9375 206.421875 118.664062 206.433594 C 118.390625 206.441406 117.109375 209.515625 117.128906 210.351562 Z M 116.320312 210.835938 C 117.050781 211.246094 117.59375 212.390625 117.15625 213.179688 C 116.71875 213.964844 115.453125 214.09375 114.726562 213.675781 C 113.996094 213.257812 112.011719 210.582031 112.148438 210.351562 C 112.273438 210.105469 115.589844 210.417969 116.320312 210.835938 Z M 114.472656 205.984375 C 114.492188 206.761719 115.191406 207.707031 116.019531 207.6875 C 116.855469 207.667969 117.507812 206.695312 117.488281 205.917969 C 117.46875 205.140625 116.144531 202.347656 115.890625 202.347656 C 115.648438 202.359375 114.453125 205.207031 114.472656 205.984375 Z M 113.722656 206.433594 C 114.40625 206.8125 114.910156 207.871094 114.492188 208.601562 C 114.074219 209.328125 112.917969 209.445312 112.234375 209.058594 C 111.554688 208.679688 109.71875 206.1875 109.84375 205.976562 C 109.96875 205.761719 113.042969 206.054688 113.722656 206.433594 Z M 121.929688 189.828125 C 121.53125 190.761719 121.863281 192.25 122.855469 192.667969 C 123.847656 193.085938 125.140625 192.289062 125.539062 191.355469 C 125.9375 190.421875 125.859375 186.417969 125.558594 186.289062 C 125.257812 186.171875 122.328125 188.90625 121.929688 189.828125 Z M 120.8125 189.964844 C 121.40625 190.78125 121.433594 192.296875 120.570312 192.9375 C 119.695312 193.582031 118.253906 193.09375 117.652344 192.277344 C 117.058594 191.460938 116.214844 187.554688 116.464844 187.359375 C 116.71875 187.164062 120.21875 189.148438 120.8125 189.964844 Z M 121.230469 184.617188 C 120.898438 185.386719 121.171875 186.628906 122 186.980469 C 122.824219 187.332031 123.90625 186.660156 124.226562 185.890625 C 124.546875 185.125 124.488281 181.789062 124.246094 181.683594 C 124 181.574219 121.5625 183.851562 121.230469 184.617188 Z M 120.296875 184.726562 C 120.792969 185.40625 120.820312 186.667969 120.09375 187.203125 C 119.363281 187.738281 118.167969 187.332031 117.671875 186.660156 C 117.175781 185.980469 116.476562 182.722656 116.691406 182.566406 C 116.902344 182.402344 119.800781 184.054688 120.296875 184.726562 Z M 120.609375 179.554688 C 120.308594 180.273438 120.550781 181.417969 121.316406 181.742188 C 122.085938 182.0625 123.085938 181.449219 123.390625 180.730469 C 123.691406 180.011719 123.632812 176.929688 123.398438 176.832031 C 123.175781 176.734375 120.910156 178.835938 120.609375 179.554688 Z M 119.742188 179.652344 C 120.199219 180.28125 120.230469 181.449219 119.558594 181.945312 C 118.886719 182.441406 117.769531 182.0625 117.3125 181.4375 C 116.855469 180.808594 116.203125 177.792969 116.398438 177.648438 C 116.59375 177.492188 119.277344 179.027344 119.742188 179.652344 Z M 120.054688 175.179688 C 119.78125 175.832031 120.003906 176.859375 120.695312 177.160156 C 121.386719 177.453125 122.289062 176.898438 122.570312 176.25 C 122.84375 175.597656 122.796875 172.808594 122.582031 172.71875 C 122.378906 172.632812 120.324219 174.539062 120.054688 175.179688 Z M 119.265625 175.277344 C 119.683594 175.839844 119.703125 176.910156 119.089844 177.355469 C 118.480469 177.804688 117.476562 177.464844 117.058594 176.898438 C 116.640625 176.335938 116.046875 173.605469 116.234375 173.46875 C 116.425781 173.320312 118.859375 174.703125 119.265625 175.277344 Z M 110.699219 190.0625 C 110.941406 191.042969 112.101562 192.035156 113.140625 191.773438 C 114.191406 191.511719 114.746094 190.089844 114.492188 189.109375 C 114.25 188.128906 111.777344 184.976562 111.46875 185.054688 C 111.15625 185.132812 110.457031 189.082031 110.699219 190.0625 Z M 109.882812 190.839844 C 110.84375 191.132812 111.789062 192.328125 111.476562 193.367188 C 111.167969 194.40625 109.71875 194.882812 108.753906 194.59375 C 107.792969 194.300781 104.757812 191.675781 104.855469 191.375 C 104.945312 191.054688 108.921875 190.546875 109.882812 190.839844 Z M 107.003906 186.320312 C 107.210938 187.136719 108.160156 187.960938 109.039062 187.75 C 109.914062 187.535156 110.371094 186.347656 110.164062 185.53125 C 109.960938 184.714844 107.910156 182.089844 107.648438 182.160156 C 107.382812 182.226562 106.800781 185.503906 107.003906 186.320312 Z M 106.324219 186.960938 C 107.132812 187.203125 107.910156 188.195312 107.648438 189.0625 C 107.382812 189.925781 106.1875 190.324219 105.382812 190.082031 C 104.574219 189.839844 102.054688 187.660156 102.132812 187.398438 C 102.210938 187.144531 105.515625 186.726562 106.324219 186.960938 Z M 103.457031 182.644531 C 103.640625 183.402344 104.535156 184.171875 105.34375 183.964844 C 106.148438 183.761719 106.578125 182.675781 106.390625 181.914062 C 106.207031 181.15625 104.300781 178.726562 104.058594 178.785156 C 103.816406 178.84375 103.269531 181.886719 103.457031 182.644531 Z M 102.824219 183.246094 C 103.574219 183.472656 104.292969 184.394531 104.050781 185.191406 C 103.804688 185.988281 102.699219 186.359375 101.949219 186.132812 C 101.199219 185.910156 98.867188 183.890625 98.933594 183.644531 C 99.011719 183.414062 102.074219 183.015625 102.824219 183.246094 Z M 100.394531 179.484375 C 100.566406 180.164062 101.367188 180.867188 102.09375 180.679688 C 102.824219 180.496094 103.210938 179.503906 103.039062 178.824219 C 102.863281 178.144531 101.140625 175.9375 100.925781 175.996094 C 100.703125 176.042969 100.21875 178.804688 100.394531 179.484375 Z M 99.820312 180.03125 C 100.488281 180.234375 101.152344 181.070312 100.925781 181.789062 C 100.714844 182.507812 99.703125 182.847656 99.03125 182.644531 C 98.359375 182.441406 96.242188 180.613281 96.308594 180.398438 C 96.367188 180.175781 99.136719 179.824219 99.820312 180.03125 Z M 111.128906 177.667969 C 110.875 178.640625 111.398438 180.070312 112.449219 180.339844 C 113.5 180.613281 114.65625 179.632812 114.917969 178.660156 C 115.171875 177.6875 114.519531 173.730469 114.210938 173.652344 C 113.898438 173.566406 111.390625 176.6875 111.128906 177.667969 Z M 110.039062 177.949219 C 110.75 178.667969 110.992188 180.164062 110.222656 180.925781 C 109.457031 181.683594 107.957031 181.410156 107.246094 180.691406 C 106.539062 179.972656 105.136719 176.21875 105.371094 175.996094 C 105.605469 175.773438 109.328125 177.238281 110.039062 177.949219 Z M 109.6875 172.601562 C 109.476562 173.417969 109.921875 174.59375 110.789062 174.828125 C 111.652344 175.050781 112.625 174.246094 112.839844 173.429688 C 113.054688 172.613281 112.507812 169.328125 112.246094 169.257812 C 111.984375 169.191406 109.894531 171.796875 109.6875 172.601562 Z M 108.773438 172.847656 C 109.367188 173.449219 109.570312 174.691406 108.929688 175.324219 C 108.289062 175.957031 107.042969 175.734375 106.449219 175.128906 C 105.859375 174.527344 104.699219 171.40625 104.886719 171.222656 C 105.070312 171.039062 108.191406 172.253906 108.773438 172.847656 Z M 108.335938 167.683594 C 108.140625 168.433594 108.550781 169.539062 109.359375 169.746094 C 110.164062 169.957031 111.058594 169.199219 111.265625 168.441406 C 111.457031 167.695312 110.953125 164.640625 110.71875 164.574219 C 110.464844 164.515625 108.53125 166.925781 108.335938 167.683594 Z M 107.492188 167.90625 C 108.035156 168.460938 108.230469 169.617188 107.636719 170.203125 C 107.042969 170.785156 105.886719 170.582031 105.34375 170.027344 C 104.796875 169.472656 103.71875 166.574219 103.894531 166.402344 C 104.070312 166.226562 106.945312 167.351562 107.492188 167.90625 Z M 120.492188 156.816406 C 119.617188 157.15625 118.847656 158.34375 119.21875 159.273438 C 119.585938 160.207031 120.957031 160.539062 121.824219 160.199219 C 122.6875 159.859375 125.292969 157.203125 125.179688 156.921875 C 125.070312 156.640625 121.355469 156.476562 120.492188 156.816406 Z M 119.675781 156.15625 C 119.527344 157.078125 118.535156 158.089844 117.546875 157.921875 C 116.554688 157.757812 115.941406 156.496094 116.085938 155.570312 C 116.234375 154.648438 118.273438 151.546875 118.574219 151.59375 C 118.867188 151.644531 119.820312 155.230469 119.675781 156.15625 Z M 123.476562 152.964844 C 122.757812 153.246094 122.105469 154.230469 122.417969 155.007812 C 122.71875 155.785156 123.867188 156.058594 124.585938 155.777344 C 125.304688 155.492188 127.472656 153.285156 127.375 153.054688 C 127.289062 152.820312 124.207031 152.675781 123.476562 152.964844 Z M 122.804688 152.421875 C 122.679688 153.191406 121.863281 154.027344 121.035156 153.890625 C 120.210938 153.753906 119.703125 152.703125 119.820312 151.9375 C 119.945312 151.167969 121.640625 148.589844 121.890625 148.628906 C 122.132812 148.667969 122.921875 151.652344 122.804688 152.421875 Z M 126.421875 149.253906 C 125.75 149.515625 125.148438 150.429688 125.441406 151.148438 C 125.730469 151.867188 126.78125 152.121094 127.453125 151.859375 C 128.125 151.59375 130.128906 149.542969 130.039062 149.332031 C 129.960938 149.117188 127.09375 148.988281 126.421875 149.253906 Z M 125.800781 148.746094 C 125.683594 149.457031 124.925781 150.234375 124.15625 150.109375 C 123.390625 149.980469 122.921875 149.007812 123.027344 148.289062 C 123.144531 147.582031 124.722656 145.1875 124.945312 145.21875 C 125.179688 145.265625 125.917969 148.039062 125.800781 148.746094 Z M 128.960938 146.054688 C 128.359375 146.296875 127.8125 147.113281 128.066406 147.765625 C 128.320312 148.417969 129.28125 148.648438 129.882812 148.40625 C 130.488281 148.164062 132.304688 146.316406 132.226562 146.121094 C 132.148438 145.929688 129.5625 145.8125 128.960938 146.054688 Z M 128.386719 145.597656 C 128.28125 146.238281 127.589844 146.949219 126.898438 146.832031 C 126.207031 146.714844 125.78125 145.832031 125.878906 145.1875 C 125.976562 144.546875 127.40625 142.378906 127.609375 142.410156 C 127.832031 142.449219 128.492188 144.957031 128.386719 145.597656 Z M 113.042969 149.535156 C 112.558594 150.332031 112.644531 151.742188 113.5 152.265625 C 114.355469 152.792969 115.648438 152.226562 116.136719 151.429688 C 116.621094 150.632812 117.109375 146.949219 116.84375 146.792969 C 116.59375 146.636719 113.53125 148.738281 113.042969 149.535156 Z M 111.992188 149.503906 C 112.429688 150.332031 112.246094 151.730469 111.359375 152.199219 C 110.476562 152.664062 109.222656 152.023438 108.785156 151.195312 C 108.347656 150.371094 108.113281 146.667969 108.375 146.519531 C 108.636719 146.375 111.554688 148.667969 111.992188 149.503906 Z M 113.109375 144.664062 C 112.703125 145.324219 112.78125 146.5 113.492188 146.9375 C 114.199219 147.375 115.28125 146.910156 115.6875 146.25 C 116.097656 145.585938 116.496094 142.527344 116.28125 142.390625 C 116.066406 142.253906 113.519531 143.992188 113.109375 144.664062 Z M 112.246094 144.636719 C 112.605469 145.324219 112.460938 146.492188 111.722656 146.871094 C 110.980469 147.257812 109.941406 146.726562 109.570312 146.035156 C 109.210938 145.34375 109.019531 142.261719 109.230469 142.144531 C 109.457031 142.03125 111.886719 143.945312 112.246094 144.636719 Z M 113.238281 139.929688 C 112.859375 140.542969 112.925781 141.632812 113.585938 142.039062 C 114.25 142.449219 115.25 142.011719 115.621094 141.398438 C 116 140.785156 116.367188 137.945312 116.175781 137.820312 C 115.980469 137.695312 113.617188 139.308594 113.238281 139.929688 Z M 112.429688 139.902344 C 112.769531 140.542969 112.625 141.621094 111.945312 141.980469 C 111.265625 142.339844 110.292969 141.84375 109.949219 141.203125 C 109.609375 140.5625 109.4375 137.703125 109.640625 137.597656 C 109.84375 137.488281 112.101562 139.257812 112.429688 139.902344 Z M 113.335938 135.847656 C 112.996094 136.402344 113.054688 137.382812 113.65625 137.753906 C 114.257812 138.121094 115.152344 137.734375 115.492188 137.167969 C 115.832031 136.605469 116.175781 134.039062 115.988281 133.933594 C 115.8125 133.824219 113.675781 135.292969 113.335938 135.847656 Z M 112.605469 135.828125 C 112.90625 136.402344 112.78125 137.382812 112.160156 137.703125 C 111.535156 138.023438 110.660156 137.578125 110.359375 137.003906 C 110.058594 136.429688 109.894531 133.84375 110.078125 133.746094 C 110.261719 133.640625 112.304688 135.246094 112.605469 135.828125 Z M 121.523438 141.765625 C 120.707031 142.234375 120.113281 143.507812 120.609375 144.382812 C 121.105469 145.246094 122.515625 145.382812 123.320312 144.917969 C 124.136719 144.449219 126.324219 141.457031 126.171875 141.195312 C 126.023438 140.929688 122.328125 141.300781 121.523438 141.765625 Z M 120.617188 141.234375 C 120.597656 142.164062 119.773438 143.304688 118.769531 143.292969 C 117.769531 143.273438 116.972656 142.109375 116.992188 141.175781 C 117.011719 140.242188 118.574219 136.878906 118.878906 136.878906 C 119.179688 136.886719 120.636719 140.300781 120.617188 141.234375 Z M 123.921875 137.527344 C 123.253906 137.917969 122.746094 138.976562 123.164062 139.707031 C 123.582031 140.425781 124.75 140.542969 125.421875 140.152344 C 126.09375 139.765625 127.921875 137.277344 127.792969 137.050781 C 127.675781 136.828125 124.59375 137.140625 123.921875 137.527344 Z M 123.175781 137.082031 C 123.164062 137.859375 122.476562 138.8125 121.640625 138.792969 C 120.800781 138.78125 120.140625 137.8125 120.160156 137.03125 C 120.171875 136.253906 121.484375 133.457031 121.726562 133.464844 C 121.96875 133.464844 123.183594 136.304688 123.175781 137.082031 Z M 126.304688 133.4375 C 125.683594 133.796875 125.21875 134.777344 125.605469 135.449219 C 125.996094 136.121094 127.074219 136.226562 127.695312 135.867188 C 128.320312 135.507812 130.011719 133.191406 129.894531 132.988281 C 129.785156 132.785156 126.929688 133.078125 126.304688 133.4375 Z M 125.617188 133.019531 C 125.605469 133.738281 124.964844 134.621094 124.1875 134.601562 C 123.410156 134.59375 122.804688 133.6875 122.816406 132.96875 C 122.824219 132.25 124.039062 129.65625 124.273438 129.65625 C 124.507812 129.65625 125.625 132.300781 125.617188 133.019531 Z M 125.617188 133.019531 " fill-opacity="1" fill-rule="nonzero"/><path fill="#ffffff" d="M 114.433594 237.316406 C 114.433594 237.316406 121.394531 237.238281 127.347656 233.222656 C 133.296875 229.210938 145.480469 221.820312 155.234375 231.394531 C 155.234375 231.394531 148.425781 230.25 143.3125 234.496094 C 138.199219 238.753906 130.273438 243.742188 123.601562 243.1875 C 116.941406 242.644531 114.433594 237.316406 114.433594 237.316406 Z M 210.199219 251.402344 C 210.199219 251.402344 198.53125 254.835938 187.320312 254.601562 C 176.109375 254.835938 164.441406 251.402344 164.441406 251.402344 L 153.6875 261.695312 C 153.6875 261.695312 157.808594 260.441406 164.664062 263.523438 C 171.082031 266.410156 178.511719 269.433594 187.3125 269.433594 C 196.109375 269.433594 203.550781 266.410156 209.957031 263.523438 C 216.820312 260.433594 220.933594 261.695312 220.933594 261.695312 Z M 210.199219 251.402344 " fill-opacity="1" fill-rule="nonzero"/><path fill="#ffffff" d="M 151.265625 266.179688 C 151.265625 268.046875 152.78125 269.5625 154.648438 269.5625 C 156.515625 269.5625 167.183594 268.046875 167.183594 266.179688 C 167.183594 264.3125 156.515625 262.796875 154.648438 262.796875 C 152.78125 262.796875 151.265625 264.3125 151.265625 266.179688 Z M 151.265625 266.179688 " fill-opacity="1" fill-rule="nonzero"/><path fill="#ffffff" d="M 139.121094 266.429688 C 129.59375 264.652344 129.214844 259.5 129.214844 259.5 C 129.214844 259.5 134.394531 262.796875 140.492188 261.582031 C 146.589844 260.367188 152.09375 260.558594 152.09375 260.558594 C 152.09375 260.558594 146.289062 266.996094 151.167969 270.195312 C 153.328125 271.613281 159.308594 271.011719 161.914062 270.4375 C 164.519531 269.863281 170.128906 268.824219 171.355469 268.824219 C 173.222656 268.824219 174.738281 270.339844 174.738281 272.207031 C 174.738281 274.070312 173.222656 275.589844 171.355469 275.589844 C 170.109375 275.589844 164.566406 274.558594 161.679688 273.898438 C 158.792969 273.234375 156.769531 272.925781 154.601562 272.476562 C 152.003906 271.941406 146.589844 272.632812 139.800781 273.167969 C 133.015625 273.703125 128.054688 270.574219 125.769531 267.832031 C 130.574219 269.355469 136.90625 267.53125 139.121094 266.429688 Z M 93.351562 189.625 C 92.972656 188.699219 101.675781 195.195312 107.617188 194.464844 C 113.558594 193.738281 124.972656 192.113281 127.308594 196.546875 C 129.652344 200.96875 131.742188 205.558594 131.742188 205.558594 C 131.742188 205.558594 127.785156 203.253906 122.660156 203.222656 C 117.515625 203.195312 106.714844 202.699219 102.464844 201.28125 C 98.207031 199.851562 94.871094 193.269531 93.351562 189.625 Z M 101.570312 160.910156 C 101.675781 158.972656 105.527344 159.789062 106.324219 158.1875 C 107.121094 156.582031 104.164062 153.171875 105.800781 152.011719 C 107.421875 150.855469 115.707031 158.273438 120.316406 163.242188 C 124.925781 168.21875 126.207031 176.160156 124.722656 178.503906 C 123.253906 180.847656 124.195312 178.707031 124.195312 178.707031 C 124.195312 178.707031 121.277344 172.921875 116.601562 170.5625 C 111.925781 168.207031 101.570312 160.910156 101.570312 160.910156 Z M 209.054688 236.925781 C 207.148438 237.394531 204.773438 239.765625 202.546875 243.082031 C 202.316406 239.855469 199.6875 237.296875 196.414062 237.296875 C 195.625 237.296875 194.886719 237.480469 194.1875 237.746094 C 193.367188 236.597656 192.09375 235.808594 190.578125 235.808594 C 189.402344 235.808594 188.351562 236.285156 187.542969 237.023438 C 186.738281 236.285156 185.6875 235.808594 184.511719 235.808594 C 182.992188 235.808594 181.71875 236.605469 180.902344 237.746094 C 180.214844 237.472656 179.464844 237.296875 178.675781 237.296875 C 175.273438 237.296875 172.523438 240.039062 172.472656 243.429688 C 170.179688 239.941406 167.726562 237.414062 165.753906 236.9375 C 162.496094 236.140625 159.980469 232.707031 157.800781 231.164062 C 157.800781 231.164062 158.003906 237.0625 163.867188 241.28125 C 167.757812 244.082031 166.726562 250.546875 166.726562 250.546875 C 166.726562 250.546875 173.816406 252.316406 177.023438 252.667969 C 176.539062 251.238281 175.90625 249.933594 175.304688 248.621094 C 175.867188 249 176.480469 249.273438 177.148438 249.449219 L 178.957031 252.820312 C 178.957031 252.820312 183.121094 253.199219 187.523438 253.199219 C 191.929688 253.199219 196.121094 252.820312 196.121094 252.820312 L 197.929688 249.449219 C 198.445312 249.3125 198.929688 249.148438 199.386719 248.894531 C 198.824219 250.128906 198.242188 251.34375 197.785156 252.675781 C 200.984375 252.335938 208.082031 250.558594 208.082031 250.558594 C 208.082031 250.558594 207.050781 244.09375 210.9375 241.292969 C 216.792969 237.074219 217.007812 231.171875 217.007812 231.171875 C 214.828125 232.699219 212.308594 236.128906 209.054688 236.925781 Z M 209.054688 236.925781 " fill-opacity="1" fill-rule="nonzero"/></svg>