<svg xmlns="http://www.w3.org/2000/svg" xmlns:xlink="http://www.w3.org/1999/xlink" width="500" zoomAndPan="magnify" viewBox="0 0 375 374.999991" height="500" preserveAspectRatio="xMidYMid meet" version="1.0"><defs><clipPath id="ae70f9b657"><path d="M 131 67.191406 L 243 67.191406 L 243 307.941406 L 131 307.941406 Z M 131 67.191406 " clip-rule="nonzero"/></clipPath><clipPath id="504022b03c"><path d="M 20.828125 67.191406 L 132 67.191406 L 132 307.941406 L 20.828125 307.941406 Z M 20.828125 67.191406 " clip-rule="nonzero"/></clipPath><clipPath id="bf86513427"><path d="M 159 67.191406 L 353.828125 67.191406 L 353.828125 307.941406 L 159 307.941406 Z M 159 67.191406 " clip-rule="nonzero"/></clipPath></defs><g clip-path="url(#ae70f9b657)"><path fill="#cc212d" d="M 131.859375 67.191406 L 131.859375 307.941406 L 242.796875 307.941406 L 242.796875 67.191406 Z M 204.726562 211.550781 L 187.328125 198.890625 L 169.929688 211.550781 L 176.574219 191.066406 L 159.175781 178.410156 L 180.679688 178.410156 L 187.328125 157.917969 L 193.972656 178.398438 L 215.476562 178.398438 L 198.078125 191.058594 Z M 204.726562 211.550781 " fill-opacity="1" fill-rule="nonzero"/></g><g clip-path="url(#504022b03c)"><path fill="#288541" d="M 57.898438 67.191406 C 37.476562 67.191406 20.921875 83.777344 20.921875 104.230469 L 20.921875 270.902344 C 20.921875 291.359375 37.476562 307.941406 57.898438 307.941406 L 131.859375 307.941406 L 131.859375 67.191406 Z M 57.898438 67.191406 " fill-opacity="1" fill-rule="nonzero"/></g><g clip-path="url(#bf86513427)"><path fill="#fee833" d="M 316.753906 67.191406 L 242.796875 67.191406 L 242.796875 307.941406 L 316.753906 307.941406 C 337.175781 307.941406 353.734375 291.359375 353.734375 270.902344 L 353.734375 104.230469 C 353.734375 83.777344 337.175781 67.191406 316.753906 67.191406 Z M 193.972656 178.410156 L 187.328125 157.917969 L 180.679688 178.410156 L 159.175781 178.410156 L 176.574219 191.066406 L 169.929688 211.550781 L 187.328125 198.890625 L 204.726562 211.550781 L 198.078125 191.066406 L 215.476562 178.410156 Z M 193.972656 178.410156 " fill-opacity="1" fill-rule="nonzero"/></g></svg>