<svg xmlns="http://www.w3.org/2000/svg" xmlns:xlink="http://www.w3.org/1999/xlink" width="500" zoomAndPan="magnify" viewBox="0 0 375 374.999991" height="500" preserveAspectRatio="xMidYMid meet" version="1.0"><defs><clipPath id="f552255610"><path d="M 15.496094 63.34375 L 359.746094 63.34375 L 359.746094 311.59375 L 15.496094 311.59375 Z M 15.496094 63.34375 " clip-rule="nonzero"/></clipPath></defs><g clip-path="url(#f552255610)"><path fill="#de2910" d="M 359.652344 273.402344 C 359.652344 294.496094 342.535156 311.59375 321.421875 311.59375 L 53.820312 311.59375 C 32.710938 311.59375 15.59375 294.496094 15.59375 273.402344 L 15.59375 101.539062 C 15.59375 80.445312 32.710938 63.34375 53.820312 63.34375 L 321.421875 63.34375 C 342.535156 63.34375 359.652344 80.445312 359.652344 101.539062 Z M 359.652344 273.402344 " fill-opacity="1" fill-rule="nonzero"/></g><path fill="#ffde02" d="M 122.023438 101.316406 L 129.054688 104.71875 L 134.683594 99.3125 L 133.625 107.046875 L 140.503906 110.734375 L 132.820312 112.105469 L 131.445312 119.785156 L 127.757812 112.910156 L 120.015625 113.96875 L 125.425781 108.34375 Z M 166.605469 129.398438 L 163.203125 136.417969 L 168.613281 142.050781 L 160.882812 140.980469 L 157.191406 147.863281 L 155.816406 140.179688 L 148.121094 138.804688 L 155.011719 135.117188 L 153.941406 127.394531 L 159.582031 132.796875 Z M 157.460938 165.480469 L 160.019531 172.851562 L 167.828125 173.015625 L 161.609375 177.722656 L 163.871094 185.199219 L 157.460938 180.738281 L 151.046875 185.199219 L 153.300781 177.722656 L 147.082031 173.015625 L 154.890625 172.851562 Z M 122.023438 196.800781 L 129.054688 200.199219 L 134.683594 194.792969 L 133.625 202.527344 L 140.503906 206.214844 L 132.820312 207.589844 L 131.445312 215.265625 L 127.757812 208.390625 L 120.015625 209.449219 L 125.425781 203.828125 Z M 82.492188 120.164062 L 91.371094 145.667969 L 118.378906 146.222656 L 96.847656 162.53125 L 104.675781 188.367188 L 82.492188 172.949219 L 60.3125 188.367188 L 68.140625 162.53125 L 46.605469 146.222656 L 73.613281 145.667969 Z M 82.492188 120.164062 " fill-opacity="1" fill-rule="nonzero"/></svg>