<svg xmlns="http://www.w3.org/2000/svg" xmlns:xlink="http://www.w3.org/1999/xlink" width="500" zoomAndPan="magnify" viewBox="0 0 375 374.999991" height="500" preserveAspectRatio="xMidYMid meet" version="1.0"><defs><clipPath id="eebdd6a43a"><path d="M 18.515625 65.523438 L 356.765625 65.523438 L 356.765625 188 L 18.515625 188 Z M 18.515625 65.523438 " clip-rule="nonzero"/></clipPath><clipPath id="21249e7317"><path d="M 18.515625 187 L 356.765625 187 L 356.765625 254 L 18.515625 254 Z M 18.515625 187 " clip-rule="nonzero"/></clipPath><clipPath id="e039e58aad"><path d="M 18.515625 253 L 356.765625 253 L 356.765625 309.273438 L 18.515625 309.273438 Z M 18.515625 253 " clip-rule="nonzero"/></clipPath></defs><g clip-path="url(#eebdd6a43a)"><path fill="#fbd116" d="M 319.105469 65.523438 L 56.171875 65.523438 C 35.429688 65.523438 18.609375 82.3125 18.609375 103.023438 L 18.609375 187.398438 L 356.667969 187.398438 L 356.667969 103.023438 C 356.667969 82.3125 339.847656 65.523438 319.105469 65.523438 Z M 319.105469 65.523438 " fill-opacity="1" fill-rule="nonzero"/></g><g clip-path="url(#21249e7317)"><path fill="#22408c" d="M 18.609375 187.398438 L 356.667969 187.398438 L 356.667969 253.023438 L 18.609375 253.023438 Z M 18.609375 187.398438 " fill-opacity="1" fill-rule="nonzero"/></g><g clip-path="url(#e039e58aad)"><path fill="#ce2028" d="M 18.609375 271.773438 C 18.609375 292.484375 35.429688 309.273438 56.171875 309.273438 L 319.105469 309.273438 C 339.847656 309.273438 356.667969 292.484375 356.667969 271.773438 L 356.667969 253.023438 L 18.609375 253.023438 Z M 18.609375 271.773438 " fill-opacity="1" fill-rule="nonzero"/></g></svg>