<svg xmlns="http://www.w3.org/2000/svg" xmlns:xlink="http://www.w3.org/1999/xlink" width="500" zoomAndPan="magnify" viewBox="0 0 375 374.999991" height="500" preserveAspectRatio="xMidYMid meet" version="1.0"><defs><clipPath id="757ab3aa3c"><path d="M 16.199219 63.851562 L 358.949219 63.851562 L 358.949219 311.351562 L 16.199219 311.351562 Z M 16.199219 63.851562 " clip-rule="nonzero"/></clipPath><clipPath id="74ddc92a87"><path d="M 16.199219 63.851562 L 198 63.851562 L 198 188 L 16.199219 188 Z M 16.199219 63.851562 " clip-rule="nonzero"/></clipPath><clipPath id="ddeb8b2ec2"><path d="M 23 63.851562 L 198 63.851562 L 198 188 L 23 188 Z M 23 63.851562 " clip-rule="nonzero"/></clipPath></defs><g clip-path="url(#757ab3aa3c)"><path fill="#68bfe5" d="M 320.789062 63.851562 L 54.359375 63.851562 C 52.410156 63.851562 50.488281 63.996094 48.613281 64.28125 L 48.574219 80.976562 L 22.597656 80.9375 C 18.621094 86.957031 16.296875 94.171875 16.296875 101.929688 L 16.296875 273.277344 C 16.296875 294.304688 33.339844 311.351562 54.359375 311.351562 L 320.789062 311.351562 C 341.808594 311.351562 358.851562 294.304688 358.851562 273.277344 L 358.851562 101.929688 C 358.851562 80.902344 341.808594 63.851562 320.789062 63.851562 Z M 320.789062 63.851562 " fill-opacity="1" fill-rule="nonzero"/></g><path fill="#000000" d="M 279.359375 126.917969 L 232.972656 126.917969 L 232.972656 205.449219 C 232.972656 232.019531 279.359375 246.898438 279.359375 246.898438 C 279.359375 246.898438 325.746094 232.019531 325.746094 205.449219 L 325.746094 126.917969 Z M 279.359375 126.917969 " fill-opacity="1" fill-rule="nonzero"/><path fill="#ffffff" d="M 279.359375 244.898438 C 274.078125 243.082031 234.875 228.773438 234.875 205.449219 L 234.875 128.820312 L 323.84375 128.820312 L 323.84375 205.449219 C 323.84375 228.761719 284.640625 243.070312 279.359375 244.898438 Z M 279.359375 244.898438 " fill-opacity="1" fill-rule="nonzero"/><path fill="#d21034" d="M 323.84375 158.054688 L 323.84375 128.820312 L 234.875 128.820312 L 234.875 158.054688 L 273.011719 158.054688 L 273.011719 190.382812 L 234.875 190.382812 L 234.875 202.871094 L 273.011719 202.871094 L 273.011719 242.453125 C 276.03125 243.707031 278.339844 244.535156 279.359375 244.890625 C 280.347656 244.546875 282.574219 243.746094 285.507812 242.539062 L 285.507812 202.871094 L 323.84375 202.871094 L 323.84375 190.382812 L 285.507812 190.382812 L 285.507812 158.054688 Z M 323.84375 158.054688 " fill-opacity="1" fill-rule="nonzero"/><path fill="#ffffff" d="M 246.417969 146.59375 C 246.417969 149.210938 243.972656 151.335938 240.976562 151.335938 C 237.96875 151.335938 235.53125 149.210938 235.53125 146.59375 C 235.53125 143.976562 237.96875 141.851562 240.976562 141.851562 C 243.972656 141.851562 246.417969 143.976562 246.417969 146.59375 Z M 246.417969 146.59375 " fill-opacity="1" fill-rule="nonzero"/><path fill="#ffd101" d="M 241.992188 142.832031 C 238.890625 143.375 237.386719 141.492188 237.976562 139.710938 C 238.566406 137.929688 241.546875 136.292969 244.371094 135.988281 C 247.199219 135.695312 249.871094 138.519531 252.097656 138.664062 C 254.324219 138.816406 255.515625 137.578125 255.960938 135.960938 C 256.410156 134.34375 259.53125 130.660156 257.597656 129.734375 C 260.128906 129.734375 260.128906 132.410156 260.128906 132.410156 C 260.128906 132.410156 262.957031 129.582031 265.039062 129.734375 C 266.230469 131.820312 265.039062 134.789062 265.039062 134.789062 C 265.039062 134.789062 268.007812 133.601562 270.089844 134.941406 C 266.078125 135.53125 265.488281 137.910156 265.488281 137.910156 C 265.488281 137.910156 266.230469 139.84375 265.191406 140.882812 C 264.152344 141.917969 273.363281 143.851562 278.425781 142.367188 C 283.480469 140.882812 293.148438 137.453125 299.390625 137.453125 C 305.632812 137.453125 306.972656 139.835938 308.457031 137.75 C 309.941406 135.664062 306.667969 133.4375 301.320312 133.886719 C 295.972656 134.332031 286.894531 140.53125 283.328125 136.390625 C 282.433594 136.390625 281.984375 137.453125 281.984375 137.453125 C 281.984375 137.453125 279.757812 136.710938 277.523438 135.523438 C 275.296875 134.332031 275.734375 138.351562 276.933594 138.941406 C 273.210938 138.789062 273.335938 136.390625 273.335938 136.390625 C 273.335938 136.390625 268.75 133.019531 271.726562 130.488281 C 271.945312 135.105469 276.039062 133.761719 278.273438 132.867188 C 280.5 131.972656 283.328125 132.714844 284.667969 133.90625 C 286.011719 135.09375 289.875 136.132812 294.773438 133.3125 C 299.683594 130.488281 312.910156 129.449219 313.0625 135.398438 C 313.214844 141.347656 306.515625 141.796875 306.515625 141.796875 C 306.515625 141.796875 307.257812 145.367188 311.425781 144.621094 C 315.59375 143.878906 318.269531 142.691406 319.457031 145.964844 C 320.648438 149.238281 323.320312 149.382812 322.4375 152.066406 C 321.542969 154.742188 318.574219 155.988281 314.558594 155.292969 C 310.542969 154.597656 310.09375 152.960938 313.367188 152.363281 C 316.640625 151.773438 317.230469 149.238281 316.042969 148.640625 C 314.851562 148.039062 312.625 150.429688 309.648438 149.230469 C 306.667969 148.03125 302.804688 145.660156 302.804688 145.660156 C 302.804688 145.660156 302.957031 147.296875 300.273438 148.191406 C 297.601562 149.085938 299.828125 150.125 300.570312 151.761719 C 301.3125 153.398438 297.894531 154.734375 294.328125 155.476562 C 290.757812 156.21875 288.085938 158.160156 284.660156 153.988281 C 281.242188 149.820312 285.554688 148.640625 287.332031 149.972656 C 289.113281 151.304688 290.902344 153.695312 292.386719 152.503906 C 293.871094 151.316406 291.347656 150.574219 291.042969 148.335938 C 290.75 146.109375 291.195312 143.433594 291.195312 143.433594 C 291.195312 143.433594 286.4375 150.859375 276.332031 152.34375 C 266.226562 153.828125 264.441406 153.828125 264.441406 153.828125 L 261.472656 151.742188 L 257.902344 154.125 L 257.75 151.449219 C 257.75 151.449219 252.097656 155.882812 249.128906 156.570312 C 246.160156 157.253906 238.035156 155.324219 237.855469 153.085938 C 237.671875 150.859375 238.566406 149.8125 241.242188 148.917969 C 243.914062 148.019531 244.363281 149.507812 245.703125 150.707031 C 247.046875 151.90625 248.53125 153.53125 250.460938 151.894531 C 252.394531 150.257812 253.429688 149.667969 253.429688 149.667969 L 254.019531 146.839844 L 251.195312 146.6875 L 252.230469 143.421875 C 252.230469 143.421875 250.148438 143.863281 248.664062 142.519531 C 247.179688 141.175781 247.027344 139.84375 245.695312 140.292969 C 244.371094 140.75 245.410156 142.234375 241.992188 142.832031 Z M 241.992188 142.832031 " fill-opacity="1" fill-rule="nonzero"/><path fill="#964b36" d="M 249.128906 185.964844 C 246.597656 187.003906 242.734375 178.671875 244.960938 176.292969 C 247.199219 173.914062 251.652344 184.925781 249.128906 185.964844 Z M 254.03125 184.925781 C 251.660156 185.136719 252.546875 173.617188 254.03125 173.617188 C 255.523438 173.617188 257.304688 184.632812 254.03125 184.925781 Z M 258.199219 186.746094 C 255.238281 186.203125 259.683594 179.273438 260.871094 179.273438 C 262.0625 179.273438 261.613281 187.375 258.199219 186.746094 Z M 305.175781 188.640625 C 299.378906 188.800781 302.644531 187.621094 303.242188 186.050781 C 303.832031 184.46875 303.480469 172.722656 303.480469 172.722656 L 306.8125 172.722656 C 306.8125 172.722656 305.773438 182.84375 306.8125 184.925781 C 307.859375 187.011719 310.53125 188.496094 305.175781 188.640625 Z M 316.621094 209.171875 C 318 207.628906 314.539062 205.15625 312.160156 205.15625 C 309.78125 205.15625 307.085938 206.496094 305.089844 212.144531 C 303.089844 217.796875 307.324219 216.160156 308.410156 213.039062 C 309.496094 209.914062 310.378906 208.125 312.015625 207.984375 C 313.652344 207.832031 314.242188 211.847656 316.621094 209.171875 Z M 293.878906 228.953125 C 290.824219 228.726562 288.226562 236.683594 288.226562 236.683594 C 288.226562 236.683594 301.910156 229.542969 293.878906 228.953125 Z M 293.878906 228.953125 " fill-opacity="1" fill-rule="nonzero"/><path fill="#00a651" d="M 246.417969 179.273438 C 247.160156 181.652344 239.613281 178.890625 239.472656 183.023438 C 236.351562 182.546875 240.8125 176.445312 243.640625 177.339844 C 243.050781 174.066406 238.824219 172.734375 238.40625 178.082031 C 233.675781 173.914062 239.699219 169.90625 242.410156 171.6875 C 240.964844 166.632812 238.195312 166.71875 237.855469 169.753906 C 234.277344 166.785156 237.882812 162.023438 240.984375 164.25 C 244.085938 166.480469 244.316406 168.859375 244.316406 168.859375 C 244.316406 168.859375 246.476562 161.15625 251.972656 163.671875 C 245.304688 166.488281 244 171.535156 246.417969 179.273438 Z M 246.417969 179.273438 " fill-opacity="1" fill-rule="nonzero"/><path fill="#00a651" d="M 254.21875 175.960938 C 252.25 174.066406 251.0625 171.980469 251.0625 171.980469 C 251.0625 171.980469 253.164062 177.636719 249.882812 180.015625 C 250.023438 174.808594 246.457031 173.027344 248.386719 170.945312 C 250.320312 168.859375 253.59375 170.945312 253.59375 170.945312 C 253.59375 170.945312 254.363281 169.734375 251.011719 166.773438 C 247.664062 163.824219 245.265625 163.945312 245.113281 161.425781 C 248.472656 163.421875 253.609375 163.433594 254.21875 169.011719 C 254.925781 162.320312 257.941406 162.167969 259.328125 162.023438 C 260.71875 161.882812 263.992188 162.613281 265.183594 161.433594 C 265.183594 163.8125 262.507812 163.070312 260.71875 163.8125 C 263.097656 165.449219 263.25 170.734375 263.25 170.734375 C 263.25 170.734375 259.835938 164.707031 258.339844 165.15625 C 256.855469 165.601562 255.867188 170.066406 255.867188 170.066406 C 255.867188 170.066406 261.300781 169.90625 259.320312 177.207031 C 258.484375 173.191406 257.589844 172.742188 256.550781 172.742188 C 255.515625 172.742188 254.21875 175.960938 254.21875 175.960938 Z M 254.21875 175.960938 " fill-opacity="1" fill-rule="nonzero"/><path fill="#00a651" d="M 259.328125 181.003906 C 259.53125 178.226562 260.871094 173.464844 262.355469 173.09375 C 262.851562 170.050781 264.441406 165.738281 267.703125 164.996094 C 270.976562 164.25 271.71875 167.667969 270.976562 169.601562 C 269.046875 166.773438 266.371094 166.03125 265.773438 172.722656 C 268.597656 171.980469 270.234375 174.207031 269.492188 177.1875 C 266.820312 174.066406 264.886719 173.695312 263.699219 175.960938 C 266.820312 177.1875 266.875 179.863281 265.285156 182.101562 C 264.59375 178.234375 262.527344 178.53125 261.433594 182.101562 C 260.328125 185.660156 259.328125 181.003906 259.328125 181.003906 Z M 304.566406 175.960938 C 301.167969 175.960938 296.707031 179.472656 296.410156 184.925781 C 292.84375 179.566406 297.210938 173.617188 301.789062 171.535156 C 293.726562 171.6875 290.757812 175.257812 289.722656 178.226562 C 288.683594 170.34375 298.695312 167.222656 301.789062 168.554688 C 299.828125 165.136719 292.101562 165.421875 288.226562 168.25 C 288.226562 161.710938 299.789062 160.140625 304.566406 166.050781 C 303.984375 161.261719 305.925781 160.074219 305.925781 160.074219 L 305.925781 166.46875 C 305.925781 166.46875 316.6875 156.359375 322.605469 168.554688 C 313.0625 163.640625 308.417969 168.707031 308.417969 168.707031 C 308.417969 168.707031 318.304688 166.328125 316.945312 177.777344 C 313.804688 170.792969 307.257812 171.535156 307.257812 171.535156 C 307.257812 171.535156 314.84375 174.960938 311.863281 183.433594 C 308.894531 175.257812 304.566406 175.960938 304.566406 175.960938 Z M 304.566406 175.960938 " fill-opacity="1" fill-rule="nonzero"/><path fill="#fff202" d="M 297.296875 213.191406 C 296.847656 208.726562 302.5 206.203125 302.5 206.203125 C 302.5 206.203125 312.015625 212 313.359375 213.191406 C 314.699219 214.378906 312.539062 219.359375 308.410156 220.664062 C 304.289062 221.957031 297.296875 213.191406 297.296875 213.191406 Z M 297.296875 213.191406 " fill-opacity="1" fill-rule="nonzero"/><path fill="#00a651" d="M 294.679688 229.058594 C 292.441406 227.648438 291.015625 219.730469 294.679688 218.976562 C 293.289062 214.21875 296.257812 211.839844 297.296875 211.542969 C 298.332031 211.25 302.1875 212.988281 305.089844 215.761719 C 308 218.53125 310.523438 219.195312 310.75 220.28125 C 310.980469 221.359375 308.933594 224.632812 305.421875 224.925781 C 306.515625 228.210938 298.152344 231.257812 294.679688 229.058594 Z M 294.679688 229.058594 " fill-opacity="1" fill-rule="nonzero"/><path fill="#000000" d="M 245.113281 210.515625 C 245.113281 210.515625 247.339844 209.609375 248.683594 208.277344 C 250.023438 206.945312 251.804688 206.9375 253.289062 209.390625 C 254.773438 211.847656 255.867188 214.96875 255.867188 214.96875 C 255.867188 214.96875 255.363281 210.503906 259.976562 208.125 C 264.59375 205.746094 265.285156 205.15625 265.285156 205.15625 L 263.699219 211.515625 C 263.699219 211.515625 269.199219 208.136719 270.089844 206.195312 C 271.28125 213.78125 265.628906 219.207031 262.0625 220.664062 C 263.992188 223.898438 263.097656 226.574219 263.097656 226.574219 L 269.644531 231.925781 L 262.507812 234.152344 L 259.328125 227.308594 C 259.328125 227.308594 251.082031 227.601562 249.882812 221.359375 C 248.683594 215.113281 251.527344 211.761719 249.882812 211.503906 C 248.234375 211.25 245.113281 210.515625 245.113281 210.515625 Z M 245.113281 210.515625 " fill-opacity="1" fill-rule="nonzero"/><path fill="#ffffff" d="M 259.929688 226.335938 L 259.292969 226.363281 C 257.902344 226.363281 251.765625 226.097656 250.824219 221.1875 C 250.195312 217.921875 250.726562 215.503906 251.089844 213.902344 C 251.355469 212.675781 251.535156 211.867188 251.082031 211.199219 L 250.851562 210.859375 L 250.035156 210.570312 C 249.433594 210.476562 248.625 210.316406 247.84375 210.144531 C 248.378906 209.8125 248.910156 209.402344 249.359375 208.945312 C 249.644531 208.667969 250.082031 208.324219 250.574219 208.324219 C 251.195312 208.324219 251.878906 208.878906 252.480469 209.878906 C 253.898438 212.21875 254.972656 215.253906 254.980469 215.273438 L 256.828125 214.855469 C 256.808594 214.695312 256.484375 211 260.425781 208.964844 C 261.917969 208.191406 263.003906 207.601562 263.800781 207.164062 L 262.214844 213.542969 L 264.203125 212.3125 C 264.867188 211.894531 267.484375 210.257812 269.292969 208.59375 C 269.09375 214.675781 264.222656 218.738281 261.699219 219.769531 L 260.679688 220.1875 L 261.253906 221.148438 C 262.917969 223.929688 262.230469 226.175781 262.214844 226.269531 L 262.011719 226.886719 L 267.683594 231.535156 L 263.03125 232.988281 Z M 259.929688 226.335938 " fill-opacity="1" fill-rule="nonzero"/><path fill="#00a651" d="M 247.09375 209.488281 C 246.007812 206.945312 246.007812 206.945312 244.296875 206.195312 C 244.21875 207.832031 244.296875 208.867188 244.296875 208.867188 C 244.296875 208.867188 243.335938 205.746094 241.839844 206.195312 C 240.945312 209.761719 244.144531 210.515625 244.144531 210.515625 C 244.144531 210.515625 242.734375 210.972656 242.878906 213.484375 C 245.410156 214.511719 245.105469 212.285156 245.105469 212.285156 C 245.105469 212.285156 244.582031 214.570312 246.40625 215.882812 C 247.636719 213.933594 247.09375 209.488281 247.09375 209.488281 Z M 247.09375 209.488281 " fill-opacity="1" fill-rule="nonzero"/><g clip-path="url(#74ddc92a87)"><path fill="#00247d" d="M 197.089844 187.601562 L 197.089844 63.851562 L 54.359375 63.851562 C 51.316406 63.851562 48.613281 64.28125 48.613281 64.28125 L 48.574219 80.976562 L 22.597656 80.9375 C 22.597656 80.9375 22.199219 81.5 21.390625 82.890625 C 18.152344 88.496094 16.296875 95 16.296875 101.929688 L 16.296875 187.601562 Z M 197.089844 187.601562 " fill-opacity="1" fill-rule="nonzero"/><path fill="#eeeeee" d="M 197.089844 63.851562 L 174.910156 63.851562 L 130.484375 94.972656 L 130.484375 63.851562 L 82.90625 63.851562 L 82.90625 88.308594 L 48.613281 64.28125 C 42.769531 65.175781 37.289062 67.375 32.703125 70.609375 L 77.445312 101.929688 L 60.925781 101.929688 L 25.5 77.09375 C 24.453125 78.320312 23.492188 79.585938 22.597656 80.9375 L 52.582031 101.929688 L 16.296875 101.929688 L 16.296875 149.527344 L 53.265625 149.527344 L 16.296875 175.855469 L 16.296875 187.601562 L 48.003906 187.601562 L 82.90625 163.15625 L 82.90625 187.601562 L 130.484375 187.601562 L 130.484375 156.484375 L 174.898438 187.601562 L 197.089844 187.601562 L 197.089844 168.289062 L 170.304688 149.527344 L 197.089844 149.527344 L 197.089844 101.929688 L 170.3125 101.929688 L 197.089844 83.167969 Z M 197.089844 63.851562 " fill-opacity="1" fill-rule="nonzero"/><path fill="#cf1b2b" d="M 120.96875 63.851562 L 92.421875 63.851562 L 92.421875 111.449219 L 16.296875 111.449219 L 16.296875 140.007812 L 92.421875 140.007812 L 92.421875 187.601562 L 120.96875 187.601562 L 120.96875 140.007812 L 197.089844 140.007812 L 197.089844 111.449219 L 120.96875 111.449219 Z M 120.96875 63.851562 " fill-opacity="1" fill-rule="nonzero"/></g><g clip-path="url(#ddeb8b2ec2)"><path fill="#cf1b2b" d="M 197.089844 63.851562 L 183.1875 63.851562 L 130.484375 100.777344 L 130.484375 101.929688 L 145.429688 101.929688 L 197.089844 65.738281 Z M 32.703125 70.609375 C 30.027344 72.46875 27.621094 74.636719 25.5 77.09375 L 60.925781 101.929688 L 77.433594 101.929688 Z M 77.546875 149.527344 L 23.28125 187.601562 L 39.714844 187.601562 L 82.90625 157.351562 L 82.90625 149.527344 Z M 197.089844 185.71875 L 197.089844 174.105469 L 162.007812 149.527344 L 145.421875 149.527344 Z M 197.089844 185.71875 " fill-opacity="1" fill-rule="nonzero"/></g></svg>