<svg xmlns="http://www.w3.org/2000/svg" xmlns:xlink="http://www.w3.org/1999/xlink" width="500" zoomAndPan="magnify" viewBox="0 0 375 374.999991" height="500" preserveAspectRatio="xMidYMid meet" version="1.0"><defs><clipPath id="322afcfb3c"><path d="M 17.292969 64.640625 L 357.792969 64.640625 L 357.792969 150 L 17.292969 150 Z M 17.292969 64.640625 " clip-rule="nonzero"/></clipPath><clipPath id="502be302b4"><path d="M 17.292969 149 L 357.792969 149 L 357.792969 226 L 17.292969 226 Z M 17.292969 149 " clip-rule="nonzero"/></clipPath><clipPath id="3cd6ee7928"><path d="M 17.292969 225 L 357.792969 225 L 357.792969 310.640625 L 17.292969 310.640625 Z M 17.292969 225 " clip-rule="nonzero"/></clipPath></defs><g clip-path="url(#322afcfb3c)"><path fill="#cc212d" d="M 319.886719 64.640625 L 55.195312 64.640625 C 34.3125 64.640625 17.382812 81.585938 17.382812 102.488281 L 17.382812 149.792969 L 357.703125 149.792969 L 357.703125 102.488281 C 357.703125 81.585938 340.769531 64.640625 319.886719 64.640625 Z M 319.886719 64.640625 " fill-opacity="1" fill-rule="nonzero"/></g><g clip-path="url(#502be302b4)"><path fill="#fbd116" d="M 163.179688 225.488281 L 212.195312 225.488281 L 187.691406 207.660156 Z M 197.089844 178.738281 L 227.480469 178.738281 L 202.894531 196.609375 L 212.261719 225.488281 L 357.703125 225.488281 L 357.703125 149.792969 L 187.691406 149.792969 Z M 172.492188 196.609375 L 147.902344 178.738281 L 178.296875 178.738281 L 187.691406 149.792969 L 17.382812 149.792969 L 17.382812 225.488281 L 163.113281 225.488281 Z M 172.492188 196.609375 " fill-opacity="1" fill-rule="nonzero"/></g><g clip-path="url(#3cd6ee7928)"><path fill="#288541" d="M 212.28125 225.542969 L 212.195312 225.488281 L 163.171875 225.488281 L 163.085938 225.542969 L 163.113281 225.488281 L 17.382812 225.488281 L 17.382812 272.792969 C 17.382812 293.695312 34.3125 310.640625 55.195312 310.640625 L 319.886719 310.640625 C 340.769531 310.640625 357.703125 293.695312 357.703125 272.792969 L 357.703125 225.488281 L 212.261719 225.488281 Z M 212.28125 225.542969 " fill-opacity="1" fill-rule="nonzero"/></g><path fill="#000000" d="M 147.902344 178.738281 L 172.492188 196.609375 L 163.113281 225.488281 L 163.09375 225.542969 L 163.179688 225.488281 L 187.691406 207.660156 L 212.195312 225.488281 L 212.28125 225.542969 L 212.261719 225.488281 L 202.894531 196.609375 L 227.480469 178.738281 L 197.089844 178.738281 L 187.691406 149.792969 L 178.296875 178.738281 Z M 147.902344 178.738281 " fill-opacity="1" fill-rule="nonzero"/></svg>