<svg xmlns="http://www.w3.org/2000/svg" xmlns:xlink="http://www.w3.org/1999/xlink" width="500" zoomAndPan="magnify" viewBox="0 0 375 374.999991" height="500" preserveAspectRatio="xMidYMid meet" version="1.0"><defs><clipPath id="54b44bd2b8"><path d="M 12.003906 60.824219 L 363 60.824219 L 363 314.324219 L 12.003906 314.324219 Z M 12.003906 60.824219 " clip-rule="nonzero"/></clipPath><clipPath id="e6e888b571"><path d="M 129 60.824219 L 246 60.824219 L 246 314.324219 L 129 314.324219 Z M 129 60.824219 " clip-rule="nonzero"/></clipPath></defs><g clip-path="url(#54b44bd2b8)"><path fill="#4997d0" d="M 323.925781 60.824219 L 245.972656 60.824219 L 245.972656 314.324219 L 323.925781 314.324219 C 345.453125 314.324219 362.90625 296.863281 362.90625 275.324219 L 362.90625 99.824219 C 362.90625 78.285156 345.453125 60.824219 323.925781 60.824219 Z M 51.082031 60.824219 C 29.554688 60.824219 12.105469 78.285156 12.105469 99.824219 L 12.105469 275.324219 C 12.105469 296.863281 29.554688 314.324219 51.082031 314.324219 L 129.039062 314.324219 L 129.039062 60.824219 Z M 51.082031 60.824219 " fill-opacity="1" fill-rule="nonzero"/></g><g clip-path="url(#e6e888b571)"><path fill="#eeeeee" d="M 129.039062 60.824219 L 245.972656 60.824219 L 245.972656 314.324219 L 129.039062 314.324219 Z M 129.039062 60.824219 " fill-opacity="1" fill-rule="nonzero"/></g><path fill="#437e24" d="M 232.894531 194.75 C 233.996094 192.390625 233.839844 190.890625 232.5625 192.226562 C 231.441406 193.394531 229.804688 193.804688 227.769531 195.246094 L 227.933594 194.671875 C 229.71875 191.296875 233.578125 192.925781 235.855469 187.542969 C 236.257812 186.550781 238.292969 185.488281 235.515625 185.652344 C 233.527344 185.769531 231.023438 186.949219 229.210938 189.484375 C 230.59375 185.722656 233.925781 187.640625 235.292969 178.574219 C 235.535156 176.90625 235.730469 173.503906 234.628906 176.292969 C 234.179688 177.40625 233.109375 178.515625 231.976562 179.84375 C 232.347656 177.96875 232.222656 176.34375 231.832031 175.105469 C 232.535156 174.023438 233.167969 172.910156 233.34375 171.621094 C 233.644531 169.410156 233.117188 167.449219 232.28125 169.78125 C 231.988281 170.617188 231.433594 171.164062 230.847656 171.730469 C 230.632812 170.949219 230.429688 170.675781 229.824219 171.730469 C 229.191406 172.824219 228.851562 174.214844 228.65625 175.765625 L 228.636719 175.863281 C 228.488281 175.046875 228.292969 174.234375 228.109375 173.4375 C 228.558594 170.394531 233.246094 170.480469 231.617188 160.652344 C 231.238281 158.273438 231.0625 157.582031 230.222656 160.539062 C 229.445312 163.277344 227.027344 163.5 226.910156 168.980469 L 226.707031 168.347656 C 226.171875 163.089844 229.765625 158.695312 227.046875 154.191406 C 225.605469 151.792969 224.835938 151.578125 224.992188 153.527344 C 225.175781 155.796875 223.8125 158.207031 224.066406 161.511719 L 223.96875 161.296875 C 223.394531 157.230469 224.855469 156.003906 223.207031 153.359375 C 222.351562 152.015625 221.074219 150.242188 221.40625 152.464844 C 221.472656 152.914062 221.511719 153.4375 221.5625 153.984375 C 221.035156 151.683594 219.046875 150.269531 216.53125 149.460938 C 214.15625 148.691406 214.875 149.820312 215.753906 150.738281 C 217 152.074219 216.679688 153.710938 218.230469 155.730469 C 216.550781 154.921875 215.101562 154.84375 214.136719 153.632812 C 212.234375 151.285156 213.21875 154.289062 213.679688 155.644531 C 214.605469 158.292969 216.152344 159.71875 217.945312 160.625 C 217.769531 160.820312 217.847656 161.503906 218.355469 162.925781 C 218.980469 164.679688 219.75 165.988281 220.578125 167.039062 C 219.953125 166.652344 219.386719 166.222656 218.96875 165.597656 C 216.972656 162.644531 216.191406 162.3125 216.570312 165.832031 C 216.914062 168.882812 218.210938 170.511719 219.777344 171.585938 C 219.796875 172.199219 220.023438 173.054688 220.644531 173.953125 C 221.757812 175.5625 222.925781 176.234375 224.007812 176.644531 C 224.542969 177.890625 224.835938 179.050781 225.117188 180.25 C 225.050781 180.203125 225 180.117188 224.921875 180.066406 C 221.929688 177.949219 222.683594 179.167969 222.925781 181.011719 C 224.046875 189.699219 228.160156 186.714844 227.320312 192.324219 C 227.203125 192.839844 227.085938 193.335938 226.949219 193.832031 C 227.097656 190.605469 225.605469 188.78125 224.378906 187.359375 C 222.683594 185.398438 222.097656 185.964844 222.933594 189.59375 C 223.128906 190.441406 223.324219 191.492188 223.492188 192.605469 L 223.453125 192.488281 C 221.757812 189.066406 221.257812 190.050781 221.414062 192.652344 C 221.609375 195.160156 219.496094 196.152344 220.859375 200.960938 C 221.269531 202.363281 221.472656 205.066406 220.109375 207.132812 L 219.875 207.445312 C 222.875 201.898438 219.25 200.238281 219.582031 198.5625 C 219.984375 196.660156 219.484375 196.328125 218.421875 198.679688 C 217.207031 201.390625 217.457031 203.300781 217.828125 204.917969 C 217.605469 205.046875 217.4375 205.113281 217.148438 205.308594 C 216.183594 205.960938 215.402344 206.597656 214.75 207.199219 C 214.835938 206.675781 214.984375 206.167969 215.03125 205.640625 C 215.277344 203.15625 214.59375 201.9375 213.53125 204.625 C 212.195312 207.933594 209.800781 207.863281 208.28125 212.828125 C 207.082031 216.832031 206.195312 217.644531 204.332031 218.433594 L 204.058594 218.550781 C 206.875 216.367188 208.425781 213.429688 208.84375 210.019531 C 209.285156 206.234375 208.347656 206.78125 207.070312 209.0625 C 205.851562 211.257812 203.535156 210.933594 202.0625 215.722656 C 201.605469 217.203125 200.523438 219.476562 197.675781 220.507812 C 201.527344 217.769531 203.210938 213.246094 202.765625 210.535156 C 202.558594 209.191406 201.925781 208.359375 201.320312 210.585938 C 200.601562 213.3125 198.601562 212.652344 196.984375 217.828125 C 196.15625 220.460938 195.4375 220.996094 191.988281 222.558594 L 192.492188 222.460938 C 190.476562 223.277344 188.722656 224.125 187.261719 224.996094 C 185.886719 224.164062 184.179688 223.355469 182.222656 222.566406 L 182.503906 222.617188 C 179.09375 221.066406 178.375 220.539062 177.554688 217.933594 C 175.976562 212.816406 173.980469 213.480469 173.269531 210.789062 C 172.683594 208.574219 172.058594 209.394531 171.84375 210.71875 C 171.398438 213.390625 173.0625 217.847656 176.824219 220.558594 C 174.046875 219.523438 172.984375 217.300781 172.527344 215.847656 C 171.085938 211.121094 168.796875 211.441406 167.585938 209.277344 C 166.328125 207.015625 165.394531 206.480469 165.84375 210.214844 C 166.242188 213.578125 167.773438 216.484375 170.550781 218.636719 L 169.964844 218.394531 C 168.355469 217.632812 167.519531 216.707031 166.386719 212.992188 C 164.90625 208.078125 162.527344 208.15625 161.203125 204.898438 C 160.132812 202.246094 159.480469 203.4375 159.734375 205.894531 C 159.78125 206.421875 159.917969 206.929688 160.015625 207.445312 C 159.371094 206.839844 158.601562 206.214844 157.648438 205.574219 C 157.355469 205.378906 157.1875 205.308594 156.964844 205.183594 C 157.324219 203.582031 157.578125 201.683594 156.371094 199 C 155.320312 196.699219 154.832031 197.023438 155.210938 198.882812 C 155.550781 200.570312 151.945312 202.199219 154.976562 207.738281 L 154.753906 207.445312 C 153.332031 205.386719 153.554688 202.675781 153.945312 201.253906 C 155.300781 196.515625 153.222656 195.53125 153.398438 193.054688 C 153.574219 190.46875 153.066406 189.503906 151.402344 192.886719 L 151.351562 193.023438 C 151.519531 191.914062 151.714844 190.871094 151.90625 190.03125 C 152.734375 186.441406 152.132812 185.886719 150.484375 187.828125 C 149.265625 189.242188 147.785156 191.046875 147.933594 194.234375 C 147.796875 193.734375 147.679688 193.230469 147.5625 192.710938 C 146.742188 187.195312 150.796875 190.117188 151.917969 181.539062 C 152.152344 179.714844 152.902344 178.507812 149.929688 180.601562 C 149.851562 180.652344 149.804688 180.738281 149.734375 180.789062 C 150.015625 179.597656 150.308594 178.449219 150.855469 177.210938 C 151.925781 176.800781 153.078125 176.136719 154.179688 174.546875 C 154.792969 173.652344 155.015625 172.8125 155.027344 172.199219 C 156.566406 171.136719 157.84375 169.515625 158.171875 166.503906 C 158.5625 163.042969 157.792969 163.363281 155.824219 166.28125 C 155.40625 166.894531 154.851562 167.324219 154.238281 167.703125 C 155.046875 166.660156 155.816406 165.382812 156.429688 163.648438 C 156.917969 162.242188 156.996094 161.5625 156.820312 161.367188 C 158.601562 160.460938 160.140625 159.054688 161.039062 156.433594 C 161.496094 155.085938 162.460938 152.132812 160.589844 154.445312 C 159.625 155.644531 158.203125 155.722656 156.546875 156.519531 C 158.085938 154.53125 157.765625 152.902344 158.992188 151.578125 C 159.847656 150.660156 160.582031 149.550781 158.230469 150.308594 C 155.726562 151.109375 153.769531 152.511719 153.242188 154.785156 C 153.292969 154.25 153.332031 153.722656 153.398438 153.285156 C 153.730469 151.078125 152.453125 152.84375 151.636719 154.160156 C 149.996094 156.773438 151.421875 157.992188 150.882812 161.988281 L 150.777344 162.234375 C 151.03125 158.957031 149.675781 156.578125 149.851562 154.328125 C 150.007812 152.40625 149.257812 152.621094 147.835938 154.988281 C 145.15625 159.425781 148.683594 163.765625 148.183594 168.941406 L 147.992188 169.554688 C 147.84375 164.183594 145.457031 163.96875 144.707031 161.257812 C 143.867188 158.332031 143.710938 159.027344 143.324219 161.375 C 141.726562 171.085938 146.363281 171 146.792969 174.011719 C 146.605469 174.8125 146.421875 175.609375 146.277344 176.421875 L 146.246094 176.285156 C 146.179688 175.757812 146.03125 175.316406 145.914062 174.851562 L 145.875 174.742188 C 145.660156 173.894531 145.464844 173.015625 145.085938 172.34375 C 144.492188 171.300781 144.296875 171.574219 144.082031 172.34375 C 143.507812 171.789062 142.960938 171.253906 142.671875 170.414062 C 141.851562 168.101562 141.316406 170.042969 141.617188 172.238281 C 141.792969 173.503906 142.417969 174.605469 143.109375 175.679688 C 142.726562 176.90625 142.601562 178.527344 142.972656 180.378906 C 141.851562 179.0625 140.800781 177.960938 140.359375 176.859375 C 139.257812 174.109375 139.453125 177.464844 139.699219 179.121094 C 141.042969 188.109375 144.347656 186.179688 145.710938 189.921875 C 143.917969 187.398438 141.453125 186.230469 139.472656 186.113281 C 136.726562 185.945312 138.734375 187.007812 139.140625 187.984375 C 141.394531 193.316406 145.195312 191.707031 146.957031 195.03125 L 147.125 195.609375 C 145.105469 194.175781 143.507812 193.765625 142.398438 192.605469 C 141.128906 191.289062 140.984375 192.78125 142.074219 195.109375 C 140.886719 195.246094 139.621094 195.34375 138.820312 195.082031 C 137.828125 194.75 137.828125 196.242188 140.585938 197.402344 C 141.839844 197.929688 143.828125 198.746094 145.738281 199.683594 C 147.152344 200.746094 148.566406 201.46875 149.785156 202.578125 C 145.992188 199.847656 143.136719 201.164062 141.011719 199.925781 C 138.371094 198.398438 139.804688 200.796875 140.535156 201.527344 C 147.980469 208.984375 149.148438 203.347656 153.273438 207.308594 C 152.628906 207.015625 151.9375 206.792969 151.15625 206.695312 C 147.855469 206.3125 146.675781 205.824219 148.398438 207.914062 C 150.457031 210.410156 152.140625 211.617188 153.621094 212.28125 C 152.648438 212.269531 151.703125 212.320312 150.835938 212.496094 C 148.710938 212.945312 149.441406 213.332031 150.875 213.761719 C 152.628906 214.289062 153.738281 215.515625 155.6875 216.316406 L 155.667969 216.316406 C 152.472656 217.3125 151.925781 217.683594 154.355469 218.882812 C 158.496094 220.957031 161.390625 221.015625 163.6875 220.636719 C 162.578125 220.988281 161.574219 221.476562 160.714844 222.109375 C 158.960938 223.40625 159.441406 223.894531 160.941406 223.648438 C 163.777344 223.191406 165.539062 224.039062 167.878906 224.039062 C 166.457031 225.082031 165.265625 226.261719 163.132812 226.894531 C 161.699219 227.324219 161.234375 228.125 163.570312 228.339844 C 172.507812 229.097656 174.777344 223.503906 179.046875 223.5625 C 181.230469 224.234375 183.273438 225.035156 185.214844 226.332031 C 184.628906 226.777344 184.007812 227.238281 183.664062 227.65625 C 183.773438 228.660156 186.070312 228.164062 186.304688 228.71875 C 186.597656 228.40625 186.910156 228.183594 187.210938 227.910156 C 187.515625 228.183594 187.816406 228.40625 188.117188 228.71875 C 188.34375 228.164062 190.253906 228.339844 190.359375 227.34375 C 190.097656 227.011719 189.578125 226.671875 189.171875 226.332031 C 191.160156 224.996094 193.234375 224.183594 195.464844 223.492188 C 199.78125 223.433594 202.082031 229.097656 211.113281 228.328125 C 213.472656 228.113281 213.015625 227.304688 211.574219 226.867188 C 209.410156 226.234375 208.203125 225.035156 206.757812 223.980469 C 209.128906 223.992188 210.921875 223.132812 213.785156 223.589844 C 215.304688 223.824219 215.78125 223.335938 214 222.019531 C 213.140625 221.378906 212.117188 220.890625 211 220.527344 C 213.328125 220.910156 216.261719 220.859375 220.449219 218.753906 C 222.90625 217.546875 222.351562 217.164062 219.136719 216.160156 L 219.117188 216.160156 C 221.082031 215.351562 222.203125 214.113281 223.96875 213.578125 C 225.429688 213.136719 226.160156 212.75 224.007812 212.300781 C 223.140625 212.113281 222.175781 212.066406 221.191406 212.074219 C 222.691406 211.402344 224.40625 210.175781 226.5 207.648438 C 228.214844 205.535156 227.039062 206.039062 223.703125 206.421875 C 222.894531 206.519531 222.183594 206.742188 221.523438 207.054688 C 225.722656 203.007812 226.882812 208.75 234.445312 201.183594 C 235.164062 200.472656 236.617188 198.027344 233.945312 199.585938 C 231.792969 200.84375 228.878906 199.480469 224.992188 202.34375 C 226.25 201.164062 227.730469 200.433594 229.191406 199.324219 C 231.109375 198.378906 233.109375 197.558594 234.386719 197.023438 C 237.179688 195.84375 237.179688 194.351562 236.160156 194.683594 C 235.367188 194.984375 234.101562 194.886719 232.894531 194.75 Z M 165.265625 217.691406 L 166.289062 218.335938 C 165.191406 217.839844 163.914062 217.359375 162.539062 216.941406 C 163.308594 216.96875 164.207031 217.144531 165.363281 217.800781 Z M 177.253906 220.851562 L 176.738281 220.695312 L 177.097656 220.753906 Z M 156.613281 206.800781 C 156.703125 206.9375 156.722656 207.015625 156.820312 207.171875 C 157.65625 208.476562 157.792969 209.824219 158.601562 211.414062 C 158.222656 211.070312 157.84375 210.730469 157.472656 210.371094 C 156.4375 209.121094 156.371094 208.011719 156.613281 206.800781 Z M 155.007812 162.996094 C 153.914062 164.445312 152.113281 164.671875 150.4375 166.054688 C 151.402344 164.378906 152.65625 162.808594 154.238281 162.390625 C 154.851562 162.222656 155.445312 162.007812 156.03125 161.777344 C 155.746094 162.078125 155.414062 162.457031 155.007812 162.996094 Z M 153.351562 207.257812 L 153.507812 207.433594 L 153.390625 207.367188 Z M 164.417969 220.539062 C 166.097656 220.199219 167.488281 219.757812 168.851562 219.835938 L 169.429688 220.128906 C 167.617188 220.042969 165.921875 220.148438 164.417969 220.539062 Z M 222.273438 159.582031 C 222.273438 159.582031 222.261719 159.582031 222.273438 159.582031 C 222.261719 159.582031 222.273438 159.582031 222.273438 159.582031 Z M 219.808594 162.261719 C 219.386719 161.71875 219.058594 161.328125 218.753906 161.023438 C 219.339844 161.269531 219.945312 161.472656 220.566406 161.648438 C 222.164062 162.078125 223.441406 163.667969 224.40625 165.355469 C 222.722656 163.960938 220.910156 163.726562 219.808594 162.261719 Z M 212.214844 216.804688 C 210.832031 217.222656 209.546875 217.703125 208.433594 218.199219 L 209.390625 217.59375 L 209.339844 217.652344 C 210.53125 217.007812 211.4375 216.832031 212.214844 216.804688 Z M 217.964844 206.929688 L 218.179688 206.546875 C 218.421875 207.765625 218.363281 208.886719 217.324219 210.144531 C 216.941406 210.515625 216.550781 210.875 216.152344 211.21875 C 216.980469 209.609375 217.117188 208.253906 217.964844 206.929688 Z M 197.464844 220.664062 L 197.871094 220.597656 L 197.277344 220.78125 C 197.335938 220.753906 197.40625 220.714844 197.464844 220.664062 Z M 205.238281 220.023438 L 205.84375 219.71875 C 207.265625 219.652344 208.707031 220.128906 210.480469 220.46875 C 208.921875 220.050781 207.140625 219.945312 205.238281 220.023438 Z M 221.316406 207.210938 L 221.464844 207.035156 L 221.433594 207.132812 C 221.386719 207.152344 221.355469 207.191406 221.316406 207.210938 Z M 221.316406 207.210938 " fill-opacity="1" fill-rule="nonzero"/><path fill="#b1b6ba" d="M 173.8125 191.6875 C 173.8125 191.6875 166.378906 198.378906 165.460938 199.285156 C 164.554688 200.191406 163.640625 204.148438 163.640625 204.148438 L 166.066406 205.660156 L 176.855469 194.574219 Z M 173.8125 191.6875 " fill-opacity="1" fill-rule="nonzero"/><path fill="#6c301e" d="M 163.492188 204.003906 L 165.773438 205.816406 C 165.773438 205.816406 163.796875 207.785156 163.492188 209.765625 C 163.191406 211.746094 157.871094 217.808594 156.808594 219.328125 C 155.746094 220.859375 154.375 220.539062 153.769531 219.328125 C 153.175781 218.121094 151.808594 217.203125 151.65625 216.296875 C 151.488281 215.390625 154.996094 212.191406 156.664062 210.378906 C 158.320312 208.546875 160.140625 207.796875 161.058594 206.742188 C 161.972656 205.660156 163.492188 204.003906 163.492188 204.003906 Z M 174.28125 193.355469 L 169.671875 198.511719 L 170.898438 199.742188 L 175.332031 194.722656 Z M 174.28125 193.355469 " fill-opacity="1" fill-rule="nonzero"/><path fill="#b1b6ba" d="M 153.007812 148.390625 L 167.742188 163.726562 L 171.386719 161.902344 L 170.246094 160.253906 L 167.742188 160.839844 Z M 153.007812 148.390625 " fill-opacity="1" fill-rule="nonzero"/><path fill="#fab81b" d="M 171.386719 212.183594 L 173.210938 215.234375 L 174.867188 213.703125 C 174.867188 213.703125 176.210938 216.140625 174.867188 216.589844 C 173.511719 217.058594 172.507812 216.589844 172.507812 216.589844 L 167.890625 220.363281 C 167.890625 220.363281 166.066406 219.261719 164.546875 220.363281 C 164.546875 220.363281 164.859375 218.128906 165.773438 218.128906 C 166.679688 218.128906 170.003906 213.722656 170.003906 213.722656 C 170.003906 213.722656 168.238281 213.226562 168.601562 212.191406 C 168.960938 211.140625 171.386719 212.183594 171.386719 212.183594 Z M 171.386719 212.183594 " fill-opacity="1" fill-rule="nonzero"/><path fill="#b1b6ba" d="M 171.386719 213.410156 C 171.386719 213.410156 198.410156 186.519531 209.652344 185.507812 C 209.652344 185.507812 201.148438 190.683594 195.835938 194.933594 C 190.515625 199.195312 173.21875 215.246094 173.21875 215.246094 Z M 171.386719 213.410156 " fill-opacity="1" fill-rule="nonzero"/><path fill="#b1b6ba" d="M 202.054688 191.6875 C 202.054688 191.6875 209.496094 198.378906 210.382812 199.285156 C 211.300781 200.191406 212.214844 204.148438 212.214844 204.148438 L 209.800781 205.660156 L 199.011719 194.574219 Z M 202.054688 191.6875 " fill-opacity="1" fill-rule="nonzero"/><path fill="#6c301e" d="M 212.371094 204.003906 L 210.09375 205.816406 C 210.09375 205.816406 212.070312 207.785156 212.371094 209.765625 C 212.675781 211.746094 218.003906 217.808594 219.058594 219.328125 C 220.117188 220.859375 221.492188 220.539062 222.097656 219.328125 C 222.703125 218.121094 224.054688 217.203125 224.210938 216.296875 C 224.386719 215.390625 220.859375 212.191406 219.203125 210.378906 C 217.546875 208.546875 215.722656 207.796875 214.808594 206.742188 C 213.890625 205.660156 212.371094 204.003906 212.371094 204.003906 Z M 201.574219 193.355469 L 206.183594 198.511719 L 204.964844 199.742188 L 200.53125 194.722656 Z M 201.574219 193.355469 " fill-opacity="1" fill-rule="nonzero"/><path fill="#b1b6ba" d="M 195.152344 170.648438 L 193.4375 175.503906 L 208.105469 160.839844 L 205.851562 160.429688 Z M 195.152344 170.648438 " fill-opacity="1" fill-rule="nonzero"/><path fill="#b1b6ba" d="M 222.835938 148.390625 L 208.105469 163.726562 L 204.46875 161.902344 L 208.105469 160.839844 Z M 222.835938 148.390625 " fill-opacity="1" fill-rule="nonzero"/><path fill="#fab81b" d="M 204.46875 212.183594 L 202.667969 215.234375 L 201.011719 213.703125 C 201.011719 213.703125 199.65625 216.140625 201.011719 216.589844 C 202.34375 217.058594 203.367188 216.589844 203.367188 216.589844 L 207.976562 220.363281 C 207.976562 220.363281 209.808594 219.261719 211.308594 220.363281 C 211.308594 220.363281 211.007812 218.128906 210.09375 218.128906 C 209.175781 218.128906 205.863281 213.722656 205.863281 213.722656 C 205.863281 213.722656 207.617188 213.226562 207.257812 212.191406 C 206.90625 211.140625 204.46875 212.183594 204.46875 212.183594 Z M 204.46875 212.183594 " fill-opacity="1" fill-rule="nonzero"/><path fill="#b1b6ba" d="M 204.46875 213.410156 C 204.46875 213.410156 177.449219 186.519531 166.210938 185.507812 C 166.210938 185.507812 174.730469 190.683594 180.03125 194.933594 C 185.351562 199.195312 202.65625 215.246094 202.65625 215.246094 Z M 204.46875 213.410156 " fill-opacity="1" fill-rule="nonzero"/><path fill="#f9f0aa" d="M 171.589844 159.921875 C 176.007812 159.667969 188.742188 160.078125 193.457031 159.921875 C 198.15625 159.777344 197.09375 162.203125 197.394531 163.578125 C 197.695312 164.945312 194.832031 166.464844 194.832031 166.464844 C 194.832031 166.464844 197.851562 168.289062 201.808594 178.925781 C 205.746094 189.5625 204.828125 194.410156 199.527344 194.730469 C 194.226562 195.03125 180.554688 195.949219 175.988281 195.949219 C 171.4375 195.949219 170.675781 194.28125 170.675781 191.84375 C 170.675781 189.417969 174.320312 185.761719 177.964844 187.835938 C 177.964844 187.835938 177.964844 186.21875 175.839844 180.144531 C 173.714844 174.070312 169.15625 167.539062 168.707031 164.652344 C 168.238281 161.746094 169.3125 160.058594 171.589844 159.921875 Z M 171.589844 159.921875 " fill-opacity="1" fill-rule="nonzero"/><path fill="#437e24" d="M 184.953125 149.441406 C 183.128906 147.765625 185.664062 145.941406 187.515625 146.097656 C 189.347656 146.253906 190.261719 147.304688 188.292969 149.441406 C 188.292969 149.441406 193.613281 152.328125 197.851562 156.277344 C 202.101562 160.226562 210.832031 170.882812 211.671875 182.40625 C 212.734375 197.292969 204.539062 205.035156 201.488281 210.351562 C 198.457031 215.671875 191.636719 229.039062 191.636719 229.039062 C 191.636719 229.039062 191.480469 222.207031 200.445312 209.746094 C 200.445312 209.746094 193.46875 222.207031 182.679688 224.488281 C 182.679688 224.488281 196.175781 214.972656 199.96875 207.367188 C 203.757812 199.78125 209.292969 188.363281 208.398438 180.464844 C 207.480469 172.558594 206.058594 165.851562 195.582031 160.671875 C 195.582031 160.671875 188.945312 160.304688 186.023438 157.945312 C 181.308594 154.152344 184.953125 149.441406 184.953125 149.441406 Z M 184.953125 149.441406 " fill-opacity="1" fill-rule="nonzero"/><path fill="#e2cf81" d="M 194.824219 166.464844 C 194.824219 166.921875 196.789062 169.390625 196.527344 169.390625 L 173.324219 169.390625 C 173.074219 169.390625 171.765625 167.78125 171.765625 167.324219 L 169.992188 165.246094 C 171.378906 165.78125 173.0625 165.246094 173.316406 165.246094 L 196.507812 165.246094 C 196.78125 165.246094 194.824219 165.996094 194.824219 166.464844 Z M 177.972656 193.355469 C 177.972656 193.8125 177 195.316406 177.261719 195.316406 L 200.464844 195.316406 C 200.707031 195.316406 202.851562 193.707031 202.851562 193.25 L 203.789062 191.179688 C 202.402344 191.71875 200.71875 191.179688 200.464844 191.179688 L 177.261719 191.179688 C 177.007812 191.179688 177.972656 192.886719 177.972656 193.355469 Z M 177.972656 193.355469 " fill-opacity="1" fill-rule="nonzero"/></svg>