<svg xmlns="http://www.w3.org/2000/svg" xmlns:xlink="http://www.w3.org/1999/xlink" width="1080" zoomAndPan="magnify" viewBox="0 0 810 809.999993" height="1080" preserveAspectRatio="xMidYMid meet" version="1.0"><defs><clipPath id="19eb59cc81"><path d="M 20.519531 319 L 789.269531 319 L 789.269531 491 L 20.519531 491 Z M 20.519531 319 " clip-rule="nonzero"/></clipPath><clipPath id="84682b169f"><path d="M 20.519531 127.472656 L 789.269531 127.472656 L 789.269531 320 L 20.519531 320 Z M 20.519531 127.472656 " clip-rule="nonzero"/></clipPath><clipPath id="3cd6ab5f58"><path d="M 20.519531 490 L 789.269531 490 L 789.269531 682.472656 L 20.519531 682.472656 Z M 20.519531 490 " clip-rule="nonzero"/></clipPath></defs><rect x="-81" width="972" fill="#ffffff" y="-80.999999" height="971.999992" fill-opacity="1"/><rect x="-81" width="972" fill="#ffffff" y="-80.999999" height="971.999992" fill-opacity="1"/><g clip-path="url(#19eb59cc81)"><path fill="#eeeeee" d="M 20.734375 319.589844 L 789.050781 319.589844 L 789.050781 490.359375 L 20.734375 490.359375 Z M 20.734375 319.589844 " fill-opacity="1" fill-rule="nonzero"/></g><g clip-path="url(#84682b169f)"><path fill="#ae1f28" d="M 703.683594 127.472656 L 106.105469 127.472656 C 58.960938 127.472656 20.734375 165.707031 20.734375 212.859375 L 20.734375 319.589844 L 789.050781 319.589844 L 789.050781 212.859375 C 789.050781 165.707031 750.828125 127.472656 703.683594 127.472656 Z M 703.683594 127.472656 " fill-opacity="1" fill-rule="nonzero"/></g><g clip-path="url(#3cd6ab5f58)"><path fill="#20478b" d="M 106.105469 682.472656 L 703.683594 682.472656 C 750.828125 682.472656 789.050781 644.242188 789.050781 597.089844 L 789.050781 490.359375 L 20.734375 490.359375 L 20.734375 597.089844 C 20.734375 644.242188 58.960938 682.472656 106.105469 682.472656 Z M 106.105469 682.472656 " fill-opacity="1" fill-rule="nonzero"/></g></svg>