<svg xmlns="http://www.w3.org/2000/svg" xmlns:xlink="http://www.w3.org/1999/xlink" width="500" zoomAndPan="magnify" viewBox="0 0 375 374.999991" height="500" preserveAspectRatio="xMidYMid meet" version="1.0"><defs><clipPath id="36b7b8b3ec"><path d="M 12.429688 148 L 362.679688 148 L 362.679688 227 L 12.429688 227 Z M 12.429688 148 " clip-rule="nonzero"/></clipPath><clipPath id="f0f154b491"><path d="M 12.429688 61.132812 L 362.679688 61.132812 L 362.679688 149 L 12.429688 149 Z M 12.429688 61.132812 " clip-rule="nonzero"/></clipPath><clipPath id="9b431d634a"><path d="M 12.429688 226 L 362.679688 226 L 362.679688 313.882812 L 12.429688 313.882812 Z M 12.429688 226 " clip-rule="nonzero"/></clipPath></defs><g clip-path="url(#36b7b8b3ec)"><path fill="#eeeeee" d="M 12.53125 148.621094 L 362.578125 148.621094 L 362.578125 226.390625 L 12.53125 226.390625 Z M 12.53125 148.621094 " fill-opacity="1" fill-rule="nonzero"/></g><g clip-path="url(#f0f154b491)"><path fill="#cd2a3e" d="M 323.683594 61.132812 L 51.425781 61.132812 C 29.949219 61.132812 12.53125 78.542969 12.53125 100.015625 L 12.53125 148.621094 L 362.578125 148.621094 L 362.578125 100.015625 C 362.578125 78.542969 345.164062 61.132812 323.683594 61.132812 Z M 323.683594 61.132812 " fill-opacity="1" fill-rule="nonzero"/></g><g clip-path="url(#9b431d634a)"><path fill="#436f4d" d="M 51.425781 313.882812 L 323.683594 313.882812 C 345.164062 313.882812 362.578125 296.472656 362.578125 274.996094 L 362.578125 226.390625 L 12.53125 226.390625 L 12.53125 274.996094 C 12.53125 296.472656 29.949219 313.882812 51.425781 313.882812 Z M 51.425781 313.882812 " fill-opacity="1" fill-rule="nonzero"/></g></svg>