<svg xmlns="http://www.w3.org/2000/svg" xmlns:xlink="http://www.w3.org/1999/xlink" width="500" zoomAndPan="magnify" viewBox="0 0 375 374.999991" height="500" preserveAspectRatio="xMidYMid meet" version="1.0"><defs><clipPath id="6cc6bf681d"><path d="M 17.527344 149 L 357.277344 149 L 357.277344 226 L 17.527344 226 Z M 17.527344 149 " clip-rule="nonzero"/></clipPath><clipPath id="14c10980e3"><path d="M 17.527344 64.8125 L 357.277344 64.8125 L 357.277344 150 L 17.527344 150 Z M 17.527344 64.8125 " clip-rule="nonzero"/></clipPath><clipPath id="b0322b62dd"><path d="M 17.527344 225 L 357.277344 225 L 357.277344 310.0625 L 17.527344 310.0625 Z M 17.527344 225 " clip-rule="nonzero"/></clipPath></defs><g clip-path="url(#6cc6bf681d)"><path fill="#eeeeee" d="M 17.628906 149.707031 L 357.179688 149.707031 L 357.179688 225.167969 L 17.628906 225.167969 Z M 17.628906 149.707031 " fill-opacity="1" fill-rule="nonzero"/></g><g clip-path="url(#14c10980e3)"><path fill="#ed2939" d="M 319.453125 64.8125 L 55.355469 64.8125 C 34.519531 64.8125 17.628906 81.707031 17.628906 102.542969 L 17.628906 149.707031 L 357.179688 149.707031 L 357.179688 102.542969 C 357.179688 81.707031 340.285156 64.8125 319.453125 64.8125 Z M 319.453125 64.8125 " fill-opacity="1" fill-rule="nonzero"/></g><g clip-path="url(#b0322b62dd)"><path fill="#00a1de" d="M 55.355469 310.0625 L 319.453125 310.0625 C 340.285156 310.0625 357.179688 293.167969 357.179688 272.332031 L 357.179688 225.167969 L 17.628906 225.167969 L 17.628906 272.332031 C 17.628906 293.167969 34.519531 310.0625 55.355469 310.0625 Z M 55.355469 310.0625 " fill-opacity="1" fill-rule="nonzero"/></g></svg>