<svg xmlns="http://www.w3.org/2000/svg" xmlns:xlink="http://www.w3.org/1999/xlink" width="500" zoomAndPan="magnify" viewBox="0 0 375 374.999991" height="500" preserveAspectRatio="xMidYMid meet" version="1.0"><defs><clipPath id="bd5352342f"><path d="M 38.945312 38.945312 L 199 38.945312 L 199 335.945312 L 38.945312 335.945312 Z M 38.945312 38.945312 " clip-rule="nonzero"/></clipPath><clipPath id="3474120290"><path d="M 187 38.945312 L 335.945312 38.945312 L 335.945312 335.945312 L 187 335.945312 Z M 187 38.945312 " clip-rule="nonzero"/></clipPath></defs><g clip-path="url(#bd5352342f)"><path fill="#fddf00" d="M 198.871094 335.945312 L 84.636719 335.945312 C 59.40625 335.945312 38.945312 315.488281 38.945312 290.253906 L 38.945312 84.636719 C 38.945312 59.40625 59.40625 38.945312 84.636719 38.945312 L 198.871094 38.945312 Z M 198.871094 335.945312 " fill-opacity="1" fill-rule="nonzero"/></g><g clip-path="url(#3474120290)"><path fill="#eeeeee" d="M 335.945312 290.253906 C 335.945312 315.488281 315.488281 335.945312 290.253906 335.945312 L 187.445312 335.945312 L 187.445312 38.945312 L 290.253906 38.945312 C 315.488281 38.945312 335.945312 59.40625 335.945312 84.636719 Z M 335.945312 290.253906 " fill-opacity="1" fill-rule="nonzero"/></g><path fill="#a1a1a1" d="M 311 144.425781 L 314.757812 137.46875 L 307.078125 140.953125 Z M 311 144.425781 " fill-opacity="1" fill-rule="nonzero"/><path fill="#a1a1a1" d="M 311.339844 138.121094 C 311.339844 139.6875 312.597656 140.953125 314.164062 140.953125 C 315.726562 140.953125 316.984375 139.6875 316.984375 138.121094 C 316.984375 136.566406 315.726562 135.300781 314.164062 135.300781 C 312.597656 135.300781 311.339844 136.566406 311.339844 138.121094 Z M 304.761719 139.777344 C 303.4375 141.089844 304.109375 143.914062 306.257812 146.050781 C 308.40625 148.207031 311.214844 148.871094 312.527344 147.546875 C 313.855469 146.230469 313.191406 143.421875 311.03125 141.273438 C 308.90625 139.125 306.085938 138.441406 304.761719 139.777344 Z M 304.761719 139.777344 " fill-opacity="1" fill-rule="nonzero"/><path fill="#cb9c2b" d="M 239.546875 205.289062 C 243.875 209.390625 247.554688 204.089844 254.464844 197.96875 C 260.78125 192.371094 302.304688 153.757812 306.761719 149.828125 C 311.226562 145.902344 307.078125 139.960938 301.90625 144.78125 C 296.730469 149.601562 247.0625 191.179688 243.339844 194.574219 C 239.605469 197.976562 234.75 200.742188 239.546875 205.289062 Z M 239.546875 205.289062 " fill-opacity="1" fill-rule="nonzero"/><path fill="#cb9c2b" d="M 305.652344 148.128906 L 310.644531 153.703125 L 308.140625 155.851562 L 310.644531 157.984375 L 313.144531 155.851562 L 316.710938 159.78125 L 316.710938 163.699219 L 309.753906 169.601562 L 305.652344 166.917969 L 305.652344 163.699219 L 302.257812 163.699219 L 302.257812 166.746094 L 304.042969 166.917969 L 305.652344 168.699219 L 305.824219 172.8125 L 299.65625 177.804688 L 287 165.800781 Z M 206.410156 217.84375 C 206.410156 227.234375 214.027344 234.851562 223.417969 234.851562 C 232.808594 234.851562 240.425781 227.234375 240.425781 217.84375 C 240.425781 208.453125 232.808594 200.835938 223.417969 200.835938 C 214.027344 200.835938 206.410156 208.453125 206.410156 217.84375 Z M 217.304688 217.855469 C 214.257812 217.808594 211.800781 215.339844 211.800781 212.304688 C 211.800781 209.21875 214.300781 206.726562 217.375 206.726562 C 220.457031 206.726562 222.949219 209.230469 222.949219 212.304688 L 222.9375 212.382812 C 223.097656 212.371094 223.234375 212.28125 223.40625 212.28125 C 223.417969 209.21875 225.917969 206.726562 228.980469 206.726562 C 232.066406 206.726562 234.554688 209.230469 234.554688 212.304688 C 234.554688 215.351562 232.097656 217.808594 229.058594 217.855469 C 232.109375 217.910156 234.554688 220.378906 234.554688 223.417969 C 234.554688 226.488281 232.054688 228.992188 228.980469 228.992188 C 225.90625 228.992188 223.417969 226.492188 223.40625 223.429688 C 223.234375 223.429688 223.097656 223.335938 222.925781 223.324219 L 222.949219 223.417969 C 222.949219 226.488281 220.449219 228.992188 217.375 228.992188 C 214.289062 228.992188 211.800781 226.492188 211.800781 223.417969 C 211.8125 220.378906 214.265625 217.910156 217.304688 217.855469 Z M 217.304688 217.855469 " fill-opacity="1" fill-rule="nonzero"/><path fill="#a1a1a1" d="M 234.53125 201.691406 C 233.207031 203.003906 233.882812 205.824219 236.027344 207.960938 C 238.175781 210.109375 240.984375 210.785156 242.300781 209.457031 C 243.625 208.144531 242.960938 205.335938 240.804688 203.1875 C 238.667969 201.039062 235.847656 200.367188 234.53125 201.691406 Z M 207.183594 203.839844 C 207.183594 205.449219 208.488281 206.75 210.109375 206.75 C 211.71875 206.75 213.023438 205.449219 213.023438 203.839844 C 213.023438 202.214844 211.71875 200.914062 210.109375 200.914062 C 208.488281 200.914062 207.183594 202.214844 207.183594 203.839844 Z M 232.578125 231.949219 C 232.578125 233.5625 233.882812 234.863281 235.503906 234.863281 C 237.113281 234.863281 238.414062 233.5625 238.414062 231.949219 C 238.414062 230.328125 237.113281 229.027344 235.503906 229.027344 C 233.882812 229.027344 232.578125 230.328125 232.578125 231.949219 Z M 206.410156 231.003906 C 206.410156 232.613281 207.710938 233.914062 209.332031 233.914062 C 210.945312 233.914062 212.246094 232.613281 212.246094 231.003906 C 212.246094 229.378906 210.945312 228.078125 209.332031 228.078125 C 207.710938 228.089844 206.410156 229.390625 206.410156 231.003906 Z M 206.410156 231.003906 " fill-opacity="1" fill-rule="nonzero"/><path fill="#b4b4b5" d="M 287.625 176.972656 C 289.214844 175.933594 290.425781 174.515625 291.234375 172.746094 C 294.652344 165.296875 290.414062 153.3125 287.820312 148.6875 C 284.65625 143.011719 286.597656 139.308594 288.117188 137.539062 C 287.695312 137.378906 287.179688 137.253906 286.621094 137.253906 C 285.375 137.253906 284.164062 137.859375 283.058594 139.058594 C 279.722656 142.609375 281.296875 147.351562 285.949219 158.125 C 289.441406 166.199219 290.800781 172.023438 287.625 176.972656 Z M 287.625 176.972656 " fill-opacity="1" fill-rule="nonzero"/><path fill="#b4b4b5" d="M 281.242188 142.246094 C 282.875 139.867188 285.386719 138.542969 288.472656 138.542969 C 290.972656 138.542969 293.554688 139.480469 295.726562 141.125 L 298.925781 136.304688 C 297.507812 135.128906 294.09375 132.683594 290.230469 132.683594 C 289.214844 132.683594 288.230469 132.855469 287.285156 133.1875 C 282.910156 134.75 281.433594 138.785156 281.242188 142.246094 Z M 281.242188 142.246094 " fill-opacity="1" fill-rule="nonzero"/><path fill="#cb9c2b" d="M 212.394531 144.425781 L 208.636719 137.46875 L 216.3125 140.953125 Z M 212.394531 144.425781 " fill-opacity="1" fill-rule="nonzero"/><path fill="#cb9c2b" d="M 212.050781 138.121094 C 212.050781 139.6875 210.792969 140.953125 209.230469 140.953125 C 207.664062 140.953125 206.410156 139.6875 206.410156 138.121094 C 206.410156 136.566406 207.664062 135.300781 209.230469 135.300781 C 210.792969 135.300781 212.050781 136.566406 212.050781 138.121094 Z M 218.621094 139.777344 C 219.945312 141.089844 219.269531 143.914062 217.125 146.050781 C 214.976562 148.207031 212.164062 148.871094 210.851562 147.546875 C 209.527344 146.230469 210.191406 143.421875 212.347656 141.273438 C 214.484375 139.125 217.304688 138.441406 218.621094 139.777344 Z M 218.621094 139.777344 " fill-opacity="1" fill-rule="nonzero"/><path fill="#a1a1a1" d="M 283.84375 205.289062 C 279.515625 209.390625 275.835938 204.089844 268.925781 197.96875 C 262.609375 192.371094 221.085938 153.757812 216.632812 149.828125 C 212.164062 145.902344 216.3125 139.960938 221.488281 144.78125 C 226.660156 149.601562 276.328125 191.179688 280.054688 194.574219 C 283.789062 197.976562 288.644531 200.742188 283.84375 205.289062 Z M 283.84375 205.289062 " fill-opacity="1" fill-rule="nonzero"/><path fill="#a1a1a1" d="M 217.738281 148.128906 L 212.75 153.703125 L 215.25 155.851562 L 212.75 157.984375 L 210.246094 155.851562 L 206.683594 159.78125 L 206.683594 163.699219 L 213.640625 169.601562 L 217.738281 166.917969 L 217.738281 163.699219 L 221.132812 163.699219 L 221.132812 166.746094 L 219.351562 166.917969 L 217.738281 168.699219 L 217.570312 172.8125 L 223.738281 177.804688 L 236.394531 165.800781 Z M 299.976562 200.835938 C 290.585938 200.835938 282.964844 208.453125 282.964844 217.84375 C 282.964844 227.234375 290.585938 234.851562 299.976562 234.851562 C 309.363281 234.851562 316.984375 227.234375 316.984375 217.84375 C 316.984375 208.453125 309.363281 200.835938 299.976562 200.835938 Z M 311.582031 223.417969 C 311.582031 226.488281 309.078125 228.992188 306.007812 228.992188 C 302.921875 228.992188 300.433594 226.492188 300.433594 223.417969 L 300.453125 223.324219 C 300.285156 223.335938 300.144531 223.429688 299.976562 223.429688 C 299.964844 226.492188 297.472656 228.992188 294.398438 228.992188 C 291.328125 228.992188 288.824219 226.492188 288.824219 223.417969 C 288.824219 220.367188 291.28125 217.910156 294.320312 217.855469 C 291.269531 217.808594 288.824219 215.339844 288.824219 212.304688 C 288.824219 209.21875 291.328125 206.726562 294.398438 206.726562 C 297.472656 206.726562 299.964844 209.21875 299.976562 212.28125 C 300.144531 212.28125 300.285156 212.371094 300.441406 212.382812 L 300.433594 212.304688 C 300.433594 209.21875 302.933594 206.726562 306.007812 206.726562 C 309.089844 206.726562 311.582031 209.230469 311.582031 212.304688 C 311.582031 215.351562 309.125 217.808594 306.085938 217.855469 C 309.125 217.910156 311.582031 220.378906 311.582031 223.417969 Z M 311.582031 223.417969 " fill-opacity="1" fill-rule="nonzero"/><path fill="#cb9c2b" d="M 288.859375 201.691406 C 290.183594 203.003906 289.511719 205.824219 287.363281 207.960938 C 285.214844 210.109375 282.40625 210.785156 281.09375 209.457031 C 279.765625 208.144531 280.429688 205.335938 282.589844 203.1875 C 284.726562 201.039062 287.546875 200.367188 288.859375 201.691406 Z M 316.207031 203.839844 C 316.207031 205.449219 314.90625 206.75 313.28125 206.75 C 311.671875 206.75 310.371094 205.449219 310.371094 203.839844 C 310.371094 202.214844 311.671875 200.914062 313.28125 200.914062 C 314.90625 200.914062 316.207031 202.214844 316.207031 203.839844 Z M 290.8125 231.949219 C 290.8125 233.5625 289.511719 234.863281 287.890625 234.863281 C 286.277344 234.863281 284.976562 233.5625 284.976562 231.949219 C 284.976562 230.328125 286.277344 229.027344 287.890625 229.027344 C 289.511719 229.027344 290.8125 230.328125 290.8125 231.949219 Z M 316.984375 231.003906 C 316.984375 232.613281 315.679688 233.914062 314.058594 233.914062 C 312.449219 233.914062 311.148438 232.613281 311.148438 231.003906 C 311.148438 229.378906 312.449219 228.078125 314.058594 228.078125 C 315.679688 228.089844 316.984375 229.390625 316.984375 231.003906 Z M 316.984375 231.003906 " fill-opacity="1" fill-rule="nonzero"/><path fill="#000000" d="M 277.894531 138.542969 C 277.894531 155.300781 270.59375 154.84375 261.582031 154.84375 C 252.582031 154.84375 245.28125 155.300781 245.28125 138.542969 C 245.28125 121.785156 252.582031 103.679688 261.582031 103.679688 C 270.59375 103.679688 277.894531 121.785156 277.894531 138.542969 Z M 277.894531 138.542969 " fill-opacity="1" fill-rule="nonzero"/><path fill="#ffffff" d="M 260.863281 153.703125 C 256.019531 153.703125 252.636719 153.554688 250.320312 151.761719 C 247.667969 149.691406 246.421875 145.5 246.421875 138.542969 C 246.421875 121.523438 253.929688 104.824219 261.582031 104.824219 C 269.234375 104.824219 276.75 121.523438 276.75 138.542969 C 276.75 153.703125 270.664062 153.703125 262.953125 153.703125 Z M 260.863281 153.703125 " fill-opacity="1" fill-rule="nonzero"/><path fill="#cb9c2b" d="M 270.101562 142.234375 C 264.390625 140.566406 265.316406 135.09375 261.582031 135.09375 C 257.847656 135.09375 258.773438 140.566406 253.058594 142.234375 C 247.359375 143.902344 244.539062 141.285156 244.539062 141.285156 L 247.199219 152.230469 C 247.199219 152.230469 251.988281 148.183594 261.582031 148.183594 C 271.175781 148.183594 275.964844 152.230469 275.964844 152.230469 L 278.625 141.285156 C 278.625 141.273438 275.804688 143.890625 270.101562 142.234375 Z M 270.101562 142.234375 " fill-opacity="1" fill-rule="nonzero"/><path fill="#cb9c2b" d="M 271.039062 127.75 C 264.699219 126 265.726562 120.234375 261.582031 120.234375 C 257.433594 120.234375 258.453125 126 252.125 127.75 C 245.796875 129.496094 242.675781 126.753906 242.675781 126.753906 L 245.625 138.269531 C 245.625 138.269531 250.945312 134.007812 261.582031 134.007812 C 272.226562 134.007812 277.539062 138.269531 277.539062 138.269531 L 280.488281 126.753906 C 280.488281 126.765625 277.367188 129.507812 271.039062 127.75 Z M 271.039062 127.75 " fill-opacity="1" fill-rule="nonzero"/><path fill="#cb9c2b" d="M 269.542969 112.566406 C 264.210938 111.09375 265.066406 106.238281 261.582031 106.238281 C 258.085938 106.238281 258.953125 111.09375 253.621094 112.566406 C 248.296875 114.042969 245.667969 111.734375 245.667969 111.734375 L 248.160156 121.433594 C 248.160156 121.433594 252.636719 118.738281 261.59375 118.738281 C 270.550781 118.738281 275.027344 121.433594 275.027344 121.433594 L 277.515625 111.734375 C 277.503906 111.734375 274.867188 114.042969 269.542969 112.566406 Z M 259.546875 101.75 C 259.546875 103.441406 260.460938 104.824219 261.582031 104.824219 C 262.703125 104.824219 263.613281 103.453125 263.613281 101.75 C 263.613281 100.046875 262.703125 98.675781 261.582031 98.675781 C 260.472656 98.675781 259.546875 100.046875 259.546875 101.75 Z M 259.546875 101.75 " fill-opacity="1" fill-rule="nonzero"/><path fill="#cb9c2b" d="M 256.453125 98.414062 C 256.453125 99.578125 258.75 100.527344 261.582031 100.527344 C 264.414062 100.527344 266.710938 99.578125 266.710938 98.414062 C 266.710938 97.238281 264.414062 96.289062 261.582031 96.289062 C 258.75 96.300781 256.453125 97.25 256.453125 98.414062 Z M 256.453125 98.414062 " fill-opacity="1" fill-rule="nonzero"/><path fill="#cb9c2b" d="M 259.546875 95.320312 C 259.546875 96.496094 260.460938 97.445312 261.582031 97.445312 C 262.703125 97.445312 263.613281 96.496094 263.613281 95.320312 C 263.613281 94.140625 262.703125 93.207031 261.582031 93.207031 C 260.472656 93.207031 259.546875 94.152344 259.546875 95.320312 Z M 259.546875 95.320312 " fill-opacity="1" fill-rule="nonzero"/><path fill="#b4b4b5" d="M 235.546875 176.972656 C 233.960938 175.933594 232.75 174.515625 231.9375 172.746094 C 228.523438 165.296875 232.761719 153.3125 235.355469 148.6875 C 238.519531 143.011719 236.578125 139.308594 235.058594 137.539062 C 235.480469 137.378906 235.996094 137.253906 236.554688 137.253906 C 237.800781 137.253906 239.011719 137.859375 240.117188 139.058594 C 243.453125 142.609375 241.878906 147.351562 237.226562 158.125 C 233.734375 166.199219 232.375 172.023438 235.546875 176.972656 Z M 235.546875 176.972656 " fill-opacity="1" fill-rule="nonzero"/><path fill="#b4b4b5" d="M 241.933594 142.246094 C 240.289062 139.867188 237.789062 138.542969 234.703125 138.542969 C 232.203125 138.542969 229.621094 139.480469 227.449219 141.125 L 224.25 136.304688 C 225.667969 135.128906 229.082031 132.683594 232.945312 132.683594 C 233.960938 132.683594 234.941406 132.855469 235.890625 133.1875 C 240.253906 134.75 241.730469 138.785156 241.933594 142.246094 Z M 241.933594 142.246094 " fill-opacity="1" fill-rule="nonzero"/><path fill="#ec1c24" d="M 261.582031 176.023438 C 263.867188 177.78125 264.390625 184.589844 264.390625 192.621094 L 264.390625 255.265625 C 264.390625 255.265625 267.898438 256.15625 266.824219 265.441406 C 266.515625 268.09375 261.296875 267.589844 260.40625 265.441406 C 259.515625 263.296875 259.949219 256.40625 261.59375 255.449219 L 261.59375 193.15625 C 261.59375 183.882812 260.039062 180.285156 259.558594 178.523438 C 259.070312 176.765625 260.484375 175.167969 261.582031 176.023438 Z M 261.582031 176.023438 " fill-opacity="1" fill-rule="nonzero"/><path fill="#ec1c24" d="M 283.113281 219.417969 C 280.875 217.855469 277.734375 213.914062 275.039062 210.144531 C 271.472656 205.140625 270.570312 201.738281 267.03125 197.453125 C 263.488281 193.167969 254.214844 184.292969 252.019531 184.601562 C 251.152344 184.726562 250.238281 186.75 251.074219 187.457031 C 251.90625 188.164062 254.523438 191.023438 260.40625 195.488281 C 266.300781 199.953125 267.191406 204.945312 272.101562 212.085938 C 276.636719 218.675781 280.554688 223.175781 284.085938 223.78125 C 283.570312 222.402344 283.261719 220.9375 283.113281 219.417969 Z M 283.113281 219.417969 " fill-opacity="1" fill-rule="nonzero"/><path fill="#ec1c24" d="M 271.519531 182.316406 C 269.429688 184.316406 262.964844 190.644531 259.445312 194.757812 C 255.925781 198.871094 251.472656 208.691406 247.542969 213.148438 C 245.019531 216.003906 242.289062 218.449219 240.210938 219.957031 C 240.015625 221.511719 239.683594 223.007812 239.101562 224.398438 C 241.933594 223.453125 245.976562 220.847656 251.050781 213.511719 C 258.0625 203.335938 261.457031 195.84375 264.847656 192.988281 C 268.242188 190.128906 269.601562 189.285156 271.507812 187.296875 C 273.425781 185.296875 273.621094 180.308594 271.519531 182.316406 Z M 271.519531 182.316406 " fill-opacity="1" fill-rule="nonzero"/><path fill="#ec1c24" d="M 257.402344 190.65625 L 257.402344 256.691406 C 253.621094 259.730469 254.695312 264.769531 255.402344 267.246094 C 256.109375 269.726562 262.289062 269.714844 263.25 268.480469 C 264.210938 267.246094 264.472656 258.839844 260.941406 255.984375 L 260.941406 194.769531 C 260.941406 193.15625 257.402344 188.199219 257.402344 190.65625 Z M 257.402344 190.65625 " fill-opacity="1" fill-rule="nonzero"/><path fill="#ec1c24" d="M 234.222656 221.511719 C 230.832031 223.875 227.917969 227.953125 235.503906 230.992188 C 243.089844 234.03125 253.128906 238.128906 261.582031 238.128906 C 270.035156 238.128906 285.832031 232.394531 289.535156 229.8125 C 293.234375 227.234375 294.835938 224.160156 288.941406 222.421875 C 285.84375 221.511719 285.375 223.851562 286.988281 224.386719 C 288.597656 224.925781 290.472656 226.59375 286.402344 228.078125 C 282.347656 229.5625 273.0625 233.914062 260.929688 233.914062 C 248.800781 233.914062 237.375 228.742188 235.503906 228.078125 C 233.628906 227.414062 233.117188 225.28125 234.441406 224.386719 C 235.765625 223.496094 235.742188 220.457031 234.222656 221.511719 Z M 234.222656 221.511719 " fill-opacity="1" fill-rule="nonzero"/><path fill="#cb9c2b" d="M 265.761719 253.230469 C 265.761719 254.566406 264.675781 255.640625 263.339844 255.640625 C 262.015625 255.640625 260.929688 254.566406 260.929688 253.230469 C 260.929688 251.894531 262.015625 250.808594 263.339844 250.808594 C 264.6875 250.808594 265.761719 251.894531 265.761719 253.230469 Z M 265.761719 253.230469 " fill-opacity="1" fill-rule="nonzero"/><path fill="#cb9c2b" d="M 261.695312 254.832031 C 261.695312 256.167969 260.609375 257.242188 259.273438 257.242188 C 257.949219 257.242188 256.863281 256.167969 256.863281 254.832031 C 256.863281 253.496094 257.949219 252.410156 259.273438 252.410156 C 260.609375 252.421875 261.695312 253.496094 261.695312 254.832031 Z M 261.695312 254.832031 " fill-opacity="1" fill-rule="nonzero"/></svg>