<svg xmlns="http://www.w3.org/2000/svg" xmlns:xlink="http://www.w3.org/1999/xlink" width="1080" zoomAndPan="magnify" viewBox="0 0 810 809.999993" height="1080" preserveAspectRatio="xMidYMid meet" version="1.0"><defs><clipPath id="e417dd6639"><path d="M 154 211 L 655 211 L 655 599.375 L 154 599.375 Z M 154 211 " clip-rule="nonzero"/></clipPath></defs><g clip-path="url(#e417dd6639)"><path fill="#000000" d="M 167.226562 418.453125 C 164.972656 417.941406 162.824219 417.53125 160.570312 417.019531 C 159.953125 417.121094 157.597656 417.429688 156.675781 417.019531 C 154.832031 416.300781 155.140625 416.097656 155.035156 414.046875 C 154.933594 413.019531 154.523438 411.890625 155.035156 410.867188 C 156.0625 408.816406 157.804688 409.125 157.496094 406.253906 C 157.1875 402.355469 154.628906 400.511719 155.242188 396.203125 C 155.753906 392.308594 158.828125 390.464844 161.695312 388.414062 C 163.234375 387.386719 164.460938 386.773438 166.203125 386.667969 C 167.636719 386.667969 170.507812 388.207031 171.121094 386.363281 C 172.246094 383.183594 164.359375 380.925781 165.382812 377.648438 C 166 375.800781 168.664062 376.109375 169.996094 375.289062 C 171.734375 374.160156 172.554688 372.316406 173.375 370.367188 C 174.5 367.699219 175.015625 364.832031 176.347656 362.265625 C 177.164062 360.625 178.394531 359.089844 178.90625 357.242188 C 179.929688 353.859375 178.191406 352.628906 178.085938 349.757812 C 177.984375 347.195312 179.523438 346.273438 180.75 345.042969 C 181.777344 343.914062 182.289062 345.246094 182.59375 342.476562 C 182.800781 341.042969 182.289062 339.914062 182.59375 338.582031 C 183.3125 335.609375 186.488281 334.890625 186.898438 331.917969 C 191.609375 332.839844 192.226562 337.660156 196.324219 339.09375 C 198.578125 339.914062 201.242188 339.09375 203.597656 339.402344 C 204.621094 339.503906 206.261719 340.632812 207.183594 340.53125 C 208.515625 340.324219 208.515625 339.402344 209.4375 338.890625 C 213.945312 336.632812 213.839844 342.066406 217.015625 344.117188 C 218.347656 344.9375 219.78125 344.632812 220.808594 345.863281 C 222.140625 347.503906 221.320312 350.066406 221.832031 352.015625 C 224.804688 351.398438 225.828125 346.683594 229.207031 346.476562 C 232.28125 346.375 234.332031 349.65625 237.507812 348.324219 C 239.863281 347.296875 240.683594 343.8125 242.628906 342.171875 C 244.269531 340.839844 246.316406 340.53125 248.058594 339.402344 C 248.777344 338.890625 249.59375 339.199219 250.003906 338.171875 C 250.824219 336.429688 248.671875 335.199219 248.980469 333.660156 C 249.699219 330.378906 255.230469 332.941406 252.976562 328.328125 C 251.746094 325.867188 246.828125 322.792969 252.667969 321.972656 C 255.640625 321.5625 257.484375 322.996094 260.660156 321.460938 C 262.8125 320.433594 264.550781 319.613281 266.804688 318.792969 C 268.753906 318.179688 270.902344 316.640625 272.851562 316.230469 C 274.898438 315.820312 277.359375 316.023438 279.613281 315.921875 C 282.378906 315.71875 282.582031 316.230469 284.324219 313.976562 C 286.066406 311.617188 287.089844 310.589844 289.960938 309.464844 C 293.136719 308.027344 296.515625 306.898438 299.792969 305.667969 C 300.714844 302.902344 301.742188 300.339844 301.945312 297.058594 C 302.148438 293.671875 301.945312 289.058594 303.378906 285.675781 C 304.199219 283.625 306.144531 282.804688 307.066406 280.753906 C 307.886719 278.804688 307.683594 276.652344 307.683594 274.808594 C 307.578125 268.65625 310.347656 267.835938 315.980469 265.988281 C 320.488281 264.453125 323.972656 264.347656 328.582031 263.632812 C 330.835938 263.324219 332.167969 262.605469 334.421875 262.8125 C 336.675781 263.015625 337.597656 263.835938 338.210938 261.070312 C 338.824219 258.300781 337.1875 256.558594 339.644531 253.992188 C 340.875 252.761719 344.664062 250.304688 346.507812 250.507812 C 348.660156 250.714844 350.914062 254.402344 352.859375 255.53125 C 355.628906 257.171875 358.804688 258.300781 361.773438 259.734375 C 365.769531 261.683594 367.203125 261.480469 371.097656 260.042969 C 374.578125 258.710938 377.960938 259.121094 381.546875 259.734375 C 385.4375 260.453125 387.691406 260.042969 390.253906 263.425781 C 391.6875 265.375 393.226562 269.167969 395.582031 270.808594 C 395.785156 270.089844 395.890625 269.476562 396.09375 268.757812 C 396.09375 268.757812 396.09375 268.859375 396.195312 268.859375 C 397.21875 267.425781 398.347656 264.144531 400.089844 263.425781 C 403.164062 262.09375 403.367188 266.503906 405.722656 266.195312 C 406.953125 266.09375 406.953125 263.941406 408.183594 263.835938 C 409.617188 263.632812 410.539062 265.578125 411.359375 266.398438 C 412.382812 267.527344 413.40625 268.554688 413.917969 269.886719 C 414.328125 271.015625 413.816406 272.550781 414.636719 273.476562 C 416.070312 275.421875 420.476562 276.652344 422.730469 277.578125 C 424.777344 275.21875 425.597656 273.066406 428.875 271.835938 C 431.746094 270.808594 434.613281 270.195312 437.480469 268.757812 C 440.761719 267.015625 444.242188 265.785156 447.316406 263.835938 C 450.492188 261.785156 452.542969 261.273438 456.023438 263.734375 C 458.789062 265.785156 461.042969 269.886719 465.347656 268.554688 C 469.136719 267.324219 466.472656 262.503906 466.066406 259.53125 C 465.65625 256.453125 466.066406 255.941406 468.625 254.300781 C 470.46875 253.070312 473.03125 250.304688 474.875 249.484375 C 476.515625 248.765625 478.253906 249.585938 480.40625 249.585938 C 482.25 249.585938 484.402344 248.253906 486.042969 248.355469 C 488.601562 248.558594 489.421875 251.945312 491.984375 250.917969 C 493.109375 250.40625 496.390625 245.585938 496.695312 244.355469 C 497.515625 241.691406 494.542969 241.28125 493.621094 239.023438 C 492.699219 236.871094 493.519531 234.308594 494.851562 232.566406 C 498.539062 235.4375 500.28125 228.976562 501.820312 226.722656 C 503.148438 224.875 504.996094 223.746094 506.324219 222.210938 C 508.066406 220.160156 507.761719 217.390625 509.09375 215.238281 C 510.527344 212.980469 513.90625 210.929688 516.777344 211.035156 C 519.4375 211.136719 521.179688 213.390625 523.433594 214.417969 C 527.328125 216.261719 531.21875 215.542969 531.835938 220.980469 C 532.140625 223.746094 530.296875 226.207031 530.402344 228.976562 C 530.503906 231.027344 531.425781 232.871094 531.324219 234.921875 C 534.394531 233.589844 538.289062 231.949219 539.621094 232.871094 C 541.464844 234.207031 539.210938 240.050781 539.007812 241.484375 C 538.496094 244.355469 538.085938 247.226562 538.1875 250.097656 C 538.390625 253.890625 538.496094 257.683594 538.1875 261.480469 C 537.878906 264.65625 536.753906 267.835938 537.058594 271.015625 C 537.46875 274.601562 540.132812 284.753906 543.820312 286.1875 C 545.253906 286.703125 549.96875 285.882812 551.402344 285.367188 C 554.269531 284.34375 556.933594 281.472656 559.1875 279.421875 C 561.238281 277.578125 563.183594 275.117188 565.640625 273.78125 C 567.691406 272.65625 569.945312 272.859375 572.097656 272.347656 C 575.578125 271.527344 577.527344 269.886719 579.164062 266.808594 C 580.703125 264.042969 581.828125 262.914062 584.390625 261.171875 C 589.207031 257.890625 592.585938 253.378906 598.425781 251.738281 C 604.164062 250.097656 607.542969 252.25 613.175781 252.25 C 615.023438 252.25 617.789062 250.917969 618.300781 253.378906 C 618.710938 255.429688 615.738281 255.738281 614.714844 257.273438 C 615.738281 258.199219 617.582031 258.09375 618.914062 257.789062 C 621.375 257.273438 623.523438 255.53125 626.085938 254.8125 C 627.828125 254.402344 629.464844 254.402344 630.902344 253.378906 C 631.824219 252.660156 632.027344 251.429688 632.847656 250.714844 C 634.792969 248.96875 635.511719 249.789062 638.070312 250.40625 C 641.042969 251.125 644.117188 251.328125 646.984375 252.046875 C 648.523438 252.457031 656.207031 254.8125 653.542969 257.171875 C 651.59375 258.914062 646.882812 256.042969 644.730469 257.070312 C 640.121094 259.429688 644.832031 262.710938 646.0625 264.65625 C 646.574219 265.476562 647.804688 268.347656 646.472656 269.066406 C 645.960938 269.375 643.296875 267.425781 642.476562 267.324219 C 638.890625 266.914062 638.6875 270.808594 635.410156 271.320312 C 633.972656 271.628906 632.335938 270.398438 631.105469 272.039062 C 630.183594 273.269531 631.617188 275.628906 630.082031 276.550781 C 628.339844 277.578125 623.730469 273.578125 621.886719 273.066406 C 618.402344 272.140625 615.023438 272.550781 611.539062 272.140625 C 606.824219 271.527344 602.316406 273.167969 597.503906 273.578125 C 592.6875 274.089844 589.921875 276.449219 585.515625 278.089844 C 578.859375 280.652344 572.199219 279.214844 565.949219 283.316406 C 562.773438 285.367188 562.773438 285.675781 561.238281 288.957031 C 559.804688 292.03125 557.753906 291.007812 554.988281 292.648438 C 552.324219 294.289062 553.65625 297.160156 551.503906 298.699219 C 548.839844 300.542969 547.40625 296.339844 545.152344 296.75 C 541.363281 297.46875 538.289062 305.566406 535.421875 307.925781 C 535.011719 308.335938 533.269531 310.179688 531.835938 311.71875 C 533.578125 315.410156 535.214844 316.640625 538.800781 320.332031 C 541.464844 323.101562 541.261719 326.277344 542.183594 329.867188 C 542.59375 331.40625 543.105469 333.457031 544.230469 334.6875 C 545.253906 335.8125 546.792969 336.019531 547.613281 337.351562 C 550.683594 342.070312 543.820312 341.453125 544.230469 344.9375 C 544.539062 347.808594 549.046875 347.195312 547.917969 351.089844 C 547.304688 353.039062 545.460938 353.550781 544.128906 354.886719 C 542.695312 356.320312 541.671875 358.0625 540.851562 359.910156 C 539.929688 361.960938 539.3125 364.011719 537.570312 365.546875 C 536.136719 366.882812 534.394531 367.496094 533.0625 369.035156 C 532.140625 370.160156 530.402344 372.621094 529.992188 373.851562 C 529.683594 374.777344 529.273438 374.46875 529.375 375.597656 C 529.480469 376.519531 531.117188 377.03125 530.8125 378.160156 C 530.195312 380.519531 526.710938 379.082031 525.894531 380.210938 C 524.050781 382.464844 527.328125 384.207031 528.660156 385.335938 C 531.425781 387.695312 530.707031 390.359375 528.964844 392.820312 C 530.503906 394.257812 530.8125 396 529.992188 398.152344 C 528.453125 401.945312 523.128906 402.871094 519.644531 403.894531 C 515.136719 405.332031 509.5 406.253906 504.789062 405.742188 C 500.179688 405.226562 496.386719 401.84375 491.574219 402.871094 C 486.757812 403.894531 488.191406 406.765625 490.242188 410.148438 C 490.957031 411.378906 491.472656 412.917969 492.804688 413.636719 C 494.03125 414.351562 495.363281 413.941406 496.59375 414.660156 C 499.566406 416.199219 498.847656 419.480469 499.769531 422.144531 C 500.792969 424.8125 503.96875 427.167969 503.867188 430.039062 C 500.078125 432.296875 496.796875 434.242188 493.519531 437.21875 C 491.882812 438.652344 490.035156 440.191406 488.296875 441.421875 C 485.835938 443.164062 486.554688 442.140625 484.402344 442.140625 C 482.25 442.140625 477.949219 442.855469 476.410156 444.601562 C 475.488281 445.625 475.488281 448.085938 474.976562 449.316406 C 474.15625 451.46875 472.417969 453.726562 472.210938 456.082031 C 471.699219 460.492188 473.441406 461.210938 469.34375 464.183594 C 465.246094 467.054688 466.679688 467.15625 467.394531 471.257812 C 467.703125 473.308594 466.78125 475.359375 466.882812 477.308594 C 466.988281 479.359375 467.703125 481.304688 468.113281 483.355469 C 468.316406 484.585938 469.445312 487.96875 469.136719 489.097656 C 468.726562 490.945312 468.421875 490.125 467.191406 491.25 C 464.734375 493.710938 464.425781 496.378906 462.480469 499.351562 C 460.941406 501.710938 458.996094 501.710938 456.332031 502.53125 C 454.386719 503.144531 452.03125 504.476562 450.59375 502.941406 C 448.851562 501.09375 450.289062 499.144531 447.726562 497.609375 C 445.164062 496.070312 444.449219 497.402344 441.683594 498.222656 C 439.121094 499.042969 436.867188 498.632812 434.511719 497.8125 C 432.050781 496.992188 430.71875 497.402344 428.058594 497.8125 C 424.164062 498.324219 423.550781 499.351562 421.5 502.425781 C 419.964844 504.785156 418.121094 506.425781 415.457031 507.246094 C 413.816406 507.757812 409.410156 507.554688 408.386719 508.683594 C 407.566406 509.5 407.976562 512.886719 408.59375 513.601562 C 409.925781 515.347656 412.792969 514.421875 414.023438 516.167969 C 414.023438 516.269531 414.023438 516.988281 414.023438 517.089844 C 411.5625 520.0625 404.800781 519.652344 401.214844 520.269531 C 396.605469 521.089844 392.917969 524.265625 389.230469 521.191406 C 386.15625 518.628906 385.542969 518.113281 381.957031 519.960938 C 378.984375 521.496094 376.320312 522.316406 375.09375 525.597656 C 373.964844 528.574219 373.65625 530.726562 370.480469 532.058594 C 367.921875 533.085938 365.257812 532.878906 363.824219 535.542969 C 362.492188 537.902344 362.695312 541.390625 361.773438 543.953125 C 361.363281 545.082031 360.339844 546.722656 360.238281 547.847656 C 360.136719 549.488281 360.648438 549.179688 361.058594 550.515625 C 362.796875 555.539062 360.953125 559.742188 360.03125 564.972656 C 359.929688 564.972656 359.828125 564.867188 359.929688 564.765625 C 359.316406 566.507812 358.804688 568.253906 358.289062 569.996094 L 362.59375 574.507812 L 358.394531 581.171875 L 313.726562 593.476562 C 285.246094 585.886719 279.917969 599.320312 279.917969 599.320312 L 260.964844 592.65625 L 218.554688 596.859375 L 162.105469 573.6875 C 162.105469 573.6875 195.605469 537.390625 196.734375 534.3125 C 197.859375 531.238281 200.316406 525.703125 199.191406 520.371094 C 198.066406 515.039062 194.480469 511.65625 194.480469 511.65625 L 163.746094 504.785156 C 163.335938 502.734375 162.824219 500.171875 162.617188 499.25 C 161.59375 495.25 161.796875 491.046875 161.285156 487.046875 C 160.875 483.355469 160.570312 482.636719 162.3125 479.460938 C 163.847656 476.691406 164.257812 474.332031 163.746094 471.257812 C 162.414062 464.183594 160.773438 457.003906 158.519531 450.136719 C 156.777344 444.703125 153.707031 438.34375 157.289062 433.320312 C 160.464844 428.914062 164.566406 426.757812 166.613281 421.222656 C 166 421.632812 166.613281 420.09375 167.226562 418.453125 Z M 167.226562 418.453125 " fill-opacity="1" fill-rule="nonzero"/></g></svg>