<svg xmlns="http://www.w3.org/2000/svg" xmlns:xlink="http://www.w3.org/1999/xlink" width="1080" zoomAndPan="magnify" viewBox="0 0 810 809.999993" height="1080" preserveAspectRatio="xMidYMid meet" version="1.0"><defs><clipPath id="3d8ff51cca"><path d="M 220.492188 130.132812 L 589.492188 130.132812 L 589.492188 679 L 220.492188 679 Z M 220.492188 130.132812 " clip-rule="nonzero"/></clipPath></defs><g clip-path="url(#3d8ff51cca)"><path fill="#000000" d="M 278.140625 585.90625 C 277.261719 585.90625 276.382812 585.90625 275.503906 585.90625 C 274.578125 585.90625 273.699219 585.554688 273.949219 584.578125 C 274.628906 581.792969 272.769531 580.0625 271.492188 578.078125 C 270.640625 576.75 270.6875 576.824219 272.042969 575.597656 C 272.394531 575.269531 272.320312 574.46875 272.519531 573.941406 C 272.972656 572.8125 273.625 571.933594 275.003906 572.785156 C 275.882812 573.339844 276.683594 573.390625 277.511719 572.785156 C 276.710938 571.808594 277.035156 570.226562 275.832031 569.523438 C 273.246094 568.019531 273.171875 567.417969 275.378906 565.234375 C 275.957031 564.683594 276.484375 564.082031 276.984375 563.453125 C 277.210938 563.179688 277.3125 562.777344 277.3125 562 C 274.851562 565.261719 272.292969 567.742188 268.082031 563.605469 C 268.707031 565.5625 272.246094 568.046875 267.300781 567.59375 C 266.726562 567.542969 266.273438 568.171875 266.398438 568.570312 C 266.925781 570.226562 266.75 571.40625 264.71875 571.257812 C 262.460938 571.105469 260.003906 571.230469 258.75 568.699219 C 258.496094 568.195312 258.523438 567.542969 258.398438 566.742188 C 256.566406 568.394531 255.335938 568.773438 253.304688 566.515625 C 251.925781 564.984375 248.816406 564.933594 246.558594 563.804688 C 243.597656 562.324219 241.441406 560.996094 243.269531 557.308594 C 243.671875 556.480469 243.121094 555.804688 242.570312 555.175781 C 239.382812 551.613281 239.03125 547.296875 239.308594 542.808594 C 239.382812 541.476562 239.183594 540.125 239.105469 538.769531 C 237.375 540.675781 235.070312 540.222656 233.261719 540 C 230.578125 539.671875 230.175781 536.636719 228.621094 534.804688 C 228.898438 536.5625 228.949219 538.367188 230.253906 539.824219 C 231.683594 541.429688 230.953125 542.40625 229.148438 542.707031 C 227.089844 543.082031 225.007812 543.335938 222.925781 542.558594 C 220.996094 541.828125 220.59375 541.125 220.820312 538.667969 C 221.296875 533.476562 224.933594 529.4375 225.160156 524.269531 C 225.210938 523.164062 226.4375 522.085938 227.242188 521.058594 C 229.273438 518.398438 229.75 514.660156 232.132812 512.527344 C 234.367188 510.519531 235.371094 508.261719 235.144531 505.804688 C 234.816406 502.117188 236.976562 498.929688 236.574219 495.292969 C 236.421875 494.039062 237.277344 493.011719 238.128906 492.15625 C 239.734375 490.578125 239.40625 489.121094 237.804688 487.816406 C 235.996094 486.363281 234.515625 484.933594 236.925781 482.75 C 237.375 482.324219 237.402344 481.722656 237.300781 481.070312 C 236.800781 477.40625 238.179688 475.648438 241.992188 475.097656 C 242.667969 474.996094 243.070312 474.773438 243.421875 474.21875 C 246.054688 470.003906 249.566406 466.59375 253.457031 463.582031 C 255.863281 461.726562 258.171875 459.84375 259.300781 456.886719 C 259.601562 456.132812 260.128906 455.28125 260.90625 455.179688 C 263.238281 454.902344 264.191406 452.546875 265.746094 451.792969 C 269.511719 450.011719 271.417969 445.519531 275.957031 445.121094 C 277.210938 445.019531 277.460938 443.914062 277.761719 442.988281 C 278.667969 440.226562 279.492188 437.441406 280.371094 434.660156 C 280.925781 432.953125 281.828125 431.796875 283.910156 432.449219 C 285.339844 432.902344 286.390625 432.148438 287.421875 431.273438 C 290.457031 428.664062 293.515625 426.054688 296.601562 423.496094 C 299.136719 421.414062 300.039062 421.613281 300.617188 424.671875 C 301.167969 427.507812 302.648438 428.5625 305.40625 428.386719 C 307.414062 428.261719 309.421875 428.335938 311.425781 428.335938 C 315.367188 428.3125 316.996094 426.832031 317.597656 422.816406 C 317.75 421.839844 317.875 420.835938 318.148438 419.855469 C 318.476562 418.726562 318.527344 417.074219 319.78125 416.847656 C 321.210938 416.597656 320.933594 418.402344 321.511719 419.230469 C 322.867188 421.160156 325.125 421.765625 327.105469 422.464844 C 330.59375 423.695312 333.074219 425.425781 333.703125 429.363281 C 334.027344 431.398438 335.660156 432.5 337.691406 433.003906 C 342.207031 434.105469 343.109375 435.210938 343.109375 439.828125 C 343.109375 442.257812 343.460938 444.617188 344.1875 446.925781 C 344.738281 448.683594 345.820312 449.558594 347.75 449.433594 C 350.234375 449.285156 352.742188 449.382812 355.226562 449.160156 C 357.082031 449.007812 358.335938 447.980469 358.6875 445.972656 C 359.089844 443.613281 360.21875 442.085938 362.800781 441.40625 C 365.710938 440.652344 367.691406 435.460938 366.3125 432.578125 C 365.558594 430.996094 365.460938 429.617188 366.6875 428.460938 C 370.902344 424.523438 375.34375 420.859375 380.636719 418.476562 C 381.867188 417.925781 381.640625 417.375 381.164062 416.722656 C 379.808594 414.863281 378.578125 412.808594 376.875 411.328125 C 375.445312 410.097656 375.496094 409.746094 376.597656 408.191406 C 379.832031 403.675781 383.972656 400.011719 387.511719 395.800781 C 388.289062 394.871094 388.8125 393.917969 388.414062 392.8125 C 387.410156 390.003906 388.5625 387.695312 389.96875 385.464844 C 391.046875 383.757812 392.125 382.078125 393.429688 380.546875 C 395.664062 377.910156 397.746094 375.328125 396.414062 371.488281 C 396.1875 370.8125 396.289062 369.683594 396.714844 369.183594 C 399.148438 366.320312 398.671875 363.160156 398.246094 359.800781 C 397.746094 355.808594 398.746094 354.808594 402.6875 354.15625 C 404.492188 353.855469 406.75 350.894531 406.625 349.113281 C 406.523438 348.035156 405.269531 346.527344 406.046875 346.078125 C 407.503906 345.222656 409.484375 344.519531 411.066406 344.824219 C 415.980469 345.699219 419.191406 343.96875 421.175781 339.527344 C 421.476562 338.851562 422 338.273438 422.730469 338.25 C 425.4375 338.148438 425.914062 336.21875 426.242188 334.160156 C 426.492188 332.480469 426.867188 330.773438 426.84375 329.09375 C 426.816406 324.226562 427.46875 319.585938 430.179688 315.34375 C 431.183594 313.789062 431.03125 311.734375 429.503906 310.351562 C 428.171875 309.175781 428.773438 308.648438 429.851562 307.871094 C 433.792969 305.007812 437.453125 301.824219 442.695312 301.371094 C 445.480469 301.121094 446.082031 298.511719 446.285156 296.152344 C 446.460938 294.046875 446.710938 291.964844 447.5625 290.007812 C 448.089844 288.828125 447.890625 287.851562 447.035156 286.996094 C 445.53125 285.492188 445.457031 283.863281 446.511719 282.082031 C 447.160156 280.976562 447.085938 279.773438 446.785156 278.566406 C 446.132812 275.882812 447.464844 274.628906 449.945312 274.203125 C 451.125 274.003906 452.355469 273.851562 453.457031 273.449219 C 455.339844 272.773438 456.921875 271.46875 457.019531 269.359375 C 457.269531 264.019531 458.976562 258.976562 459.878906 253.78125 C 461.058594 247.085938 465.597656 242.167969 469.285156 236.847656 C 470.492188 235.117188 471.820312 233.460938 471.644531 231.152344 C 471.621094 230.703125 471.746094 229.976562 472.070312 229.773438 C 475.808594 227.316406 476.886719 222.75 480.023438 219.765625 C 482.207031 217.65625 484.386719 217.003906 487.046875 218.386719 C 489.679688 219.738281 491.6875 219.289062 494.171875 217.53125 C 499.1875 213.996094 504.304688 210.558594 509.898438 207.898438 C 513.789062 206.042969 514.589844 201.625 511.203125 198.941406 C 509.472656 197.585938 509.722656 196.734375 510.601562 195.003906 C 512.433594 191.339844 513.585938 187.503906 512.757812 183.1875 C 512.207031 180.304688 513.9375 177.644531 514.992188 174.835938 C 511.554688 174.433594 509.898438 171.722656 508.34375 169.363281 C 507.015625 167.359375 505.433594 166.832031 503.378906 166.707031 C 500.566406 166.53125 497.785156 166.355469 494.972656 166.203125 C 493.394531 166.128906 492.113281 165.652344 492.140625 163.820312 C 492.191406 153.761719 488.828125 144.277344 487.070312 134.542969 C 486.546875 131.660156 487.375 130.933594 490.007812 130.980469 C 493.820312 131.058594 497.632812 130.933594 501.445312 130.957031 C 505.058594 130.980469 508.644531 135.347656 508.09375 138.960938 C 507.742188 141.21875 510.527344 145.65625 512.558594 146.660156 C 515.242188 147.992188 517.800781 149.445312 520.308594 151.226562 C 526.882812 155.84375 525.726562 163.019531 527.332031 169.265625 C 527.761719 170.871094 527.507812 172.652344 527.460938 174.355469 C 527.359375 176.890625 528.761719 177.996094 531.019531 177.917969 C 532.878906 177.84375 533.65625 178.421875 534.105469 180.277344 C 534.734375 182.785156 535.460938 185.167969 534.308594 187.679688 C 533.90625 188.53125 534.105469 189.257812 534.859375 189.785156 C 537.191406 191.417969 537.417969 193.699219 536.1875 195.855469 C 534.660156 198.515625 535.335938 200.699219 536.941406 202.78125 C 538.546875 204.835938 538.472656 206.542969 536.664062 208.351562 C 536.039062 208.976562 535.3125 209.78125 535.210938 210.582031 C 534.257812 218.558594 531.070312 226.511719 535.058594 234.539062 C 535.359375 235.144531 535.761719 235.996094 535.5625 236.523438 C 534.257812 240.261719 536.238281 243.144531 537.84375 246.128906 C 538.722656 247.785156 539.273438 249.390625 538.519531 251.296875 C 537.945312 252.753906 538.421875 253.832031 539.976562 254.359375 C 543.210938 255.488281 543.8125 258.699219 545.394531 261.15625 C 545.820312 261.808594 545.695312 262.914062 546.222656 263.367188 C 551.265625 267.730469 554.652344 273.925781 561.023438 276.8125 C 561.824219 277.1875 562.628906 277.640625 563.304688 278.21875 C 564.234375 279.019531 564.207031 279.722656 562.855469 280.074219 C 556.65625 281.628906 550.585938 283.960938 544.089844 280.902344 C 541.15625 279.519531 537.917969 279.296875 534.910156 281.402344 C 533.605469 282.332031 531.949219 282.054688 530.519531 281.652344 C 528.386719 281.078125 526.332031 281.128906 524.347656 281.980469 C 521.414062 283.234375 518.527344 283.132812 515.542969 282.207031 C 509.273438 280.273438 502.925781 279.246094 496.304688 280 C 493.921875 280.273438 492.089844 280.800781 491.1875 283.308594 C 490.03125 286.519531 487.675781 288.855469 485.140625 291.035156 C 484.085938 291.9375 483.382812 293.195312 482.480469 294.273438 C 481.476562 295.476562 481.753906 296.328125 482.933594 297.28125 C 488.902344 301.972656 494.097656 307.71875 497.984375 313.941406 C 502.375 320.941406 509.070312 324.726562 514.839844 329.796875 C 517.777344 332.378906 520.484375 335.617188 524.851562 336.042969 C 525.027344 336.066406 525.25 336.191406 525.378906 336.34375 C 528.414062 340.609375 533.277344 342.839844 536.613281 346.878906 C 544.066406 355.9375 547.980469 366.546875 551.1875 377.5625 C 552.09375 380.671875 553.097656 383.78125 557.160156 384.160156 C 558.3125 384.257812 558.714844 385.210938 558.765625 386.339844 C 558.964844 389.828125 558.390625 393.0625 556.382812 396.074219 C 554.777344 398.457031 552.519531 400.339844 552.117188 403.726562 C 551.917969 405.480469 549.105469 407.039062 547.023438 408.042969 C 543.164062 409.921875 540.804688 412.683594 541.082031 417.222656 C 541.105469 417.597656 541.054688 418.152344 540.804688 418.378906 C 536.742188 422.140625 536.816406 427.859375 534.183594 432.273438 C 533.65625 433.152344 533.203125 434.132812 532.226562 434.457031 C 529.214844 435.484375 528.085938 437.945312 526.957031 440.605469 C 525.378906 444.292969 522.691406 447.730469 522.089844 451.542969 C 520.960938 458.640625 515.542969 459.769531 510.425781 461.976562 C 507.289062 463.332031 505.335938 466.292969 503.203125 468.875 C 502.851562 469.304688 503.351562 469.832031 503.703125 470.15625 C 504.730469 471.132812 505.507812 472.261719 506.160156 473.542969 C 506.890625 475 508.394531 475.046875 509.574219 474.546875 C 512.183594 473.441406 512.910156 475.171875 513.335938 476.953125 C 514.089844 480.191406 514.566406 483.503906 513.1875 486.714844 C 512.433594 488.445312 512.308594 490.050781 513.109375 491.882812 C 514.316406 494.589844 512.859375 497.148438 512.007812 499.683594 C 511.730469 500.511719 511.152344 501.265625 510.703125 502.042969 C 509.273438 504.476562 509.296875 506.15625 512.558594 507.035156 C 515.191406 507.738281 515.894531 510.195312 515.820312 512.578125 C 515.695312 517.042969 516.445312 521.359375 517.375 525.671875 C 517.902344 528.132812 517.300781 530.617188 517.652344 533.125 C 518.050781 536.109375 519.179688 538.542969 521.613281 540.25 C 524.398438 542.207031 527.410156 543.910156 530.117188 545.894531 C 533.230469 548.175781 535.636719 551.589844 535.660156 555.675781 C 535.660156 558.9375 537.042969 561.019531 539.523438 562.527344 C 541.40625 563.65625 540.804688 564.183594 539.324219 564.808594 C 537.59375 565.5625 535.886719 566.363281 533.679688 565.613281 C 535.035156 570.828125 537.59375 574.917969 540.855469 578.457031 C 549.609375 587.988281 558.589844 597.320312 567.394531 606.777344 C 568.875 608.386719 570.453125 609.261719 572.636719 609.0625 C 575.496094 608.785156 577.175781 610.214844 577.980469 612.851562 C 578.304688 613.929688 578.757812 614.632812 580.0625 615.03125 C 583.097656 615.960938 584.878906 621.179688 583.421875 623.988281 C 582.621094 625.570312 582.394531 626.75 583.875 628.480469 C 585.253906 630.085938 585.179688 632.792969 584.878906 634.953125 C 584.351562 638.789062 584.953125 642.226562 586.910156 645.539062 C 587.761719 646.992188 588.339844 648.625 588.890625 650.203125 C 589.644531 652.335938 588.765625 653.714844 586.683594 653.238281 C 584.328125 652.664062 584.300781 654.320312 584.125 655.523438 C 583.824219 657.480469 583.722656 659.460938 583.046875 661.34375 C 582.746094 662.195312 582.996094 662.898438 583.523438 663.574219 C 585.105469 665.707031 585.90625 668.191406 586.535156 670.726562 C 587.6875 675.417969 587.460938 676.269531 583.449219 678.25 C 581.617188 679.15625 580.964844 677.097656 580.664062 676.019531 C 580.136719 674.113281 579.285156 673.359375 577.304688 673.035156 C 574.21875 672.507812 571.757812 670.425781 569.476562 668.46875 C 568.046875 667.214844 566.617188 666.359375 564.859375 665.960938 C 562.027344 665.308594 559.167969 664.804688 556.355469 664.101562 C 554.226562 663.574219 552.46875 664.277344 550.636719 665.257812 C 548.605469 666.335938 546.949219 666.6875 545.496094 663.953125 C 543.738281 660.640625 540.527344 660.140625 537.34375 662.296875 C 536.238281 663.023438 535.285156 663.5 534.054688 662.972656 C 532.175781 662.171875 530.445312 661.316406 528.210938 662.269531 C 526.882812 662.847656 526.503906 661.59375 526.429688 660.289062 C 526.332031 658.683594 525.828125 657.582031 523.796875 658.808594 C 522.515625 659.585938 521.136719 659.511719 519.65625 658.40625 C 517.222656 656.601562 513.9375 656.101562 512.03125 653.390625 C 511.65625 652.863281 511.105469 653.039062 510.5 653.515625 C 507.894531 655.597656 505.109375 656.726562 501.820312 654.84375 C 501.195312 654.496094 500.242188 654.519531 499.464844 654.570312 C 483.835938 655.875 468.207031 654.746094 452.582031 654.972656 C 451.277344 654.996094 450.023438 654.921875 449.59375 653.140625 C 448.816406 649.902344 444.503906 647.996094 441.46875 649.652344 C 439.761719 650.582031 438.207031 650.582031 436.324219 650.480469 C 432.386719 650.28125 428.421875 650.15625 424.433594 650.882812 C 420.921875 651.507812 417.535156 650.003906 414.101562 649.351562 C 408.933594 648.347656 403.839844 648.046875 398.496094 648.773438 C 392.601562 649.601562 386.480469 649 380.484375 649.050781 C 377.777344 649.074219 375.066406 649.175781 372.609375 647.644531 C 372.082031 647.320312 371.203125 647.269531 370.578125 647.421875 C 368.09375 648.023438 365.585938 647.820312 363.078125 647.871094 C 356.929688 648.023438 357.960938 647.320312 356.328125 652.761719 C 355.902344 654.21875 354.898438 654.519531 353.570312 654.519531 C 350.960938 654.496094 348.351562 654.519531 345.742188 654.519531 C 328.484375 654.519531 311.226562 654.46875 293.96875 654.570312 C 290.554688 654.59375 287.796875 653.113281 284.960938 651.660156 C 283.03125 650.65625 282.253906 648.851562 282.679688 646.84375 C 283.757812 641.625 282.578125 636.230469 284.261719 631.0625 C 285.3125 627.828125 285.890625 624.492188 285.890625 621.027344 C 285.890625 618.394531 286.769531 615.886719 288.523438 613.804688 C 289.804688 612.273438 289.828125 610.667969 289.425781 608.734375 C 287.824219 601.136719 284.007812 595.039062 277.636719 590.671875 C 275.230469 589.019531 275.003906 588.039062 277.714844 586.785156 C 277.886719 586.710938 278.015625 586.507812 278.140625 586.359375 C 278.164062 586.257812 278.140625 586.132812 278.140625 585.90625 Z M 278.140625 585.90625 " fill-opacity="1" fill-rule="nonzero"/></g></svg>