<svg xmlns="http://www.w3.org/2000/svg" xmlns:xlink="http://www.w3.org/1999/xlink" width="1080" zoomAndPan="magnify" viewBox="0 0 810 809.999993" height="1080" preserveAspectRatio="xMidYMid meet" version="1.0"><defs><clipPath id="3272b554df"><path d="M 481 610 L 510 610 L 510 637.414062 L 481 637.414062 Z M 481 610 " clip-rule="nonzero"/></clipPath><clipPath id="0e8a51f4cc"><path d="M 128.933594 172.414062 L 680.933594 172.414062 L 680.933594 611 L 128.933594 611 Z M 128.933594 172.414062 " clip-rule="nonzero"/></clipPath></defs><g clip-path="url(#3272b554df)"><path fill="#000000" d="M 493.242188 637.25 L 495.828125 637.027344 L 495.714844 635.117188 L 499.875 634.441406 L 499.539062 633.316406 L 501.671875 630.621094 L 503.132812 630.734375 L 504.371094 630.058594 C 504.371094 630.058594 505.550781 621.292969 508.304688 618.429688 C 510.101562 616.574219 509.765625 616.796875 509.765625 616.796875 L 509.089844 613.933594 L 508.753906 613.257812 L 508.640625 610.785156 L 507.855469 610.675781 L 504.707031 612.246094 L 501.222656 613.035156 L 498.75 613.257812 C 498.75 613.257812 498.976562 613.820312 497.625 614.15625 C 496.277344 614.496094 494.480469 614.605469 494.480469 614.605469 C 494.480469 614.605469 492.90625 614.15625 492.570312 614.15625 C 492.230469 614.15625 491.894531 614.71875 491.894531 614.71875 L 491.894531 615.617188 L 491.109375 616.179688 L 488.296875 615.957031 L 487.285156 616.855469 L 487.511719 617.980469 L 489.085938 617.867188 L 488.074219 619.664062 L 486.726562 620 L 482.230469 623.261719 L 481.667969 624.273438 L 481.890625 625.507812 L 481.667969 626.292969 L 481.441406 627.304688 L 482.117188 630.226562 L 483.015625 632.027344 L 483.015625 633.710938 L 488.746094 636.519531 L 492.34375 636.183594 Z M 493.242188 637.25 " fill-opacity="1" fill-rule="nonzero"/></g><g clip-path="url(#0e8a51f4cc)"><path fill="#000000" d="M 494.761719 606.683594 L 496.839844 608.035156 L 496.335938 609.15625 L 496.726562 610.167969 L 500.941406 610.167969 L 503.132812 608.089844 L 503.132812 607.246094 L 501.277344 605.167969 L 500.546875 603.203125 L 498.917969 602.695312 L 498.300781 600.730469 L 501.730469 597.917969 L 502.964844 597.917969 L 505.324219 595.222656 L 507.683594 595.109375 L 508.695312 593.875 L 511.675781 593.367188 L 512.800781 592.976562 L 514.429688 592.976562 L 516.507812 591.234375 L 516.285156 590.222656 L 519.484375 589.097656 L 523.8125 588.703125 L 524.039062 587.242188 L 526.511719 587.863281 L 528.871094 586.121094 L 530.949219 586.230469 L 530.726562 583.253906 L 531.230469 581.90625 L 533.308594 583.871094 L 534.941406 581.511719 L 534.320312 580.050781 L 535.78125 580.894531 L 536.625 581.007812 L 537.355469 579.996094 L 536.851562 576.679688 L 536.34375 575.21875 L 535.613281 574.488281 L 536.34375 573.367188 L 537.582031 574.152344 L 538.703125 574.039062 L 539.210938 575.667969 L 540.558594 576.625 L 542.246094 576.738281 L 541.628906 578.703125 L 543.257812 578.421875 L 545.5625 579.097656 L 545.28125 578.085938 L 546.292969 577.128906 L 544.660156 575.78125 L 546.742188 575.164062 L 548.257812 576.117188 L 547.976562 573.816406 L 550.226562 572.691406 L 550.5625 574.769531 L 552.527344 574.65625 C 552.527344 574.65625 554.214844 571.566406 555.339844 571.398438 C 556.460938 571.230469 557.640625 571.511719 557.640625 571.511719 L 557.8125 572.859375 L 559.496094 572.691406 C 559.496094 572.691406 559.664062 570.105469 560.113281 570.050781 C 560.566406 569.9375 562.699219 570.835938 562.699219 570.835938 L 564.777344 569.542969 L 566.296875 569.207031 L 567.980469 568.027344 L 570.453125 567.523438 L 570.90625 564.601562 L 572.984375 563.589844 L 572.195312 562.410156 L 571.183594 561.734375 L 574.894531 561.230469 L 576.582031 560.386719 L 575.570312 559.375 L 576.410156 558.195312 L 578.660156 558.082031 L 578.941406 556.285156 L 580.234375 556.285156 L 579.953125 553.8125 L 582.199219 554.488281 L 582.199219 551.84375 L 583.996094 551.84375 C 583.996094 551.84375 585.628906 549.203125 585.910156 549.035156 C 586.1875 548.867188 584.390625 546.734375 584.390625 546.734375 L 584.222656 546.28125 L 585.910156 546.113281 C 585.910156 546.113281 587.988281 544.203125 588.660156 543.867188 C 589.335938 543.53125 591.472656 543.585938 591.472656 543.585938 L 592.820312 541.449219 L 591.695312 540.777344 L 590.855469 539.257812 L 594.28125 539.429688 L 594.617188 538.585938 L 594 537.066406 L 596.585938 534.765625 L 597.597656 534.257812 L 596.078125 532.742188 L 596.078125 531.054688 L 597.539062 530.042969 L 599.058594 530.71875 L 600.40625 531.054688 L 600.292969 530.042969 L 599.453125 528.359375 L 600.460938 526.5625 L 599.84375 525.042969 L 599.957031 523.863281 L 599.171875 522.402344 L 599.789062 520.097656 L 600.742188 518.636719 L 598.269531 516.167969 L 598.609375 514.535156 L 600.574219 514.707031 L 601.082031 515.324219 L 601.753906 513.1875 L 604.003906 511.277344 L 604.339844 509.199219 L 605.519531 507.90625 L 604.566406 507.121094 L 605.914062 507.121094 L 607.597656 504.984375 L 607.429688 501.558594 C 607.429688 501.558594 609.0625 496.78125 609.734375 496.445312 C 610.410156 496.105469 610.523438 495.824219 610.523438 495.824219 L 610.800781 492.734375 L 612.488281 491.894531 L 612.824219 494.644531 C 612.824219 494.644531 614.792969 491.722656 615.804688 491.554688 C 616.816406 491.386719 614.117188 487.171875 614.117188 487.171875 L 615.746094 485.542969 L 615.859375 483.296875 L 617.546875 481.386719 L 616.757812 479.925781 L 617.714844 478.914062 L 616.929688 473.40625 L 615.972656 475.878906 L 614.457031 475.542969 C 614.457031 475.542969 616.757812 470.824219 620.1875 470.316406 L 620.300781 468.800781 L 617.207031 467.339844 C 617.207031 467.339844 615.859375 468.183594 615.691406 468.6875 C 615.523438 469.191406 615.242188 469.8125 615.242188 469.8125 L 613.332031 470.429688 L 609.285156 467.621094 L 606.867188 467.507812 C 606.867188 467.507812 603.945312 470.597656 603.328125 470.484375 C 602.710938 470.371094 598.101562 469.53125 598.101562 469.53125 C 598.101562 469.53125 597.089844 468.742188 597.933594 468.574219 C 598.777344 468.40625 599.453125 467.730469 599.394531 467.453125 C 599.28125 467.171875 603.945312 467 603.945312 467 L 604.394531 465.316406 C 604.394531 465.316406 611.589844 459.921875 612.09375 458.742188 C 612.601562 457.5625 612.769531 455.820312 612.769531 455.820312 C 612.769531 455.820312 611.8125 454.808594 611.308594 454.359375 C 610.800781 453.910156 605.296875 452.28125 604.621094 451.210938 C 603.945312 450.144531 599.113281 449.527344 599.113281 449.527344 L 598.664062 448.179688 L 597.148438 447.898438 L 593.550781 449.246094 L 594.730469 447.449219 L 596.359375 446.605469 L 599.507812 446.886719 C 599.507812 446.886719 600.96875 448.964844 601.753906 448.964844 C 602.542969 448.964844 605.6875 449.246094 606.195312 449.246094 C 606.699219 449.246094 608.160156 450.257812 608.667969 450.371094 C 609.171875 450.484375 611.308594 450.988281 612.09375 450.820312 C 612.882812 450.652344 613.050781 449.808594 612.542969 449.300781 C 612.039062 448.796875 608.5 445.03125 608.5 445.03125 C 608.5 445.03125 605.519531 444.695312 605.519531 444.414062 C 605.519531 444.132812 604.566406 441.269531 604.566406 441.269531 L 599.171875 439.636719 C 599.171875 439.636719 597.820312 438.964844 597.988281 438.683594 C 598.160156 438.402344 598.664062 437.335938 598.496094 436.546875 C 598.328125 435.761719 590.011719 423.792969 589.5625 421.714844 C 589.113281 419.636719 582.707031 418.792969 582.707031 418.792969 L 580.738281 417.78125 L 579.613281 416.488281 L 576.300781 415.8125 L 576.1875 413.171875 L 577.871094 411.824219 L 577.871094 409.578125 L 578.546875 408.285156 L 579.894531 405.308594 L 581.976562 404.351562 L 583.15625 400.8125 L 584.449219 399.632812 L 583.546875 397.890625 L 584.054688 396.933594 L 587.371094 397.722656 L 588.886719 396.429688 L 588.71875 392.722656 L 589.5625 391.089844 L 591.078125 390.8125 L 596.417969 386.765625 L 599.339844 383.507812 L 599.789062 384.011719 L 601.136719 383.898438 L 601.472656 383.394531 L 603.273438 384.6875 L 604.902344 383.394531 L 604.394531 381.597656 L 604.566406 380.246094 L 604.734375 377.269531 L 602.65625 376.652344 L 601.53125 377.605469 L 599.28125 376.933594 L 594.226562 379.011719 L 591.976562 377.324219 L 590.964844 377.773438 L 590.121094 377.324219 L 586.527344 375.359375 L 584.109375 375.976562 L 581.695312 377.886719 L 581.414062 380.359375 L 578.492188 382.496094 L 578.378906 385.136719 L 576.46875 386.765625 L 572.253906 386.765625 L 569.105469 385.472656 L 568.9375 379.628906 L 566.351562 377.664062 C 566.351562 377.664062 565.058594 378.167969 562.644531 375.976562 C 562.644531 375.976562 559.382812 376.765625 558.933594 377.773438 C 558.484375 378.785156 552.417969 372.660156 553.035156 368.28125 C 553.652344 363.898438 557.472656 363.390625 557.472656 363.390625 L 559.722656 364.347656 L 561.855469 362.660156 L 563.992188 362.660156 L 564.667969 362.210938 L 565.679688 362.324219 C 565.679688 362.324219 565.679688 358.613281 566.859375 356.761719 C 568.039062 354.851562 569.613281 353.613281 569.613281 353.613281 L 569.78125 351.703125 L 577.984375 346.308594 L 577.984375 343.5 L 581.074219 339.792969 L 581.246094 338.105469 L 583.378906 336.8125 L 586.132812 336.8125 L 587.820312 335.632812 L 589.503906 335.914062 L 593.886719 339.792969 L 594 340.636719 C 594 340.636719 592.035156 345.972656 591.695312 346.703125 C 591.359375 347.488281 588.15625 349.511719 588.15625 349.511719 L 587.820312 352.320312 L 586.640625 353.503906 L 587.929688 353.953125 L 589.84375 355.242188 L 591.753906 354.90625 C 591.753906 354.90625 591.304688 358.503906 590.964844 358.671875 C 590.628906 358.839844 589.503906 358.953125 588.660156 360.636719 L 587.371094 360.917969 L 587.089844 361.929688 L 586.75 362.546875 L 586.863281 363.335938 L 587.988281 363.953125 L 593.382812 358.894531 C 593.382812 358.894531 595.011719 358.054688 595.96875 355.636719 C 596.921875 353.222656 603.664062 348.164062 603.664062 348.164062 L 605.464844 347.882812 L 605.914062 346.535156 L 608.050781 346.199219 L 608.554688 346.085938 L 609.511719 344.960938 L 613.105469 344.625 L 615.074219 343.445312 L 615.355469 339.847656 C 615.355469 339.847656 619.960938 334.003906 620.46875 333.332031 C 620.972656 332.65625 626.875 328.105469 626.875 328.105469 L 630.976562 321.136719 L 631.3125 316.417969 L 634.574219 314.453125 L 638.339844 317.203125 L 646.992188 315.914062 L 646.710938 313.664062 L 643.789062 310.40625 L 644.292969 308.609375 C 644.292969 308.609375 647.835938 307.820312 648.679688 307.597656 C 649.519531 307.316406 653.117188 304.617188 653.117188 304.617188 L 653.230469 301.191406 L 656.546875 300.179688 L 656.714844 292.707031 L 659.296875 292.425781 L 661.210938 295.179688 L 663.851562 295.683594 L 662.894531 294.167969 L 663.851562 292.480469 L 666.433594 290.796875 L 667.898438 283.660156 L 666.546875 282.367188 L 665.425781 275.792969 L 660.085938 266.355469 L 662.894531 265.230469 L 666.042969 259.21875 L 668.121094 259.835938 L 677.113281 259.386719 L 676.4375 253.878906 L 678.066406 251.96875 L 678.574219 244.664062 L 679.585938 242.53125 L 678.628906 239.214844 L 678.796875 234.945312 L 678.292969 229.214844 L 678.96875 226.796875 L 680.429688 225.503906 L 680.933594 222.359375 L 678.347656 219.71875 L 678.179688 215.839844 L 675.59375 214.550781 C 675.59375 214.550781 671.660156 217.019531 671.660156 217.300781 C 671.660156 217.582031 668.90625 221.066406 668.90625 221.066406 L 666.996094 221.515625 L 664.1875 223.425781 L 662.5 228.035156 L 657.277344 230.449219 L 653.003906 230.730469 L 650.363281 232.078125 L 645.644531 228.371094 L 646.316406 225.28125 L 643.171875 222.132812 L 642.328125 218.371094 L 639.238281 219.382812 L 634.011719 216.292969 L 631.257812 214.605469 L 628.671875 215.785156 C 628.671875 215.785156 624.121094 213.648438 623.894531 213.707031 C 623.613281 213.820312 620.917969 215.671875 620.917969 215.671875 L 616.984375 215.839844 L 613.445312 212.300781 L 612.996094 208.535156 L 610.859375 207.75 L 610.183594 203.648438 L 604.847656 198.253906 L 604.675781 195.613281 L 601.363281 191.679688 L 599.394531 189.433594 L 598.609375 186.003906 L 596.472656 183.363281 L 594.957031 181.679688 L 593.496094 180.5 L 592.203125 178.421875 L 584.558594 174.542969 L 581.75 176.003906 L 571.464844 172.578125 L 567.53125 174.65625 L 560.957031 176.003906 C 560.957031 176.003906 555.5625 179.710938 554.945312 179.769531 C 554.328125 179.882812 551.515625 180.78125 551.515625 180.78125 L 548.59375 185.835938 L 546.910156 187.1875 L 546.796875 189.769531 L 551.742188 189.9375 C 551.742188 189.9375 551.292969 191.398438 553.257812 193.816406 L 552.976562 198.367188 L 549.71875 202.414062 L 544.828125 219.550781 L 546.628906 222.527344 L 545.503906 225.617188 L 541.738281 226.40625 L 537.863281 230.675781 L 535.109375 232.808594 L 530.835938 232.699219 L 525.5 230.617188 L 521.621094 243.375 L 522.128906 244.890625 L 521.003906 246.351562 L 520.328125 251.578125 L 518.417969 253.261719 L 519.597656 256.859375 L 522.519531 258.769531 L 524.320312 256.523438 L 531.289062 255.230469 L 534.996094 256.859375 L 537.414062 252.8125 L 543.144531 251.859375 L 546.683594 254.105469 L 549.269531 254.273438 C 549.269531 254.273438 550.617188 256.859375 552.191406 257.53125 C 553.765625 258.207031 556.070312 259.949219 556.070312 259.949219 L 558.652344 265.0625 L 557.023438 267.367188 L 553.597656 268.320312 L 549.214844 266.972656 L 547.921875 267.984375 L 545.167969 267.367188 L 540.390625 271.578125 L 537.75 270.960938 L 537.242188 273.601562 L 532.859375 274.050781 C 532.859375 274.050781 530.050781 276.355469 529.882812 276.972656 C 529.714844 277.59375 528.421875 279.613281 528.421875 280.570312 C 528.421875 281.523438 528.589844 283.378906 528.589844 283.378906 L 523.8125 288.097656 L 514.992188 289.449219 L 513.980469 292.257812 L 507.292969 298.773438 L 498.132812 298.4375 L 496.335938 296.472656 L 491.109375 296.582031 L 487.847656 305.855469 L 493.75 313.160156 C 493.75 313.160156 491.109375 315.238281 490.433594 316.25 C 489.757812 317.261719 485.714844 318.496094 485.542969 318.722656 C 485.375 319.003906 479.53125 326.867188 479.53125 326.867188 L 471.496094 331.476562 C 471.496094 331.476562 460.707031 332.320312 459.527344 332.601562 C 458.347656 332.882812 456.773438 333.273438 456.773438 333.273438 L 451.828125 332.769531 L 450.535156 334.0625 C 450.535156 334.0625 445.816406 335.183594 445.140625 335.523438 C 444.464844 335.859375 430.8125 343.332031 429.519531 344.625 L 426.707031 344.007812 L 425.078125 341.535156 L 421.3125 342.488281 L 403.5 337.882812 L 400.410156 334.003906 L 384.5625 331.421875 L 376.414062 332.882812 L 367.59375 331.25 L 358.601562 330.746094 L 350.566406 328.5 L 346.183594 322.824219 L 342.867188 312.261719 L 341.179688 311.304688 L 341.179688 308.832031 L 336.910156 307.539062 C 336.910156 307.539062 329.097656 302.203125 328.929688 301.976562 C 328.761719 301.695312 325.222656 298.042969 325.222656 298.042969 L 311.847656 296.414062 L 309.542969 295.796875 L 305.328125 293.660156 L 302.6875 293.15625 L 300.777344 291.191406 L 301.058594 286.976562 L 304.652344 282.425781 L 304.035156 278.546875 C 304.035156 278.546875 305.382812 277.085938 305.382812 276.863281 C 305.382812 276.582031 305.722656 273.601562 305.722656 273.601562 L 302.292969 267.757812 L 301.507812 262.816406 L 298.699219 258.261719 L 297.066406 258.601562 L 294.089844 255.453125 L 292.628906 255.960938 L 289.875 255.847656 L 288.246094 253.207031 L 286.898438 250.058594 L 282.851562 247.585938 L 283.019531 245.675781 L 281.050781 242.417969 L 281.839844 241.40625 L 281.953125 238.765625 L 279.871094 239.777344 L 279.085938 239.664062 L 276.164062 238.484375 L 273.578125 238.992188 L 273.074219 241.40625 L 271.722656 244.496094 L 267.621094 246.578125 L 263.238281 245.789062 L 260.261719 253.320312 C 260.261719 253.320312 260.933594 258.261719 260.597656 259.21875 C 260.261719 260.175781 259.921875 262.140625 259.921875 262.140625 C 259.921875 262.140625 256.609375 262.757812 256.214844 262.984375 C 255.878906 263.265625 252 264.5 252 264.5 C 252 264.5 249.921875 261.523438 249.019531 261.523438 C 248.066406 261.523438 245.257812 261.183594 245.257812 261.183594 L 237.726562 257.082031 L 237.109375 259.21875 C 237.109375 259.21875 232.332031 266.859375 231.601562 268.152344 C 230.925781 269.445312 227.386719 276.1875 227.386719 276.523438 C 227.386719 276.863281 229.972656 278.996094 229.972656 278.996094 L 228.171875 282.144531 L 226.542969 280.851562 L 222.777344 280.738281 L 220.699219 278.097656 L 216.597656 278.773438 L 215.136719 279.222656 L 206.144531 279.109375 L 204.179688 280.90625 L 208.785156 283.324219 L 208.449219 284.335938 L 207.324219 287.257812 L 206.199219 291.300781 C 206.199219 291.300781 207.71875 297.3125 207.71875 297.707031 C 207.71875 298.15625 207.605469 299.167969 207.605469 299.167969 L 207.269531 300.964844 L 207.269531 303.550781 L 204.179688 304.5625 L 203.671875 306.976562 L 200.527344 308.160156 C 200.527344 308.160156 200.636719 310.628906 200.636719 310.96875 C 200.636719 311.304688 199.457031 316.644531 199.457031 316.644531 C 199.457031 316.644531 198.164062 315.351562 196.984375 315.6875 C 195.804688 316.023438 194.679688 317.148438 194.679688 317.148438 C 194.679688 317.148438 189.285156 317.933594 188.5 318.273438 C 187.714844 318.609375 182.429688 319.957031 181.363281 320.40625 C 180.296875 320.855469 177.316406 324.117188 177.316406 324.117188 L 170.910156 323.496094 L 165.851562 321.585938 L 162.3125 325.183594 L 158.996094 328.273438 L 156.582031 327.597656 L 153.265625 327.710938 L 151.804688 323.609375 L 148.828125 324.734375 L 144.78125 323.386719 L 144.667969 324.902344 L 140.058594 326.53125 L 136.015625 325.746094 L 133.878906 328.050781 C 133.878906 328.050781 134.382812 330.296875 133.992188 330.800781 C 133.542969 331.308594 133.371094 332.152344 133.371094 332.152344 L 130.84375 332.710938 L 129.550781 335.296875 L 130.5625 338.105469 L 130.449219 339.0625 L 128.933594 339.679688 L 129.71875 344.625 L 132.699219 343.164062 L 138.375 346.929688 L 136.914062 350.691406 L 137.25 351.984375 C 137.25 351.984375 137.53125 355.242188 137.363281 356.085938 C 137.195312 356.929688 137.082031 362.324219 137.082031 362.324219 L 130.621094 362.210938 L 130.507812 364.289062 C 130.507812 364.289062 133.484375 366.367188 133.824219 366.367188 C 134.160156 366.367188 137.757812 367.042969 137.757812 367.042969 L 138.765625 370.359375 L 141.578125 371.3125 L 142.421875 376.089844 L 141.128906 379.628906 L 143.039062 383.5625 L 145.847656 383.730469 L 149.164062 387.832031 L 157.144531 391.597656 L 159.109375 391.484375 L 168.046875 408.339844 L 164.109375 411.152344 L 162.425781 418.792969 L 165.683594 422.667969 L 164.671875 431.042969 L 159.558594 431.996094 L 158.546875 428.90625 L 156.074219 428.289062 L 155.402344 432.503906 L 156.917969 436.097656 L 156.582031 437.726562 C 156.582031 437.726562 156.695312 440.875 156.46875 441.265625 C 156.300781 441.605469 155.792969 442.390625 155.792969 442.390625 L 155.683594 444.527344 L 162.707031 451.382812 L 165.851562 451.832031 C 165.851562 451.832031 169.28125 457.167969 170.238281 457.84375 C 171.191406 458.515625 176.082031 463.070312 176.8125 465.316406 L 177.261719 465.992188 L 183.160156 462.113281 C 183.160156 462.113281 183.273438 463.628906 183.835938 464.191406 C 184.453125 464.699219 190.859375 469.53125 191.648438 469.921875 C 192.433594 470.371094 193.109375 472.394531 193.445312 472.734375 C 193.78125 473.070312 197.996094 475.878906 198.222656 476.160156 C 198.503906 476.441406 199.234375 480.9375 199.234375 480.9375 L 202.15625 483.410156 L 204.402344 480.316406 L 206.371094 481.777344 L 206.089844 486.835938 L 212.945312 491.386719 L 215.699219 491.050781 C 215.699219 491.050781 215.808594 494.644531 216.316406 495.265625 C 216.820312 495.882812 219.464844 496.21875 219.464844 496.21875 L 223.226562 498.972656 L 224.015625 501.558594 L 225.644531 500.039062 C 225.644531 500.039062 228.117188 502.289062 228.621094 502.34375 C 229.128906 502.457031 230.140625 502.007812 231.09375 501.5 C 232.050781 500.996094 232.105469 501.21875 232.105469 501.21875 L 237.332031 505.828125 L 240.761719 505.210938 C 240.761719 505.210938 242.839844 506.390625 242.558594 506.390625 C 242.277344 506.390625 253.292969 504.253906 253.292969 504.253906 L 255.425781 505.546875 L 255.707031 507.792969 L 254.246094 511.222656 L 254.753906 513.132812 L 255.933594 512.851562 C 255.933594 512.851562 259.867188 508.300781 260.148438 508.242188 C 260.429688 508.132812 263.070312 506.332031 263.292969 506.109375 C 263.574219 505.828125 268.800781 503.46875 268.800781 503.46875 L 272.117188 504.421875 L 275.65625 508.132812 L 282.683594 508.972656 L 286.617188 511.894531 L 292.683594 513.804688 L 314.261719 506.277344 L 349.328125 511.222656 C 349.328125 511.222656 350.507812 510.097656 350.675781 509.703125 C 350.847656 509.253906 352.757812 508.582031 353.09375 508.523438 C 353.429688 508.46875 354.554688 510.042969 355.679688 510.433594 C 356.804688 510.773438 357.589844 511.277344 357.589844 511.277344 L 360.738281 520.378906 L 362.085938 519.257812 L 364.671875 520.886719 L 364.332031 523.132812 L 364.332031 526.5625 L 364.21875 535.886719 L 362.421875 539.484375 L 363.097656 542.070312 L 361.296875 542.855469 L 359.386719 545.441406 L 357.476562 545.890625 L 356.523438 548.304688 L 353.09375 549.652344 L 352.644531 552.125 L 352.195312 553.136719 L 352.53125 554.429688 C 352.53125 554.429688 350.734375 554.542969 350.398438 555.214844 C 350.058594 555.890625 350.117188 558.136719 350.226562 558.757812 C 350.339844 559.375 351.183594 559.769531 351.351562 560.554688 C 351.519531 561.339844 351.800781 562.464844 351.464844 562.859375 C 351.128906 563.25 350.117188 565.105469 350.117188 565.105469 L 350.285156 565.613281 L 350.285156 566.734375 C 350.285156 566.734375 351.464844 566.453125 351.96875 566.230469 C 352.476562 565.949219 354.890625 563.925781 354.890625 563.925781 L 360.566406 563.925781 L 361.523438 564.601562 L 364.671875 564.152344 L 362.703125 566.902344 C 362.703125 566.902344 363.488281 567.914062 363.828125 568.589844 C 364.164062 569.265625 364.949219 574.65625 364.949219 574.65625 L 367.085938 577.128906 L 371.636719 577.242188 L 371.917969 579.039062 L 369.953125 581.960938 L 370.402344 584.773438 L 368.152344 587.019531 L 367.984375 589.097656 L 370.234375 589.941406 L 371.582031 590.109375 C 371.582031 590.109375 376.921875 590.558594 376.921875 591.121094 C 376.921875 591.738281 377.203125 592.917969 377.203125 592.917969 L 376.75 594.378906 C 376.75 594.378906 379.394531 597.527344 379.84375 598.929688 C 380.292969 600.335938 381.753906 597.636719 381.753906 597.636719 L 384.339844 598.59375 L 387.148438 596.289062 L 389.789062 595.671875 C 389.789062 595.671875 390.96875 596.796875 392.429688 601.683594 L 392.765625 602.527344 L 395.578125 601.851562 L 397.992188 602.527344 L 398.613281 596.683594 L 396.027344 589.660156 L 397.710938 586.0625 C 397.710938 586.0625 398.894531 586.851562 401.253906 586.683594 C 403.558594 586.511719 405.128906 585.164062 406.984375 582.75 L 410.242188 584.042969 L 412.042969 586.007812 L 413.390625 585.894531 L 416.988281 581.960938 L 418.617188 584.265625 L 420.304688 581.851562 L 423.898438 585.726562 C 423.898438 585.726562 424.855469 583.140625 425.078125 583.085938 C 425.359375 582.972656 426.597656 581.398438 426.597656 581.398438 L 428.226562 583.03125 C 428.226562 583.03125 433.566406 580.558594 433.957031 580.445312 C 434.40625 580.332031 434.296875 577.691406 434.296875 577.691406 L 439.859375 574.375 C 439.859375 574.375 441.039062 576.175781 442.273438 576.679688 C 443.511719 577.1875 446.828125 578.984375 446.996094 579.320312 C 447.164062 579.660156 449.636719 578.480469 449.636719 578.480469 L 451.714844 580.277344 L 453.683594 579.320312 L 456.996094 580.445312 L 456.996094 582.355469 L 454.863281 583.871094 L 455.144531 586.121094 C 455.144531 586.121094 455.03125 585.78125 455.648438 586.625 C 456.265625 587.46875 456.828125 590.894531 456.828125 590.894531 C 456.828125 590.894531 459.640625 591.515625 460.425781 591.90625 C 461.210938 592.300781 461.886719 593.59375 461.886719 593.59375 C 461.886719 593.59375 465.933594 595.109375 466.15625 595.222656 C 466.4375 595.335938 469.417969 594.605469 470.035156 594.546875 C 470.652344 594.4375 471.945312 595.671875 471.945312 595.671875 L 474.023438 595.167969 L 475.542969 595.277344 C 475.542969 595.277344 475.710938 593.59375 475.992188 593.648438 C 476.273438 593.761719 477.789062 593.3125 477.789062 593.3125 L 477.902344 590.839844 L 479.25 590.335938 L 479.699219 592.246094 L 481.160156 594.15625 L 482.117188 593.367188 L 483.128906 593.988281 L 485.375 594.492188 L 485.714844 596.738281 L 486.835938 595.953125 L 488.636719 595.445312 L 490.097656 594.828125 L 489.816406 593.648438 L 489.816406 592.804688 L 490.265625 592.917969 L 491.894531 594.828125 L 495.152344 595.335938 L 492.90625 599.71875 L 492.738281 601.402344 L 492.625 603.539062 L 493.972656 604.042969 Z M 494.761719 606.683594 " fill-opacity="1" fill-rule="nonzero"/></g></svg>