<svg xmlns="http://www.w3.org/2000/svg" xmlns:xlink="http://www.w3.org/1999/xlink" width="1080" zoomAndPan="magnify" viewBox="0 0 810 809.999993" height="1080" preserveAspectRatio="xMidYMid meet" version="1.0"><defs><clipPath id="19d7a71251"><path d="M 198.109375 126.429688 L 612.109375 126.429688 L 612.109375 683.539062 L 198.109375 683.539062 Z M 198.109375 126.429688 " clip-rule="nonzero"/></clipPath></defs><g clip-path="url(#19d7a71251)"><path fill="#000000" d="M 612.132812 459.777344 L 607.703125 467.445312 C 604.4375 464.230469 601.140625 461.425781 600.25 462.101562 C 598.25 463.554688 586.019531 479.074219 586.019531 479.074219 L 574.378906 467.523438 L 572.570312 480.023438 L 519.398438 480.023438 L 518.375 501.289062 L 536.117188 502.851562 L 544.730469 513 L 539.382812 517.15625 L 528.527344 510.4375 L 523.183594 515.589844 L 510.082031 516.617188 L 508.382812 543.496094 L 528.015625 554.859375 L 529.394531 568.136719 L 536.628906 577.097656 L 536.980469 581.738281 L 531.28125 588.972656 L 530.445312 603.4375 L 531.984375 608.457031 L 526.800781 615.851562 L 527.152344 633.421875 L 524.042969 638.0625 L 522.667969 662.542969 L 518.699219 671.664062 C 518.699219 671.664062 519.238281 679.597656 519.398438 680.625 C 519.5625 681.648438 508.382812 683.539062 508.382812 683.539062 L 510.675781 675.386719 L 505.84375 668.289062 L 492.042969 667.832031 L 491.371094 663.460938 L 513.191406 630.613281 L 495.257812 623.03125 L 484.457031 615.230469 L 469.527344 620.035156 L 457.128906 615.449219 L 440.117188 626.484375 L 429.074219 624.40625 L 409.304688 629.238281 L 407.710938 608.78125 L 394.832031 606.488281 L 394.371094 592.480469 L 368.636719 580.984375 L 361.050781 567.679688 L 335.773438 551.835938 L 320.382812 558.476562 L 304.988281 541.257812 L 294.648438 539.207031 L 289.8125 545.0625 L 274.988281 545.0625 L 270.855469 543.335938 L 256.03125 543.335938 L 252.925781 531.621094 L 219.820312 520.234375 L 205.941406 511.867188 L 198.109375 507.144531 L 205.34375 495.105469 L 215.011719 495.105469 L 210.179688 487.523438 L 218.441406 474.082031 L 238.804688 467.46875 L 262.917969 428.609375 L 252.925781 417.21875 L 257.410156 402.753906 L 248.09375 369.691406 C 248.09375 369.691406 254.652344 361.757812 257.410156 358.4375 C 260.164062 355.121094 251.199219 352.796875 251.199219 352.796875 L 256.707031 335.582031 L 247.066406 327.292969 L 238.804688 317.660156 L 241.558594 297.6875 C 241.558594 297.6875 248.792969 301.820312 250.171875 302.171875 C 251.550781 302.492188 259.8125 284.597656 259.8125 284.597656 L 250.171875 274.585938 L 250.171875 264.601562 L 261.539062 273.210938 L 264.648438 280.445312 L 278.09375 289.753906 L 275.664062 277.339844 L 270.507812 263.222656 L 287.058594 256.339844 L 303.261719 234.292969 C 303.261719 234.292969 316.007812 235.667969 315.65625 234.292969 C 315.332031 232.917969 315.65625 210.867188 315.65625 210.867188 L 319.816406 197.074219 L 336.339844 182.960938 L 350.492188 179.34375 L 353.246094 186.039062 L 360.320312 188.117188 L 363.238281 178.644531 L 371.5 167.441406 L 383.058594 170.546875 L 399.609375 167.957031 L 432.878906 144.882812 L 436.660156 138.511719 L 444.601562 134.03125 C 444.601562 134.03125 453.5625 126.960938 454.238281 126.449219 C 454.941406 125.933594 470.632812 135.21875 473.199219 136.082031 C 475.789062 136.945312 465.796875 147.472656 465.097656 149.011719 C 464.421875 150.578125 446.136719 154.867188 446.136719 154.867188 L 439.09375 163.3125 L 430.992188 170.898438 L 425.640625 172.4375 L 408.578125 198.292969 L 406.847656 218.261719 C 406.847656 218.261719 392.535156 238.9375 392.183594 239.636719 C 391.859375 240.3125 405.28125 235.832031 405.28125 235.832031 L 416.679688 243.578125 L 416.839844 257.53125 L 431.3125 268.40625 L 422.023438 279.578125 C 422.023438 279.578125 423.914062 292.507812 424.777344 292.34375 C 425.640625 292.15625 435.285156 293.882812 435.285156 293.882812 C 435.285156 293.882812 441.332031 306.648438 441.84375 306.648438 C 442.359375 306.648438 457.535156 303.546875 457.535156 303.546875 L 474.25 306.648438 C 474.25 306.648438 479.246094 300.792969 479.757812 300.792969 C 480.273438 300.792969 494.070312 303.546875 494.070312 303.546875 L 509.40625 305.597656 C 509.40625 305.597656 534.25 335.230469 534.902344 335.230469 C 535.441406 335.066406 550.265625 326.96875 550.265625 326.96875 L 565.253906 330.75 L 576.269531 326.265625 L 586.800781 326.617188 L 594.714844 323.515625 L 601.949219 336.957031 L 594.714844 341.597656 L 594.390625 351.070312 L 582.667969 360.894531 L 587.476562 389.152344 L 602.140625 419.460938 L 587.476562 441.695312 L 612.132812 459.777344 " fill-opacity="1" fill-rule="nonzero"/></g></svg>