<svg xmlns="http://www.w3.org/2000/svg" xmlns:xlink="http://www.w3.org/1999/xlink" width="1080" zoomAndPan="magnify" viewBox="0 0 810 809.999993" height="1080" preserveAspectRatio="xMidYMid meet" version="1.0"><defs><clipPath id="bc17cc1657"><path d="M 374 175.445312 L 581 175.445312 L 581 310 L 374 310 Z M 374 175.445312 " clip-rule="nonzero"/></clipPath><clipPath id="4546dc74ab"><path d="M 558.695312 251.5625 L 621.839844 251.5625 L 621.839844 301.378906 L 558.695312 301.378906 Z M 558.695312 251.5625 " clip-rule="nonzero"/></clipPath><clipPath id="23a94374a0"><path d="M 188.355469 608 L 196 608 L 196 615 L 188.355469 615 Z M 188.355469 608 " clip-rule="nonzero"/></clipPath><clipPath id="08c10d21a3"><path d="M 322.191406 627.085938 L 327.980469 627.085938 L 327.980469 634.441406 L 322.191406 634.441406 Z M 322.191406 627.085938 " clip-rule="nonzero"/></clipPath></defs><g clip-path="url(#bc17cc1657)"><path fill="#1a1a1a" d="M 559.613281 267.492188 C 560.589844 267.027344 562.089844 266.542969 562.859375 266.964844 C 565.199219 268.246094 567.066406 267.242188 567.417969 265.382812 C 567.761719 263.546875 567.09375 261.070312 565.976562 259.527344 C 564.886719 258.027344 562.867188 257.203125 560.878906 255.960938 C 560.667969 255.832031 560.660156 255.53125 560.855469 255.386719 C 562.328125 254.316406 563.503906 253.472656 564.667969 252.605469 C 567.402344 250.5625 567.855469 247.832031 565.808594 245.359375 C 563.792969 242.925781 561.113281 243.515625 558.820312 245.441406 C 558.042969 246.097656 557.300781 246.789062 556.605469 247.445312 C 556.328125 247.707031 555.890625 247.390625 556.058594 247.046875 C 558.839844 241.195312 561.734375 235.402344 564.164062 229.417969 C 564.742188 227.996094 563.632812 225.886719 563.160156 224.039062 C 563.113281 223.855469 562.929688 223.746094 562.742188 223.789062 C 560.722656 224.277344 558.597656 224.542969 556.761719 225.410156 C 554.5625 226.453125 552.78125 228.378906 550.585938 229.429688 C 542.40625 233.347656 536.921875 239.757812 532.710938 247.585938 C 530.617188 251.480469 528.777344 256.226562 525.410156 258.550781 C 520.765625 261.757812 514.878906 263.167969 509.34375 265.339844 C 509.136719 265.421875 508.910156 265.289062 508.875 265.070312 C 507.832031 258.039062 509.710938 254.238281 515.089844 250.824219 C 516.101562 250.183594 516.683594 248.726562 517.246094 247.542969 C 518.730469 244.410156 519.316406 240.347656 521.679688 238.238281 C 525.984375 234.398438 531.335938 231.730469 536.195312 228.492188 C 537.28125 227.769531 538.460938 226.875 539.050781 225.769531 C 543.191406 218 547.1875 210.152344 551.230469 202.332031 C 551.898438 201.042969 552.25 199.289062 553.304688 198.550781 C 560.253906 193.675781 567.269531 188.878906 574.453125 184.363281 C 577.691406 182.324219 581.332031 180.929688 580.894531 175.777344 C 580.878906 175.585938 580.710938 175.445312 580.523438 175.460938 C 568.40625 176.402344 558.695312 182.445312 548.765625 187.714844 C 548.71875 187.738281 548.664062 187.753906 548.613281 187.753906 C 546.765625 187.800781 544.957031 188.152344 543.132812 188.402344 C 541.734375 188.59375 540.285156 188.890625 538.910156 188.71875 C 536.585938 188.429688 534.1875 187.117188 532.03125 187.484375 C 528.628906 188.0625 526.03125 187.789062 523.546875 185.183594 C 522.664062 184.257812 520.378906 183.648438 519.371094 184.160156 C 518.316406 184.691406 517.226562 187.023438 517.589844 188.0625 C 518.125 189.578125 519.589844 190.765625 520.5625 191.765625 C 520.714844 191.921875 520.6875 192.171875 520.507812 192.292969 C 519.734375 192.8125 518.277344 194.144531 516.535156 191.800781 C 516.195312 191.34375 513.488281 192.046875 512.386719 192.882812 C 510.386719 194.394531 508.929688 197.738281 506.972656 197.964844 C 501.664062 198.574219 498.054688 200.625 495.6875 205.429688 C 494.925781 206.972656 493.347656 208.117188 492.179688 209.21875 C 492 209.386719 491.710938 209.3125 491.621094 209.085938 C 490.300781 205.765625 486.539062 207.828125 483.71875 207.640625 C 482.710938 207.574219 481.617188 208.800781 480.550781 209.59375 C 480.394531 209.710938 480.359375 209.929688 480.476562 210.085938 C 481.796875 211.804688 483.117188 213.527344 484.503906 215.332031 C 484.601562 215.464844 484.597656 215.648438 484.488281 215.773438 C 480.273438 220.550781 480.113281 220.59375 472.574219 219.644531 C 472.410156 219.625 472.28125 219.484375 472.273438 219.316406 C 472.199219 217.726562 472.527344 215.75 471.761719 215.136719 C 470.734375 214.308594 468.46875 214.222656 467.191406 214.804688 C 466.4375 215.144531 466.617188 217.421875 466.261719 218.796875 C 466.152344 219.234375 465.953125 219.644531 465.796875 219.941406 C 465.679688 220.152344 465.390625 220.191406 465.230469 220.007812 C 463.855469 218.457031 462.808594 216.777344 461.308594 216.09375 C 460.328125 215.648438 458.691406 216.640625 456.71875 217.3125 C 456.492188 217.390625 456.410156 217.667969 456.5625 217.855469 C 458.207031 219.894531 459.410156 221.382812 460.695312 222.96875 C 460.851562 223.167969 460.753906 223.460938 460.507812 223.523438 C 458.640625 223.972656 456.714844 224.433594 454.777344 224.898438 C 454.464844 224.976562 454.226562 224.617188 454.417969 224.359375 C 454.421875 224.355469 454.421875 224.351562 454.425781 224.347656 C 454.519531 224.21875 454.515625 224.042969 454.410156 223.921875 C 453.429688 222.769531 452.1875 220.832031 451.660156 221.007812 C 450.046875 221.554688 447.457031 223.207031 447.5625 224.171875 C 448.113281 229.214844 445.199219 229.621094 441.5 229.679688 C 437.316406 229.742188 432.929688 227.902344 429.425781 232.570312 C 427.925781 234.570312 426.460938 235.734375 428.117188 237.851562 C 428.246094 238.019531 428.191406 238.269531 428 238.367188 C 419.589844 242.726562 419.472656 242.847656 416.597656 248.433594 C 416.550781 248.527344 416.457031 248.597656 416.355469 248.617188 C 409.273438 249.90625 405.648438 255.300781 401.203125 258.972656 C 401.128906 259.035156 401.035156 259.0625 400.941406 259.050781 C 397.808594 258.671875 394.570312 258.3125 391.34375 257.859375 C 390.832031 257.789062 390.230469 257.386719 389.925781 256.957031 C 387.730469 253.867188 384.910156 255.082031 382.652344 256.371094 C 381.332031 257.121094 379.789062 259.628906 380.164062 260.710938 C 380.71875 262.296875 382.503906 263.453125 383.546875 264.351562 C 383.707031 264.492188 383.703125 264.742188 383.539062 264.878906 C 381.265625 266.757812 378.453125 268.953125 375.832031 271.359375 C 373.363281 273.625 374.179688 279.808594 377.222656 283.003906 C 380.046875 285.980469 383.035156 284.445312 385.847656 282.464844 C 386.644531 281.90625 387.917969 281.238281 388.625 281.511719 C 390.109375 282.082031 391.410156 283.128906 392.761719 284.035156 C 392.9375 284.152344 392.96875 284.398438 392.828125 284.554688 C 392.011719 285.460938 391.199219 286.375 390.363281 287.265625 C 389.566406 288.109375 387.898438 289.296875 388.070312 289.679688 C 388.648438 290.960938 389.8125 292.832031 390.867188 292.910156 C 397.203125 293.375 400.398438 297.042969 402.03125 302.703125 C 402.308594 303.667969 402.738281 304.632812 403.285156 305.476562 C 405.492188 308.847656 410.6875 310.875 414.042969 308.871094 C 416.355469 307.492188 418.730469 304.855469 419.265625 302.390625 C 419.566406 300.988281 419.292969 299.234375 420.128906 297.601562 C 420.445312 296.984375 420.339844 296.152344 420.261719 295.789062 C 420.234375 295.671875 420.277344 295.550781 420.363281 295.464844 C 422.503906 293.445312 423.949219 291.824219 425.671875 290.582031 C 427.039062 289.597656 429 288.226562 430.289062 288.570312 C 434.28125 289.632812 439.421875 290.359375 441.660156 293.171875 C 446.007812 298.632812 448.085938 295.722656 450.882812 292.40625 C 451.058594 292.199219 451.398438 292.144531 451.632812 291.972656 C 452.9375 291.019531 454.238281 290.054688 455.539062 289.09375 C 455.726562 288.953125 455.726562 288.675781 455.535156 288.539062 C 454.148438 287.523438 452.769531 286.492188 451.351562 285.515625 C 451.015625 285.285156 450.597656 285.179688 450.183594 285.050781 C 450.011719 284.996094 449.910156 284.816406 449.953125 284.640625 C 451.085938 280.140625 453.429688 277.367188 458.265625 277.285156 C 458.886719 277.273438 459.6875 276.796875 460.074219 276.285156 C 462.535156 273.058594 464.933594 269.78125 467.285156 266.480469 C 469.5 263.371094 475.71875 261.371094 479.257812 262.789062 C 482.023438 263.898438 484.75 265.105469 488.347656 266.644531 C 488.609375 266.753906 488.632812 267.117188 488.386719 267.257812 C 486.78125 268.1875 485.589844 268.710938 484.714844 269.554688 C 483.082031 271.132812 481.285156 272.773438 480.328125 274.757812 C 479.316406 276.84375 481.816406 279.613281 483.828125 279.007812 C 487.199219 277.996094 490.496094 276.730469 493.886719 275.804688 C 495.269531 275.425781 497.289062 275.027344 498.203125 275.71875 C 501.511719 278.21875 504.476562 276.316406 507.546875 275.566406 C 510.539062 274.835938 513.417969 273.226562 516.5625 275.417969 C 517.125 275.808594 518.726562 275.035156 519.675781 274.492188 C 525.558594 271.125 531.332031 267.554688 537.269531 264.285156 C 540.96875 262.246094 550.03125 263.214844 552.480469 266.363281 C 554.855469 269.410156 556.914062 268.78125 559.613281 267.492188 " fill-opacity="1" fill-rule="nonzero"/></g><path fill="#1a1a1a" d="M 402.914062 439.199219 C 402.0625 438.105469 401.554688 436.6875 401.121094 435.34375 C 400.660156 433.917969 400.472656 432.40625 400.058594 430.421875 C 400.804688 428.992188 403.46875 426.273438 403.089844 424.078125 C 402.394531 420.035156 400.695312 415.570312 397.964844 412.625 C 394.964844 409.390625 394.398438 407.121094 396.09375 403.148438 C 399.007812 396.324219 398.003906 395 391.480469 391.765625 C 388.652344 390.359375 386.449219 387.734375 383.835938 385.835938 C 382.277344 384.707031 380.5625 383.359375 378.765625 383.078125 C 371.726562 381.988281 366.035156 379.363281 363.238281 372.21875 C 361.375 367.464844 357.117188 366.308594 352.597656 368.976562 C 351.507812 369.621094 350.304688 370.070312 349.152344 370.609375 C 348.875 370.171875 348.597656 369.734375 348.320312 369.296875 C 349.613281 368.171875 351.023438 367.148438 352.160156 365.882812 C 352.960938 364.988281 354.164062 363.1875 353.859375 362.773438 C 351.410156 359.453125 348.914062 356.050781 345.796875 353.425781 C 344.984375 352.742188 341.925781 354.722656 339.902344 355.476562 C 339.394531 353.605469 341.054688 350.394531 337.59375 350.390625 C 336.074219 350.386719 334.550781 352.347656 333.027344 353.417969 C 334.734375 354.382812 336.4375 355.347656 338.144531 356.3125 C 336.363281 357.089844 334.542969 357.789062 332.8125 358.667969 C 331.175781 359.496094 329.671875 359.398438 327.835938 359.375 C 324.304688 359.324219 319.480469 359.921875 317.460938 362.230469 C 312.90625 367.4375 308.746094 369.398438 302.441406 367.085938 C 300.722656 366.457031 298.574219 366.992188 296.582031 366.992188 C 296.007812 361.882812 294.886719 361.253906 290.636719 364.550781 C 287.691406 366.832031 285.199219 369.703125 282.664062 372.160156 C 280.398438 372.492188 277.738281 372.851562 275.089844 373.277344 C 273.675781 373.5 272.277344 374.078125 270.875 374.066406 C 268.273438 374.042969 267.269531 374.707031 265.992188 377.511719 C 264.527344 380.722656 260.53125 382.777344 257.636719 385.335938 C 253.882812 382.230469 254.085938 386.347656 253.34375 387.917969 C 252.71875 389.25 252.945312 390.972656 252.898438 391.457031 C 250.953125 392.46875 248.871094 393.015625 248.84375 393.648438 C 248.613281 398.769531 244.683594 400.753906 241.222656 403.054688 C 238.167969 405.085938 236.78125 409.738281 239.433594 410.816406 C 243.921875 412.636719 244.332031 416.328125 245.589844 419.953125 C 238.171875 420.550781 238.289062 420.566406 237.046875 428.144531 C 236.476562 431.632812 233.75 433.414062 230.472656 433.394531 C 226.992188 433.375 224.980469 435.285156 224.324219 437.972656 C 223.300781 442.171875 225.324219 446.78125 223.003906 450.953125 C 222.878906 451.175781 223.265625 451.753906 223.507812 452.097656 C 225.007812 454.230469 226.546875 456.335938 228.042969 458.46875 C 229.308594 460.269531 231.261719 461.957031 231.640625 463.9375 C 232.6875 469.402344 236.363281 472.761719 241.890625 473.347656 C 244.492188 473.621094 246.953125 475.246094 249.480469 476.253906 C 250.683594 476.730469 251.867188 477.46875 253.113281 477.609375 C 261.941406 478.582031 270.851562 479.03125 279.605469 480.4375 C 286.695312 481.574219 293.667969 483.617188 300.585938 485.617188 C 306.105469 487.210938 311.425781 489.527344 317.25 486.800781 C 318.238281 486.335938 319.570312 486.617188 320.738281 486.511719 C 323.542969 486.253906 326.347656 485.984375 329.148438 485.695312 C 332.207031 485.378906 335.3125 484.523438 338.300781 484.828125 C 342.117188 485.21875 345.28125 485.46875 347.410156 481.398438 C 348.363281 479.574219 350.007812 477.800781 351.785156 476.777344 C 357.441406 473.527344 364.109375 471.609375 365.734375 465.933594 C 370.21875 464.714844 373.5625 463.804688 376.503906 463.003906 C 377.277344 464.753906 377.8125 467.75 378.8125 467.917969 C 383.207031 468.644531 385.804688 465.820312 387.429688 461.804688 C 387.65625 462.851562 387.378906 463.695312 387.527344 464.457031 C 387.71875 465.445312 388.042969 466.558594 388.699219 467.25 C 389.132812 467.703125 390.734375 467.871094 390.988281 467.539062 C 392.703125 465.296875 394.828125 465.855469 397.132812 465.996094 C 398.304688 466.0625 399.742188 464.988281 400.738281 464.078125 C 403.125 461.890625 405.167969 459.3125 407.632812 457.230469 C 411.308594 454.132812 412.027344 449.832031 409.050781 446.324219 C 407.023438 443.933594 404.839844 441.667969 402.914062 439.199219 " fill-opacity="1" fill-rule="nonzero"/><path fill="#1a1a1a" d="M 391.640625 575.496094 C 391.640625 575.496094 391.640625 575.496094 391.640625 575.5 C 391.640625 575.5 391.632812 575.488281 391.621094 575.476562 L 391.503906 575.355469 C 391.503906 575.359375 391.503906 575.359375 391.503906 575.359375 C 391.503906 575.355469 391.496094 575.351562 391.496094 575.347656 C 397.546875 573.617188 399.753906 568.265625 396.78125 563.820312 C 395.023438 561.1875 392.667969 560.261719 390.5625 561.371094 C 388.394531 562.515625 386.351562 564.957031 385.589844 567.265625 C 385.175781 568.527344 387.441406 570.765625 388.671875 572.433594 C 389.472656 573.523438 390.550781 574.410156 391.519531 575.375 C 391.542969 575.410156 391.566406 575.4375 391.589844 575.472656 C 391.605469 575.480469 391.625 575.488281 391.640625 575.5 L 391.640625 575.496094 " fill-opacity="1" fill-rule="nonzero"/><path fill="#1a1a1a" d="M 391.710938 575.636719 C 391.632812 575.527344 391.527344 575.4375 391.410156 575.378906 C 387.988281 573.710938 383.894531 575.496094 380.492188 573.054688 C 376.085938 569.890625 371.757812 570.417969 367.378906 573.828125 C 365.320312 575.429688 362.421875 576.019531 359.839844 576.871094 C 357.273438 577.71875 353.921875 577.574219 352.191406 579.210938 C 350.042969 581.25 349.1875 584.640625 347.78125 587.460938 C 347.765625 587.5 347.75 587.535156 347.738281 587.574219 C 347.394531 588.597656 345.640625 589 345.277344 589.9375 C 344.015625 593.214844 341.550781 593.101562 338.8125 593.082031 C 337.285156 593.074219 335.546875 593.25 334.269531 593.976562 C 331.359375 595.640625 328.769531 597.851562 325.878906 599.550781 C 322.449219 601.558594 321.847656 604.4375 325.097656 606.65625 C 327.273438 608.140625 330.058594 609.386719 332.628906 609.503906 C 337.058594 609.703125 341.53125 609.0625 346.003906 608.71875 C 346.386719 608.6875 346.703125 608.410156 346.777344 608.03125 C 346.832031 607.765625 346.882812 607.523438 346.925781 607.277344 C 346.925781 607.273438 346.925781 607.269531 346.925781 607.261719 C 347.023438 606.707031 347.617188 606.394531 348.128906 606.628906 C 349.710938 607.355469 351.253906 608.28125 352.582031 608.039062 C 357.898438 607.070312 359.179688 602.542969 355.378906 598.421875 C 353.519531 596.410156 354.101562 594.988281 355.859375 593.8125 C 359.203125 591.589844 362.675781 589.558594 366.554688 587.191406 C 367.007812 586.917969 367.59375 587.109375 367.796875 587.597656 C 368.128906 588.398438 368.484375 589.242188 368.429688 590.054688 C 368.199219 593.421875 369.535156 594.289062 372.640625 593.398438 C 374.015625 593.007812 375.511719 592.882812 376.953125 592.894531 C 381.839844 592.921875 384.730469 587.265625 390.003906 588.359375 C 390.324219 588.425781 390.878906 587.628906 391.242188 587.167969 C 395.566406 581.726562 395.652344 580.921875 391.710938 575.636719 " fill-opacity="1" fill-rule="nonzero"/><g clip-path="url(#4546dc74ab)"><path fill="#1a1a1a" d="M 617.339844 255.96875 C 612.894531 256.683594 608.414062 257.230469 604.007812 258.132812 C 603.101562 258.320312 602.28125 259.671875 601.742188 260.660156 C 601.300781 261.460938 601.332031 262.519531 601.15625 263.464844 C 600.050781 262.898438 598.585938 262.59375 597.921875 261.699219 C 597.027344 260.484375 596.878906 258.75 596.167969 257.359375 C 595.132812 255.324219 594.292969 252.445312 592.597656 251.714844 C 591.191406 251.113281 588.574219 252.921875 586.679688 253.992188 C 585.589844 254.613281 584.878906 255.898438 583.984375 256.871094 C 581.554688 259.503906 579.574219 262.980469 576.585938 264.578125 C 571.21875 267.445312 569.175781 271.828125 567.816406 277.246094 C 567.324219 279.195312 565.738281 281.15625 564.136719 282.496094 C 558.941406 286.832031 556.992188 291.4375 560.71875 297.890625 C 562.707031 301.332031 564.222656 302.453125 567.433594 300.132812 C 572.511719 296.457031 578.507812 294.460938 582.742188 289.0625 C 586.816406 283.871094 592.996094 280.421875 595.457031 273.664062 C 596.355469 271.199219 598.402344 269.15625 599.972656 266.839844 C 603.28125 271.144531 607.242188 271.527344 611.15625 268.253906 C 611.996094 267.554688 613.242188 266.660156 614.132812 266.8125 C 619.535156 267.734375 620.898438 264.382812 621.714844 260.183594 C 622.324219 257.054688 620.667969 255.433594 617.339844 255.96875 " fill-opacity="1" fill-rule="nonzero"/></g><path fill="#1a1a1a" d="M 227.398438 324.054688 C 228.117188 323.894531 228.550781 322.042969 228.941406 320.894531 C 229.398438 319.539062 229.761719 318.152344 230.03125 317.136719 C 230.140625 316.738281 230.527344 316.480469 230.9375 316.535156 C 232.855469 316.792969 234.390625 317 236.023438 317.21875 C 236.539062 317.289062 236.988281 316.867188 236.953125 316.351562 C 236.699219 312.53125 236.253906 309.085938 240.304688 307.574219 C 244.183594 306.125 246.070312 304.097656 243.8125 300.335938 C 243.449219 299.730469 243.976562 298.984375 244.671875 299.109375 C 250.65625 300.195312 247.621094 294.550781 249.40625 292.675781 C 251.226562 290.855469 253.046875 289.039062 255.269531 286.820312 C 255.285156 286.804688 255.300781 286.789062 255.316406 286.777344 C 256.5625 285.703125 258.519531 284.4375 259.867188 282.699219 C 261.019531 281.210938 261.753906 279.226562 262.125 277.355469 C 262.4375 275.777344 262.296875 273.914062 261.707031 272.433594 C 261.363281 271.578125 259.652344 270.671875 258.703125 270.808594 C 257.644531 270.960938 256.136719 272.113281 255.890625 273.101562 C 254.628906 278.109375 251.628906 281.519531 247.765625 284.882812 C 245.445312 286.902344 244.460938 290.40625 240.566406 290.496094 C 240.375 290.5 240.070312 290.902344 240.027344 291.152344 C 238.9375 297.515625 229.996094 300.667969 232.855469 308.640625 C 232.863281 308.65625 232.847656 308.679688 232.816406 308.707031 C 232.5625 308.949219 232.175781 308.988281 231.867188 308.816406 C 230.816406 308.234375 229.667969 307.601562 228.175781 306.773438 C 227.757812 306.542969 227.230469 306.71875 227.03125 307.15625 C 226.132812 309.105469 225.121094 310.851562 224.816406 312.710938 C 224.464844 314.867188 225.703125 317.183594 223.171875 319 C 222.542969 319.453125 222.726562 322.132812 223.457031 323.058594 C 224.15625 323.941406 226.160156 324.328125 227.398438 324.054688 " fill-opacity="1" fill-rule="nonzero"/><path fill="#1a1a1a" d="M 422.332031 413.628906 C 421.480469 410.125 422.800781 408.453125 425.882812 407.652344 C 429.332031 406.761719 431.167969 404.351562 431.089844 401.078125 C 431.015625 397.972656 430.464844 394.714844 429.335938 391.832031 C 427.296875 386.644531 424.691406 385.652344 419.820312 387.359375 C 415.871094 388.746094 412.933594 393.835938 413.941406 397.664062 C 414.597656 400.164062 415.371094 402.628906 416.199219 405.46875 C 412.46875 406.519531 410.164062 410.417969 411.242188 413.625 C 412.417969 417.125 416.78125 419.53125 420.058594 417.941406 C 421.289062 417.347656 422.628906 414.863281 422.332031 413.628906 " fill-opacity="1" fill-rule="nonzero"/><path fill="#1a1a1a" d="M 492.238281 428.496094 C 491.742188 428.246094 491.109375 428.253906 490.535156 428.191406 C 483.707031 427.425781 476.160156 437.6875 478.855469 444.070312 C 480.320312 447.542969 483.015625 447.660156 486.761719 443.050781 C 488.046875 446.789062 488.589844 449.753906 490.03125 452.179688 C 491.386719 454.453125 493.488281 457.335938 495.65625 457.722656 C 497.214844 457.996094 500.191406 454.949219 501.1875 452.773438 C 503.535156 447.636719 497.027344 430.890625 492.238281 428.496094 " fill-opacity="1" fill-rule="nonzero"/><path fill="#1a1a1a" d="M 504.773438 335.035156 C 504 333.695312 502.683594 331.929688 501.453125 331.785156 C 499.878906 331.601562 497.371094 332.398438 496.625 333.609375 C 495.15625 335.984375 493.945312 338.914062 493.84375 341.660156 C 493.675781 346.132812 494.003906 350.625 494.300781 355.667969 C 494.414062 357.597656 496.574219 358.699219 498.199219 357.640625 C 498.765625 357.273438 499.234375 356.925781 499.648438 356.519531 C 505.8125 350.449219 509.816406 343.75 504.773438 335.035156 " fill-opacity="1" fill-rule="nonzero"/><path fill="#1a1a1a" d="M 405.410156 248.765625 C 406.894531 248.742188 408.453125 248.320312 409.816406 247.699219 C 410.757812 247.265625 411.4375 245.5625 412.203125 245.585938 C 417.9375 245.753906 418.429688 240.207031 421.332031 237.371094 C 422.765625 235.96875 423.402344 233.753906 424.957031 230.878906 C 423.347656 230.082031 421.511719 228.589844 420.917969 228.980469 C 418.640625 230.46875 415.90625 232.230469 414.992188 234.539062 C 414.136719 236.707031 413.113281 237.664062 411.257812 238.5 C 410.449219 238.867188 409.910156 239.820312 409.230469 240.496094 C 408.386719 241.335938 407.476562 242.117188 406.691406 243.007812 C 405.707031 244.121094 404.59375 245.214844 404.007812 246.527344 C 403.789062 247.007812 404.914062 248.769531 405.410156 248.765625 " fill-opacity="1" fill-rule="nonzero"/><path fill="#1a1a1a" d="M 575.300781 508.109375 C 570.917969 509.34375 566.628906 511.066406 562.550781 513.101562 C 561.628906 513.558594 560.875 516.773438 561.476562 517.445312 C 564.066406 520.347656 566.972656 522.96875 570.035156 525.808594 C 571.050781 526.75 572.664062 526.558594 573.433594 525.410156 C 575.0625 522.972656 576.546875 520.644531 575.800781 517.632812 C 575.539062 516.570312 576.113281 515.457031 577.136719 515.066406 C 577.144531 515.066406 577.152344 515.0625 577.160156 515.0625 C 579.589844 514.152344 581.054688 512.246094 579.96875 510.007812 C 579.398438 508.832031 576.640625 507.730469 575.300781 508.109375 " fill-opacity="1" fill-rule="nonzero"/><path fill="#1a1a1a" d="M 224.777344 333.933594 C 225.878906 332.347656 226.699219 330.285156 226.734375 328.410156 C 226.746094 327.761719 223.941406 326.347656 222.597656 326.535156 C 220.09375 326.882812 217.679688 327.90625 215.347656 328.71875 C 214.824219 328.898438 214.375 329.25 214.070312 329.714844 C 212.808594 331.65625 211.484375 333.691406 210.03125 335.921875 C 209.164062 337.261719 209.753906 339.0625 211.25 339.621094 C 211.664062 339.78125 212.070312 339.929688 212.472656 340.082031 L 212.46875 340.089844 C 212.472656 340.085938 212.410156 340.148438 212.371094 340.191406 L 212.335938 340.226562 C 212.34375 340.226562 212.351562 340.230469 212.359375 340.234375 C 212.363281 340.226562 212.367188 340.222656 212.371094 340.21875 C 213.828125 339.945312 215.324219 339.792969 216.734375 339.355469 C 218.039062 338.949219 219.347656 338.390625 220.46875 337.621094 C 222.027344 336.546875 223.734375 335.441406 224.777344 333.933594 " fill-opacity="1" fill-rule="nonzero"/><path fill="#1a1a1a" d="M 569.492188 228.796875 C 569.496094 228.800781 569.5 228.804688 569.503906 228.804688 C 569.78125 228.9375 569.921875 229.253906 569.835938 229.546875 C 568.320312 234.570312 573.238281 234.550781 575.363281 235.09375 C 578.09375 235.792969 581.589844 234.660156 584.351562 233.414062 C 585.253906 233.007812 584.871094 229.78125 585.109375 227.851562 C 585.207031 227.078125 585.328125 226.300781 585.542969 225.554688 C 586.101562 223.644531 586.976562 221.789062 587.246094 219.84375 C 587.675781 216.761719 585.65625 215.40625 582.941406 216.941406 C 579.765625 218.734375 576.574219 220.582031 573.714844 222.816406 C 571.980469 224.167969 570.695312 226.085938 569.277344 227.839844 C 569.023438 228.15625 569.128906 228.625 569.492188 228.796875 " fill-opacity="1" fill-rule="nonzero"/><path fill="#1a1a1a" d="M 283 522.679688 C 282.464844 521.277344 281.695312 519.964844 280.898438 518.664062 C 280.132812 517.402344 278.507812 516.976562 277.21875 517.691406 C 275.820312 518.464844 274.457031 519.269531 273.597656 520.441406 C 271.304688 523.570312 278.238281 535.195312 282.128906 535.253906 C 285.664062 535.304688 286.316406 534.074219 285.074219 530.539062 C 284.179688 527.988281 283.957031 525.199219 283 522.679688 " fill-opacity="1" fill-rule="nonzero"/><path fill="#1a1a1a" d="M 610.878906 557.472656 C 608.929688 557.046875 606.882812 556.636719 604.9375 556.824219 C 603.988281 556.917969 603.121094 557.835938 602.234375 558.582031 C 601.945312 558.828125 601.886719 559.25 602.109375 559.558594 C 602.742188 560.445312 603.347656 561.359375 604.109375 562.117188 C 605.5625 563.5625 607.136719 564.882812 608.675781 566.242188 C 608.90625 566.441406 608.980469 566.769531 608.867188 567.054688 C 608.863281 567.058594 608.863281 567.0625 608.859375 567.066406 C 608.683594 567.507812 608.96875 568.003906 609.445312 568.054688 C 612.808594 568.421875 614.617188 566.003906 615.285156 563.273438 C 616 560.347656 613.929688 558.140625 610.878906 557.472656 " fill-opacity="1" fill-rule="nonzero"/><path fill="#1a1a1a" d="M 509.871094 410.152344 C 510.601562 407.175781 509.566406 405.433594 506.6875 404.722656 C 503.492188 403.933594 500.046875 403.359375 498.101562 406.707031 C 496.257812 409.882812 502.019531 420.089844 505.070312 419.394531 C 509.117188 418.835938 510.644531 417.511719 509.9375 414.253906 C 509.652344 412.9375 509.554688 411.441406 509.871094 410.152344 " fill-opacity="1" fill-rule="nonzero"/><path fill="#1a1a1a" d="M 338.699219 507.839844 C 339.648438 508.40625 340.84375 508.367188 341.753906 507.738281 C 344.402344 505.910156 346.898438 504.277344 349.089844 502.3125 C 349.785156 501.6875 349.761719 498.925781 349.0625 498.335938 C 346.917969 496.519531 344.386719 494.363281 341.8125 494.074219 C 339.121094 493.769531 337.445312 496.429688 337.28125 499.453125 C 337.246094 500.09375 336.574219 500.679688 336.367188 501.34375 C 335.957031 502.691406 334.960938 504.511719 335.480469 505.347656 C 336.097656 506.351562 337.289062 507 338.699219 507.839844 " fill-opacity="1" fill-rule="nonzero"/><path fill="#1a1a1a" d="M 393.035156 252.808594 C 394.015625 252.304688 394.871094 249.886719 394.476562 248.835938 C 394.070312 247.746094 392.003906 246.515625 390.789062 246.636719 C 387.027344 247.011719 383.460938 248.203125 381.316406 252.671875 C 385.480469 255.304688 389.386719 254.679688 393.035156 252.808594 " fill-opacity="1" fill-rule="nonzero"/><path fill="#1a1a1a" d="M 558.140625 587.667969 C 552.5625 587.0625 553.4375 591.207031 552.902344 594.375 C 552.734375 597.472656 553.863281 598.859375 556.722656 599.0625 C 560.378906 599.320312 563.300781 597.238281 563.359375 594.332031 C 563.445312 590.261719 561.511719 588.035156 558.140625 587.667969 " fill-opacity="1" fill-rule="nonzero"/><path fill="#1a1a1a" d="M 449.691406 383.078125 C 448.703125 382.914062 447.691406 383.242188 446.976562 383.945312 C 446.1875 384.714844 445.257812 385.675781 444.851562 386.824219 C 444.179688 388.707031 448.527344 392.1875 450.910156 391.5 C 451.992188 391.1875 453.167969 389.183594 453.25 387.882812 C 453.382812 385.699219 452.828125 383.601562 449.691406 383.078125 " fill-opacity="1" fill-rule="nonzero"/><path fill="#1a1a1a" d="M 211.894531 415.945312 C 210.839844 417.464844 208.695312 419.242188 208.984375 420.441406 C 209.417969 422.257812 211.546875 423.664062 212.957031 425.246094 C 214.292969 423.792969 216.492188 422.464844 216.714844 420.859375 C 216.921875 419.394531 214.992188 417.625 214.003906 415.992188 C 213.300781 415.976562 212.597656 415.960938 211.894531 415.945312 " fill-opacity="1" fill-rule="nonzero"/><path fill="#1a1a1a" d="M 353.957031 288.027344 C 356.9375 288.167969 357.941406 286.828125 357.539062 284.074219 C 357.933594 281.320312 356.921875 279.898438 353.945312 280.160156 C 351.652344 280.363281 349.628906 280.574219 349.726562 283.722656 C 349.820312 286.597656 351.0625 287.886719 353.957031 288.027344 " fill-opacity="1" fill-rule="nonzero"/><path fill="#1a1a1a" d="M 469.023438 406.164062 C 468.679688 406.492188 468.335938 406.816406 467.992188 407.136719 C 466.941406 408.132812 466.894531 409.789062 467.886719 410.839844 C 468.242188 411.214844 468.59375 411.589844 468.949219 411.960938 C 469.921875 412.988281 471.535156 413.058594 472.59375 412.121094 C 473.472656 411.34375 474.261719 410.539062 474.472656 409.609375 C 474.933594 407.582031 473.875 406.050781 471.351562 405.507812 C 470.519531 405.324219 469.644531 405.578125 469.023438 406.164062 " fill-opacity="1" fill-rule="nonzero"/><path fill="#1a1a1a" d="M 444.238281 360.984375 C 441.296875 360.496094 440.148438 362.503906 440.21875 365.332031 C 440.269531 367.445312 440.082031 370.078125 443.15625 369.367188 C 444.488281 369.054688 445.621094 367.882812 447.132812 366.496094 C 447.992188 365.710938 448.054688 364.382812 447.269531 363.523438 C 446.046875 362.183594 445.214844 361.144531 444.238281 360.984375 " fill-opacity="1" fill-rule="nonzero"/><path fill="#1a1a1a" d="M 425.191406 627.222656 L 425.191406 631.421875 C 425.191406 632.90625 426.582031 633.992188 428.023438 633.644531 C 429.429688 633.300781 430.605469 632.960938 430.992188 632.210938 C 431.847656 630.554688 431.746094 627.664062 430.785156 626.058594 C 430.367188 625.363281 429.15625 625.144531 427.789062 624.957031 C 426.417969 624.773438 425.191406 625.835938 425.191406 627.222656 " fill-opacity="1" fill-rule="nonzero"/><path fill="#1a1a1a" d="M 363.890625 625.65625 C 362.914062 625.835938 362.050781 626.625 361.199219 627.488281 C 360.3125 628.386719 360.214844 629.796875 360.964844 630.8125 C 361.675781 631.769531 362.410156 632.65625 363.34375 632.984375 C 363.953125 633.195312 364.894531 632.457031 366.113281 631.492188 C 367.253906 630.589844 367.414062 628.917969 366.464844 627.8125 C 365.363281 626.53125 364.527344 625.542969 363.890625 625.65625 " fill-opacity="1" fill-rule="nonzero"/><path fill="#1a1a1a" d="M 328.027344 500.558594 C 328.128906 499.617188 325.691406 497.5625 324.386719 497.554688 C 323.109375 497.546875 320.976562 499.382812 320.785156 500.644531 C 320.660156 501.476562 321.453125 502.445312 322.492188 503.757812 C 323.320312 504.804688 324.894531 504.863281 325.800781 503.878906 C 327.003906 502.570312 327.917969 501.605469 328.027344 500.558594 " fill-opacity="1" fill-rule="nonzero"/><path fill="#1a1a1a" d="M 209.25 366.503906 C 208.367188 365.152344 206.519531 364.433594 205.070312 363.457031 C 208.273438 361.25 209.195312 358.050781 208.425781 354.5 C 208.226562 353.582031 206.296875 352.269531 205.410156 352.433594 C 203.824219 352.730469 201.65625 353.695312 201.117188 354.964844 C 200.164062 357.203125 200 359.894531 200.074219 362.375 C 200.089844 363.027344 202.195312 363.617188 203.34375 364.234375 C 203.070312 365.195312 202.433594 366.230469 202.609375 367.097656 C 202.875 368.414062 203.414062 370.015625 204.394531 370.726562 C 205.101562 371.238281 207.117188 370.90625 207.828125 370.214844 C 208.738281 369.328125 209.699219 367.191406 209.25 366.503906 " fill-opacity="1" fill-rule="nonzero"/><g clip-path="url(#23a94374a0)"><path fill="#1a1a1a" d="M 191.445312 608.238281 C 190.285156 608.425781 188.382812 610.53125 188.5625 611.386719 C 189.296875 614.859375 191.523438 614.398438 193.882812 614.097656 C 195.230469 613.925781 196.140625 612.648438 195.867188 611.316406 C 195.429688 609.214844 194.476562 607.738281 191.445312 608.238281 " fill-opacity="1" fill-rule="nonzero"/></g><path fill="#1a1a1a" d="M 601.511719 562.816406 C 601.503906 562.816406 601.496094 562.820312 601.492188 562.820312 C 600.863281 562.898438 600.371094 563.394531 600.296875 564.019531 C 600.097656 565.652344 599.816406 567.292969 600.03125 568.867188 C 600.125 569.535156 600.824219 570.117188 601.535156 570.699219 C 602.070312 571.140625 602.851562 571.113281 603.355469 570.636719 C 604.292969 569.75 605.328125 568.847656 605.207031 568.148438 C 604.917969 566.5 603.800781 565 602.863281 563.464844 C 602.578125 563.003906 602.050781 562.75 601.511719 562.816406 " fill-opacity="1" fill-rule="nonzero"/><g clip-path="url(#08c10d21a3)"><path fill="#1a1a1a" d="M 322.210938 628.511719 L 322.210938 633.070312 C 322.210938 634.121094 323.34375 634.777344 324.257812 634.265625 C 325.269531 633.695312 326.214844 633.121094 326.894531 632.316406 C 329.152344 629.628906 327.238281 627.019531 323.53125 627.144531 C 322.792969 627.167969 322.210938 627.777344 322.210938 628.511719 " fill-opacity="1" fill-rule="nonzero"/></g><path fill="#1a1a1a" d="M 418.136719 630.109375 L 418.136719 630.667969 C 418.136719 633.132812 421.191406 634.332031 422.835938 632.496094 C 422.847656 632.480469 422.859375 632.46875 422.871094 632.457031 C 424.546875 630.546875 423.925781 628.570312 421.972656 627.652344 C 420.1875 626.8125 418.136719 628.136719 418.136719 630.109375 " fill-opacity="1" fill-rule="nonzero"/><path fill="#1a1a1a" d="M 394.222656 631.976562 C 394.539062 632.683594 395.691406 633.015625 396.988281 633.355469 C 398.128906 633.652344 399.242188 632.789062 399.242188 631.613281 L 399.242188 628.0625 C 399.242188 626.769531 397.917969 625.894531 396.730469 626.410156 C 394.503906 627.375 392.722656 628.625 394.222656 631.976562 " fill-opacity="1" fill-rule="nonzero"/><path fill="#1a1a1a" d="M 211.113281 344.429688 C 211.253906 345.578125 212.242188 346.441406 213.402344 346.429688 C 214.277344 346.421875 215.074219 346.34375 215.476562 345.90625 C 216.308594 344.988281 216.597656 342.824219 216.074219 341.675781 C 215.800781 341.078125 214.753906 340.832031 213.699219 340.589844 C 212.710938 340.359375 211.664062 340.796875 211.1875 341.695312 C 211.101562 341.859375 211.042969 342.027344 211.027344 342.199219 C 210.960938 342.933594 211.019531 343.679688 211.113281 344.429688 " fill-opacity="1" fill-rule="nonzero"/></svg>