<svg xmlns="http://www.w3.org/2000/svg" xmlns:xlink="http://www.w3.org/1999/xlink" width="1080" zoomAndPan="magnify" viewBox="0 0 810 809.999993" height="1080" preserveAspectRatio="xMidYMid meet" version="1.0"><defs><clipPath id="37dea95d87"><path d="M 213.867188 128.496094 L 596.367188 128.496094 L 596.367188 681.246094 L 213.867188 681.246094 Z M 213.867188 128.496094 " clip-rule="nonzero"/></clipPath></defs><g clip-path="url(#37dea95d87)"><path fill="#231f20" d="M 596.175781 558.453125 L 587.476562 558.070312 C 586.964844 556.917969 585.046875 552.957031 582.554688 551.617188 C 580.445312 550.53125 579.613281 546.0625 579.484375 544.398438 L 579.421875 543.890625 L 571.492188 544.082031 C 570.339844 542.996094 565.160156 538.140625 562.730469 537.949219 C 562.09375 537.886719 561.644531 537.757812 561.515625 537.5 C 561.324219 537.246094 561.515625 536.863281 561.515625 536.863281 L 561.710938 536.414062 L 559.917969 535.265625 L 555.828125 530.09375 L 555.828125 527.347656 L 558.066406 525.300781 L 558.066406 522.746094 L 556.59375 521.535156 L 553.011719 521.851562 C 553.140625 521.148438 553.203125 520.257812 552.820312 519.746094 C 552.628906 519.488281 552.308594 519.363281 551.988281 519.363281 C 551.351562 519.363281 550.007812 518.53125 549.175781 517.957031 L 549.367188 515.273438 L 549.558594 508.054688 L 547.195312 506.96875 L 544.316406 506.714844 L 543.742188 506.523438 L 543.613281 505.117188 L 544.253906 503.203125 L 542.65625 502.050781 L 541.757812 501.796875 L 539.90625 501.15625 L 540.03125 498.09375 L 542.335938 496.367188 L 541.886719 492.214844 L 538.753906 491.128906 L 538.625 489.980469 L 540.734375 488.832031 L 543.039062 487.425781 L 545.46875 487.425781 L 545.277344 481.101562 C 545.46875 480.847656 545.914062 480.273438 546.425781 479.570312 C 547.257812 478.546875 546.425781 477.140625 545.851562 476.4375 L 545.660156 476.246094 L 545.402344 476.246094 C 545.339844 476.246094 545.277344 476.246094 545.277344 476.246094 C 545.277344 476.246094 545.277344 476.121094 545.46875 475.738281 C 545.722656 475.226562 546.234375 474.84375 546.746094 474.460938 C 547.449219 473.882812 548.21875 473.308594 548.34375 472.351562 C 548.410156 471.96875 548.472656 471.203125 548.472656 470.242188 C 548.601562 468.390625 548.921875 463.410156 549.433594 462.835938 C 550.582031 461.941406 550.582031 460.40625 550.582031 459.066406 C 550.582031 458.9375 550.582031 458.875 550.582031 458.808594 L 550.648438 458.746094 C 550.839844 458.492188 550.773438 458.425781 550.582031 457.660156 C 550.261719 456.445312 550.199219 453.957031 550.199219 453.890625 L 550.199219 453.699219 L 550.136719 453.574219 C 549.945312 453.316406 548.152344 450.828125 546.363281 451.527344 C 545.722656 451.785156 545.277344 452.105469 544.828125 452.421875 C 544.0625 452.996094 543.675781 453.253906 543.039062 452.996094 C 540.734375 452.167969 540.097656 451.71875 540.03125 451.65625 C 540.03125 451.019531 539.519531 449.546875 539.457031 449.230469 L 539.394531 449.039062 L 538.050781 448.269531 L 537.476562 447.183594 L 538.371094 445.460938 L 538.371094 440.863281 C 538.371094 440.480469 538.5 438.371094 538.5625 437.15625 L 540.417969 435.304688 L 543.359375 433.707031 L 543.742188 430.578125 C 543.742188 428.855469 543.933594 427.128906 544.125 426.875 C 544.316406 426.683594 545.210938 426.746094 546.042969 427 L 546.8125 427.257812 L 546.425781 422.464844 L 547.707031 421.507812 C 548.089844 421.125 548.601562 420.230469 548.152344 419.527344 C 547.832031 419.082031 547.128906 418.378906 546.746094 418.058594 L 546.746094 415.953125 L 547.128906 413.269531 L 547.320312 409.117188 L 546.554688 405.09375 L 545.660156 401.898438 L 546.617188 399.664062 L 545.277344 395.832031 L 545.085938 389.699219 L 546.363281 388.804688 L 546.363281 386.316406 L 544.765625 383.757812 L 545.789062 383.441406 C 546.425781 383.25 547.449219 382.546875 547.578125 382.417969 L 547.769531 382.289062 L 547.960938 380.886719 L 549.367188 378.90625 L 550.773438 379.289062 L 552.691406 377.371094 L 555.890625 377.179688 L 556.53125 372.582031 L 555.378906 367.089844 L 552.757812 365.109375 L 550.007812 363.382812 L 549.433594 358.976562 L 546.746094 356.292969 L 543.933594 356.292969 L 541.695312 353.867188 L 540.734375 352.78125 L 539.007812 351.632812 L 537.539062 351.632812 L 536.386719 349.269531 L 534.46875 349.84375 L 527.050781 337.644531 L 527.949219 336.238281 L 527.5 334.320312 C 528.585938 334.257812 530.1875 334.449219 530.824219 334.578125 L 531.273438 334.640625 L 531.976562 332.277344 L 533.253906 332.660156 L 534.277344 333.429688 L 535.75 332.214844 C 535.8125 332.152344 536.003906 331.894531 536.386719 331.128906 C 536.773438 330.363281 537.285156 329.148438 537.285156 329.085938 L 538.433594 327.167969 L 539.074219 325.890625 L 538.5 322.761719 L 532.933594 313.4375 L 533.128906 309.601562 L 534.40625 307.113281 L 534.660156 303.152344 L 537.15625 302.257812 L 538.179688 299.449219 L 539.394531 297.59375 L 537.859375 293.570312 L 537.988281 291.847656 L 541.632812 288.589844 L 540.671875 286.546875 L 542.015625 285.203125 L 542.015625 285.011719 C 542.398438 282.328125 542.527344 279.070312 541.3125 278.6875 C 540.480469 278.433594 538.625 277.15625 537.792969 276.582031 L 536.261719 273.898438 L 530.570312 272.558594 L 528.011719 272.558594 L 523.40625 273.132812 L 522.382812 275.75 L 521.746094 276.898438 L 520.082031 277.730469 L 517.71875 278.242188 L 516.246094 278.496094 L 516.117188 277.285156 L 516.117188 276.707031 C 516.757812 275.816406 517.523438 274.792969 517.78125 274.664062 C 518.355469 274.472656 520.464844 273.003906 520.914062 272.75 L 521.234375 272.492188 L 520.660156 271.023438 L 517.910156 269.363281 L 514.777344 269.683594 L 514.777344 268.085938 L 518.035156 267.128906 L 521.746094 266.9375 L 523.917969 267.703125 L 527.753906 265.46875 L 524.816406 259.335938 L 524.429688 254.097656 L 522.578125 251.734375 L 522.894531 248.03125 L 525.132812 245.027344 L 524.75 240.238281 L 524.75 237.808594 L 526.285156 236.085938 L 526.347656 236.023438 C 526.476562 235.765625 527.246094 234.425781 526.734375 233.46875 L 524.75 229.507812 L 525.007812 228.101562 L 527.753906 229.25 L 527.949219 229.1875 C 530.570312 228.292969 530.570312 227.589844 530.570312 227.398438 C 530.570312 227.015625 530.890625 225.226562 531.144531 224.140625 L 531.207031 223.820312 L 527.5625 221.203125 L 524.621094 220.5 L 524.6875 217.308594 C 524.558594 215.839844 524.496094 214.242188 524.496094 214.050781 C 524.558594 213.792969 524.878906 212.453125 524.878906 211.558594 C 524.878906 210.984375 524.941406 209.195312 525.007812 208.492188 C 526.09375 207.917969 526.222656 207.664062 526.222656 207.535156 C 526.222656 207.46875 526.285156 207.277344 526.414062 205.171875 L 527.308594 202.9375 L 522.511719 203.191406 L 522.257812 202.234375 L 521.746094 201.019531 L 520.273438 200.125 C 520.273438 199.679688 520.273438 199.167969 520.148438 198.910156 C 520.019531 198.65625 519.699219 198.335938 519.507812 198.144531 C 519.445312 197.632812 519.378906 196.929688 519.378906 196.675781 C 519.445312 196.101562 519.316406 195.335938 519.316406 195.207031 L 519.25 195.015625 L 517.207031 193.226562 L 516.375 194.375 L 515.289062 194.566406 L 513.816406 194.441406 L 511.898438 193.355469 L 510.746094 194.566406 L 510.554688 194.953125 L 509.53125 194.761719 C 509.339844 194.503906 508.828125 193.929688 508.574219 193.546875 C 508.253906 192.90625 507.742188 191.886719 507.742188 191.886719 L 507.359375 190.925781 L 505.761719 186.457031 L 504.929688 184.605469 L 504.863281 184.476562 C 504.863281 184.476562 504.160156 183.582031 503.90625 183.390625 C 503.839844 183.328125 503.585938 183.070312 501.285156 182.242188 L 499.941406 181.984375 L 497.253906 178.28125 L 493.996094 177.132812 C 492.972656 176.875 491.882812 176.554688 491.691406 176.363281 C 491.371094 176.046875 490.285156 175.46875 489.136719 174.832031 C 488.878906 174.703125 488.625 174.574219 488.625 174.574219 C 488.429688 174.382812 487.855469 173.296875 487.410156 172.40625 C 487.34375 171.828125 487.152344 170.679688 486.898438 170.296875 C 486.769531 170.042969 486.449219 169.464844 486.195312 169.148438 L 486.832031 168.1875 L 486.832031 168.0625 C 486.898438 167.484375 487.089844 165.699219 487.089844 165.441406 C 487.152344 165.316406 487.472656 164.738281 487.792969 164.292969 L 491.246094 160.269531 L 491.246094 160.078125 C 491.179688 158.992188 491.117188 157.140625 491.117188 157.011719 C 491.117188 156.691406 491.371094 154.582031 491.5 154.328125 C 491.628906 154.074219 492.011719 153.242188 492.203125 152.988281 L 492.90625 148.644531 L 496.105469 146.34375 L 496.105469 146.089844 C 496.105469 144.492188 496.039062 142.066406 496.105469 141.808594 C 496.167969 141.488281 496.167969 140.210938 496.105469 139.125 L 495.402344 136.761719 L 495.144531 134.589844 L 489.964844 134.082031 L 488.878906 134.785156 L 487.214844 135.359375 L 486.386719 135.867188 L 483.570312 135.742188 L 482.230469 134.910156 L 481.527344 134.847656 L 481.207031 132.292969 L 475.578125 130.058594 L 473.023438 129.417969 L 470.59375 128.652344 L 469.441406 128.84375 L 468.675781 129.992188 L 467.96875 131.652344 L 468.738281 132.546875 L 469.378906 132.929688 L 469.503906 133.570312 L 466.820312 134.144531 L 464.519531 134.527344 L 463.621094 135.484375 L 463.109375 136.570312 L 462.726562 137.082031 C 462.597656 137.082031 462.535156 137.019531 462.472656 137.019531 C 462.34375 136.507812 461.960938 134.910156 461.769531 133.953125 L 461.769531 133.824219 L 461.640625 133.761719 C 460.9375 132.929688 460.617188 132.929688 460.488281 132.929688 C 460.425781 132.929688 460.167969 132.929688 458.636719 133.441406 L 457.484375 134.398438 L 455.117188 136.0625 L 455.117188 139.316406 L 455.183594 140.789062 L 455.117188 141.234375 L 454.542969 141.554688 L 452.558594 141.554688 L 451.410156 141.9375 L 450.515625 142.960938 L 450.003906 143.917969 L 449.234375 144.746094 L 448.019531 144.683594 L 446.550781 144.8125 L 443.097656 145.898438 L 442.96875 146.089844 C 442.714844 146.601562 442.265625 147.621094 442.265625 148.003906 C 442.265625 148.195312 442.265625 148.386719 442.203125 148.515625 C 442.203125 148.707031 442.136719 148.898438 442.136719 149.027344 C 442.136719 149.28125 442.074219 151.070312 442.074219 151.070312 L 442.011719 151.453125 L 441.179688 151.390625 L 440.539062 149.539062 L 439.324219 148.003906 L 438.300781 147.238281 C 438.171875 147.109375 438.046875 146.917969 438.046875 146.855469 C 438.046875 146.664062 438.109375 146.34375 438.171875 146.214844 C 438.300781 145.960938 438.300781 145.515625 438.300781 145.449219 L 438.300781 145.324219 L 437.726562 144.171875 L 424.234375 144.171875 L 423.273438 143.214844 L 421.742188 142.960938 L 421.484375 144.042969 L 421.039062 144.238281 L 419.949219 144.238281 L 418.734375 145.769531 L 418.222656 146.535156 L 417.777344 146.984375 L 417.007812 146.792969 C 416.816406 146.601562 416.625 146.34375 416.304688 146.34375 C 416.175781 146.34375 415.601562 146.152344 415.21875 146.089844 C 415.089844 146.023438 414.960938 145.898438 414.898438 145.832031 C 414.898438 145.449219 414.707031 145.003906 414.707031 144.875 L 414.578125 144.554688 L 412.726562 144.300781 L 409.910156 144.300781 C 409.65625 144.300781 408.3125 144.238281 408.3125 144.238281 L 407.355469 144.042969 L 406.777344 143.535156 L 397.1875 143.535156 L 397.1875 144.8125 L 389.769531 144.9375 L 387.402344 143.980469 L 387.277344 143.980469 C 382.863281 144.109375 374.742188 144.300781 373.59375 144.300781 C 373.273438 144.042969 372.121094 143.085938 371.164062 142.191406 L 371.035156 142.066406 L 356.519531 142.191406 L 356.457031 144.171875 L 353.324219 144.300781 L 351.46875 143.726562 L 350.125 144.300781 L 348.847656 144.429688 L 347.632812 144.875 L 345.648438 145.386719 L 345.203125 145.769531 L 343.605469 145.128906 L 341.941406 145.066406 L 317.515625 145.324219 L 304.34375 145.257812 L 301.65625 144.363281 L 274.417969 144.621094 L 270.132812 144.042969 L 268.214844 143.851562 L 256.578125 143.660156 L 256.132812 142.894531 L 248.84375 143.085938 L 248.394531 145.640625 L 248.136719 148.003906 L 248.136719 148.132812 C 248.523438 149.410156 248.714844 149.539062 248.84375 149.664062 C 248.96875 149.730469 249.417969 150.175781 249.800781 150.496094 C 249.863281 150.625 249.992188 150.75 249.992188 150.816406 C 249.992188 150.941406 249.863281 151.261719 249.671875 151.582031 L 249.480469 152.09375 L 246.476562 152.730469 L 246.15625 156.054688 C 245.964844 156.5625 245.707031 157.140625 245.644531 157.203125 C 245.582031 157.332031 245.003906 158.289062 245.003906 158.351562 L 244.300781 160.460938 L 244.367188 161.417969 L 240.464844 167.101562 L 239.570312 167.871094 L 239.121094 168.957031 L 239.953125 171 L 241.746094 171.320312 L 241.808594 171.636719 L 241.617188 172.789062 L 241.105469 173.042969 L 239.953125 174.320312 L 239.699219 176.621094 L 242 182.050781 L 243.023438 183.644531 L 244.109375 187.03125 L 244.238281 187.222656 C 244.75 187.796875 245.324219 188.5 245.453125 188.628906 C 245.515625 188.882812 246.410156 191.3125 246.410156 191.3125 L 246.539062 191.503906 C 246.539062 191.503906 247.753906 192.84375 248.136719 193.164062 C 248.457031 193.484375 250.3125 194.375 251.71875 195.015625 L 249.160156 196.355469 L 249.097656 196.484375 C 248.332031 198.082031 247.945312 199.101562 247.945312 199.359375 C 247.945312 199.421875 247.753906 199.804688 247.625 199.996094 C 247.050781 201.148438 246.667969 201.976562 247.050781 202.550781 C 247.179688 202.742188 247.308594 203.128906 247.433594 203.511719 C 247.753906 204.53125 248.011719 205.105469 248.523438 205.363281 C 248.777344 205.492188 249.671875 206 250.3125 206.386719 C 250.761719 206.640625 251.144531 206.894531 251.273438 206.960938 C 251.589844 207.152344 253.765625 208.046875 254.214844 208.238281 L 254.789062 208.75 L 254.917969 209.257812 C 254.851562 209.449219 254.660156 209.832031 254.40625 210.152344 C 254.277344 210.34375 254.019531 210.535156 253.765625 210.792969 C 253.253906 211.304688 252.742188 211.75 252.679688 212.195312 C 252.613281 212.515625 252.359375 213.347656 252.230469 213.601562 L 252.167969 213.792969 L 252.871094 216.796875 L 252.613281 218.394531 L 253 226.441406 L 253.0625 226.632812 C 253.125 226.761719 254.53125 230.273438 254.851562 230.847656 C 255.109375 231.359375 255.746094 232.316406 255.9375 232.636719 C 255.9375 232.828125 256.003906 233.273438 256.003906 233.46875 C 256.003906 233.785156 255.8125 234.425781 255.683594 234.550781 C 255.363281 234.871094 254.597656 235.894531 254.53125 236.023438 L 254.40625 236.148438 L 254.722656 240.875 L 254.789062 241.066406 C 254.789062 241.066406 255.746094 242.410156 256.132812 242.855469 C 256.386719 243.175781 256.960938 244.007812 257.28125 244.453125 L 255.300781 246.753906 L 252.679688 250.457031 L 252.679688 250.648438 C 252.679688 250.648438 252.742188 252.566406 252.742188 252.882812 C 252.742188 253.074219 252.613281 254.160156 252.550781 254.863281 L 252.550781 254.992188 C 252.613281 255.183594 252.742188 256.332031 253 256.714844 C 253.253906 257.226562 254.085938 257.929688 254.40625 258.121094 C 254.660156 258.3125 255.171875 258.761719 255.300781 258.824219 C 255.300781 258.824219 255.746094 259.078125 255.429688 259.972656 C 254.980469 261.316406 254.339844 263.804688 254.277344 263.933594 L 254.148438 266.679688 L 255.683594 270.003906 L 261.503906 273.386719 L 261.4375 276.132812 C 261.4375 278.371094 261.628906 278.625 261.695312 278.6875 C 261.820312 279.007812 261.949219 280.796875 262.078125 282.457031 L 261.886719 283.671875 C 261.183594 284.691406 260.09375 286.355469 259.777344 286.671875 C 259.136719 287.3125 258.753906 289.417969 258.878906 290.121094 C 258.945312 290.761719 260.414062 293.570312 261.566406 293.570312 C 261.757812 293.570312 262.015625 293.570312 262.269531 293.507812 C 262.589844 293.445312 263.355469 293.378906 263.484375 293.507812 C 263.675781 293.828125 263.613281 294.402344 263.230469 294.976562 C 262.972656 295.296875 261.628906 296.0625 260.480469 296.574219 L 260.289062 296.699219 C 259.585938 297.46875 259.199219 298.042969 259.199219 298.425781 C 259.199219 298.617188 258.753906 299.511719 258.433594 300.214844 L 257.664062 302.003906 L 257.152344 302.703125 L 255.621094 302.703125 L 254.660156 303.597656 L 254.53125 303.726562 C 254.46875 303.855469 254.148438 304.429688 254.339844 305.644531 C 254.53125 306.792969 254.722656 307.238281 254.789062 307.304688 C 255.042969 307.75 255.234375 308.324219 255.234375 308.390625 C 255.171875 308.453125 254.980469 308.644531 254.851562 308.710938 C 254.597656 308.902344 254.339844 309.09375 254.277344 309.347656 C 254.277344 309.410156 254.148438 309.476562 254.085938 309.539062 C 253.828125 309.730469 253.445312 310.050781 253.445312 310.496094 C 253.445312 311.136719 255.746094 314.136719 256.003906 314.265625 C 256.449219 314.585938 259.457031 315.097656 260.800781 315.289062 C 261.886719 315.414062 263.292969 315.671875 263.933594 315.863281 L 263.867188 322.121094 L 266.679688 323.910156 L 266.746094 328.253906 L 268.855469 330.808594 C 268.152344 331.574219 267.386719 332.277344 267.257812 332.34375 C 266.808594 332.46875 266.554688 332.789062 267.066406 335.089844 L 267.128906 335.40625 L 269.558594 335.855469 L 270.644531 335.917969 L 275.1875 356.230469 L 276.71875 365.875 C 276.847656 366.257812 277.742188 369.515625 277.933594 370.027344 C 278.0625 370.347656 278.253906 372.582031 278.445312 374.5 C 278.445312 374.5 278.640625 377.5625 278.640625 378.265625 C 278.640625 378.96875 278.382812 381.523438 278.382812 381.652344 L 278.445312 383.25 L 274.355469 385.484375 L 272.949219 385.867188 L 270.453125 385.484375 L 268.984375 387.082031 L 268.089844 387.976562 L 268.089844 388.230469 C 268.089844 388.484375 268.214844 389.253906 268.28125 389.570312 C 268.34375 389.828125 269.367188 391.742188 269.6875 392.128906 C 269.816406 392.253906 270.261719 392.894531 270.644531 393.46875 L 270.835938 396.34375 L 270.132812 396.789062 C 269.558594 396.917969 268.726562 397.109375 268.472656 397.109375 C 268.023438 397.109375 265.402344 397.300781 265.273438 397.300781 L 265.148438 397.300781 L 263.546875 398.515625 L 262.589844 399.535156 L 258.242188 405.15625 L 257.921875 406.882812 L 257.410156 406.050781 L 256.324219 404.902344 L 254.46875 404.773438 L 253.703125 408.03125 C 253.703125 408.605469 253.636719 409.949219 253.703125 410.332031 C 253.765625 410.523438 253.703125 411.480469 253.636719 412.246094 C 253.445312 412.503906 253 413.203125 252.871094 413.398438 C 252.742188 413.589844 251.335938 414.867188 250.121094 416.015625 L 249.992188 416.144531 L 249.417969 419.144531 L 247.753906 420.296875 L 247.882812 422.53125 L 247.308594 423.871094 L 241.808594 434.601562 L 241.617188 444.375 L 240.847656 445.90625 C 240.59375 446.164062 240.082031 446.675781 240.082031 447.183594 C 240.082031 447.378906 239.953125 448.398438 239.824219 449.101562 C 239.699219 450.1875 239.632812 450.570312 239.632812 450.699219 C 239.632812 450.953125 239.25 452.421875 238.929688 453.765625 L 238.484375 455.746094 L 237.523438 462.324219 L 237.394531 464.046875 L 239.507812 466.601562 L 233.304688 474.96875 L 233.046875 480.015625 L 228.445312 481.292969 L 226.972656 484.359375 L 216.105469 501.988281 L 216.105469 507.289062 L 218.535156 511.3125 L 217.125 512.527344 L 215.910156 515.464844 L 214.183594 516.613281 L 213.867188 520.191406 L 215.847656 521.597656 L 215.785156 527.730469 L 218.148438 537.757812 L 220.453125 546.0625 L 220.261719 552.128906 L 222.625 552.128906 L 227.230469 560.113281 L 228.507812 572.632812 L 233.6875 583.296875 L 233.238281 597.925781 L 239.378906 598.5 L 238.738281 601.183594 L 238.164062 603.992188 L 240.273438 604.953125 L 241.359375 606.804688 L 241.808594 606.613281 C 242.449219 606.292969 243.34375 606.039062 243.664062 606.039062 C 244.300781 606.039062 245.835938 605.015625 246.667969 604.441406 L 248.011719 602.90625 L 253.636719 605.71875 L 255.492188 606.996094 L 255.683594 607.761719 L 254.917969 610.445312 L 256.449219 617.40625 L 256.960938 620.535156 C 257.089844 620.984375 257.472656 622.132812 257.664062 622.453125 C 257.859375 622.707031 258.816406 624.367188 259.074219 624.753906 L 259.328125 626.15625 L 259.265625 627.433594 L 257.792969 627.625 L 256.515625 627.050781 L 254.660156 627.308594 L 253.828125 628.96875 L 253.828125 630.308594 L 254.722656 631.523438 L 254.277344 632.160156 L 253.253906 632.925781 C 253.0625 633.121094 252.804688 633.628906 253.0625 634.207031 C 253.191406 634.398438 253.703125 636.058594 254.148438 637.398438 L 254.722656 640.335938 L 254.980469 641.296875 L 256.386719 642.253906 L 256.386719 644.550781 L 257.539062 645.957031 L 257.601562 646.46875 L 257.027344 647.300781 L 252.421875 647.300781 C 251.464844 647.363281 250.441406 647.363281 250.25 647.300781 C 249.738281 646.980469 249.351562 646.851562 248.457031 646.597656 C 247.5 646.277344 246.410156 646.214844 246.410156 646.214844 L 246.285156 646.214844 C 245.707031 646.277344 244.300781 646.53125 243.917969 646.722656 C 243.535156 646.914062 242.832031 647.425781 242.703125 647.492188 L 242.574219 647.554688 L 241.871094 649.34375 L 241.808594 649.472656 C 241.808594 649.472656 241.808594 649.597656 241.617188 649.726562 C 241.167969 649.980469 240.65625 650.238281 240.53125 650.300781 L 239.890625 650.8125 L 238.738281 650.683594 C 237.203125 648.640625 236.757812 648.578125 236.566406 648.511719 C 236.308594 648.449219 235.542969 648.066406 235.03125 647.808594 L 232.664062 647.171875 L 232.601562 647.171875 C 230.875 647.300781 230.683594 647.683594 230.683594 647.875 C 230.617188 647.9375 230.492188 648.066406 230.296875 648.191406 L 226.269531 647.875 L 225.757812 650.363281 L 226.269531 650.492188 C 228.574219 651.003906 283.304688 663.074219 288.742188 663.90625 C 293.472656 664.609375 298.589844 667.035156 299.675781 667.546875 L 300.378906 669.910156 L 300.378906 671.828125 L 301.019531 671.632812 C 301.53125 671.507812 302.488281 671.378906 302.871094 671.570312 C 303.257812 671.761719 303.574219 672.402344 303.703125 672.65625 L 303.703125 676.042969 L 304.726562 674.316406 C 304.726562 674.316406 305.109375 673.742188 305.558594 673.742188 C 306.070312 673.742188 306.710938 674.445312 307.347656 675.59375 L 307.476562 675.785156 L 307.667969 675.851562 C 308.179688 676.042969 310.609375 676.808594 311.378906 676.808594 L 312.527344 676.808594 L 312.527344 678.851562 L 314.316406 681.085938 L 316.554688 681.085938 L 316.683594 681.023438 C 316.875 680.960938 318.410156 680.257812 318.984375 679.875 C 319.179688 679.746094 319.242188 679.617188 319.371094 679.554688 C 319.5625 679.492188 320.199219 679.425781 320.457031 679.425781 C 322.246094 679.234375 324.101562 679.234375 324.101562 679.234375 L 324.355469 679.234375 L 325.570312 677.832031 C 325.828125 677.640625 328.257812 675.722656 328.832031 674.957031 C 329.214844 674.445312 330.304688 673.804688 330.6875 673.613281 L 331.839844 673.039062 L 331.773438 673.039062 C 333.117188 672.71875 334.140625 672.335938 334.140625 672.335938 L 336.570312 671.761719 L 338.359375 669.589844 L 343.667969 669.398438 L 343.667969 666.714844 L 345.457031 664.929688 L 347.375 664.097656 L 346.929688 663.652344 C 346.992188 663.523438 347.25 663.140625 348.207031 662.5 C 350.125 661.289062 352.746094 661.09375 352.8125 661.09375 L 353.324219 661.03125 L 353.324219 659.179688 L 354.410156 657.519531 L 354.410156 656.433594 L 357.289062 655.601562 L 359.078125 655.601562 L 360.292969 655.21875 L 370.972656 653.367188 L 373.910156 652.601562 L 376.917969 652.027344 L 379.21875 650.429688 C 379.476562 650.429688 379.988281 650.363281 380.625 650.429688 L 380.945312 650.429688 C 381.96875 650.558594 383.949219 650.75 385.996094 650.363281 C 387.914062 649.980469 389.003906 648.578125 389.386719 647.875 L 390.472656 647.875 L 391.242188 646.597656 L 392.648438 646.597656 L 394.5 644.746094 L 396.675781 644.746094 L 401.152344 641.230469 L 416.242188 641.230469 L 424.296875 640.65625 L 425.703125 638.867188 L 428.453125 636.695312 L 429.414062 635.289062 L 431.332031 634.84375 L 431.140625 632.925781 L 436.320312 631.011719 L 437.085938 630.5 L 440.15625 630.5 L 441.113281 628.902344 L 446.039062 627.308594 C 446.292969 627.242188 448.53125 626.921875 449.109375 626.730469 C 449.683594 626.539062 450.960938 626.15625 450.960938 626.15625 L 451.28125 626.09375 L 451.664062 624.433594 L 453.777344 622.515625 L 453.777344 621.046875 C 455.246094 620.726562 457.804688 620.027344 458.316406 619.257812 C 458.761719 618.621094 459.339844 617.789062 459.59375 617.46875 C 461.066406 616.640625 463.6875 615.363281 464.644531 615.363281 C 465.476562 615.363281 466.820312 615.105469 468.417969 614.851562 C 469.890625 614.597656 471.359375 614.339844 472.511719 614.277344 C 474.238281 614.148438 476.089844 613 477.304688 612.234375 C 477.691406 611.976562 478.203125 611.722656 478.265625 611.65625 C 478.839844 611.65625 479.03125 611.65625 480.183594 611.464844 C 481.335938 611.273438 486.707031 608.273438 487.792969 607.699219 L 489.964844 606.421875 C 490.222656 606.355469 491.117188 606.039062 491.882812 605.910156 C 492.84375 605.71875 495.082031 604.824219 495.144531 604.761719 L 495.335938 604.632812 C 495.464844 604.503906 496.871094 603.097656 497.253906 602.523438 L 497.382812 602.332031 C 499.046875 599.839844 499.621094 599.265625 499.878906 599.140625 C 500.132812 599.011719 500.195312 599.011719 500.390625 599.011719 C 500.644531 599.011719 501.027344 598.949219 501.859375 598.628906 C 502.242188 598.5 502.820312 598.246094 503.585938 597.863281 C 505.886719 596.839844 509.789062 595.113281 511.515625 595.113281 C 513.242188 595.113281 514.265625 594.09375 515.03125 593.328125 C 515.289062 593.070312 515.671875 592.6875 515.800781 592.6875 C 516.757812 592.6875 520.464844 591.601562 521.105469 591.410156 L 523.535156 591.21875 C 527.371094 591.664062 531.65625 592.242188 532.105469 592.496094 C 532.871094 592.878906 543.675781 592.941406 550.007812 592.941406 L 562.09375 592.941406 C 563.117188 592.941406 564.652344 592.367188 564.777344 592.304688 L 566.632812 591.28125 C 568.039062 591.664062 571.75 592.496094 572.707031 592.113281 C 573.792969 591.664062 577.246094 587.832031 577.628906 587.003906 C 578.015625 586.238281 578.910156 584.066406 578.972656 583.875 L 579.675781 580.234375 C 580.1875 579.464844 584.023438 573.269531 585.429688 571.035156 C 586.839844 568.734375 589.652344 566.820312 591.25 565.796875 C 592.65625 564.902344 595.917969 563.816406 595.980469 563.816406 L 596.367188 563.691406 Z M 596.175781 558.453125 " fill-opacity="1" fill-rule="nonzero"/></g></svg>