<svg xmlns="http://www.w3.org/2000/svg" xmlns:xlink="http://www.w3.org/1999/xlink" width="1080" zoomAndPan="magnify" viewBox="0 0 810 809.999993" height="1080" preserveAspectRatio="xMidYMid meet" version="1.0"><path fill="#000000" d="M 315.414062 171.082031 C 315.210938 186.128906 314.929688 201.167969 314.429688 216.210938 C 298.359375 214.734375 281.71875 214.730469 265.609375 215.214844 C 264.367188 215.25 257.753906 215.28125 261.183594 218.207031 C 263.253906 219.976562 267.890625 223.339844 270.644531 223.710938 C 274.542969 224.226562 277.800781 223.535156 279.523438 227.699219 C 282.105469 233.941406 288.949219 244.019531 295.058594 246.367188 C 299.984375 248.261719 306.4375 267 313.4375 261.492188 C 315.164062 260.160156 316.402344 260.257812 317.234375 261.839844 C 318.316406 263.984375 320.710938 265.167969 321.578125 267.457031 C 322.535156 270.234375 326.125 270.214844 328.140625 271.847656 C 330.265625 273.523438 330.90625 273.625 333.871094 272.589844 L 335.992188 271.847656 C 341.359375 278.121094 348.933594 282.6875 352.875 290.101562 C 354.375 292.863281 354.109375 296.648438 354.3125 299.722656 C 355.359375 299.828125 358.335938 299.949219 358.953125 300.757812 C 359.546875 301.351562 356.140625 306.796875 355.59375 307.761719 C 357.265625 309.015625 359.898438 310.695312 360.085938 312.941406 L 360.234375 314.523438 C 363.734375 314.488281 367.214844 314.667969 370.550781 315.855469 C 373.417969 316.890625 374.105469 317.335938 374.847656 318.820312 C 375.339844 319.753906 376.027344 320.789062 376.429688 321.132812 C 378.820312 322.726562 384.011719 322.210938 386.890625 322.414062 L 387.339844 324.785156 C 387.851562 327.558594 385.15625 328.8125 386.058594 331.25 C 387.367188 334.816406 380.945312 336.175781 384.574219 338.898438 L 385.910156 339.929688 C 384.679688 341.035156 383.191406 342.613281 381.617188 343.136719 C 380.710938 343.464844 379.503906 347.496094 379.039062 348.453125 C 377.90625 350.847656 380.046875 352.375 381.5625 353.636719 C 382.652344 354.425781 382.652344 354.574219 382.003906 356.941406 C 381.65625 358.277344 380.921875 360.144531 380.429688 361.039062 C 379 363.496094 382.023438 363.460938 380.921875 366.269531 C 380.261719 367.898438 368.164062 366.941406 366.96875 366.953125 C 345.027344 367.140625 323.089844 367.058594 301.148438 367.058594 C 274.9375 367.058594 248.726562 367.058594 222.515625 367.058594 C 213.898438 381.6875 205.273438 396.316406 196.65625 410.945312 C 185.222656 430.355469 171.988281 449.410156 162.144531 469.660156 C 161.082031 472.289062 174.5 486.070312 176.464844 488.886719 C 179.921875 493.847656 180.476562 501.730469 171.675781 501.730469 L 169.839844 501.730469 C 170.574219 505.972656 170.75 510.304688 171.027344 514.59375 L 168.363281 517.410156 C 164.664062 521.261719 164.117188 523.035156 165.453125 527.03125 C 167.164062 532.171875 169.199219 538.984375 168.316406 544.453125 C 167.574219 549.085938 164.609375 558.03125 160.511719 560.878906 C 154.457031 564.949219 176.964844 578.199219 180.351562 580.875 C 190.832031 589.160156 200.804688 597.859375 211.761719 605.554688 C 232.980469 620.460938 254.414062 633.691406 279.984375 639.851562 C 307.066406 646.382812 335.277344 642.15625 362.886719 642.667969 C 370.035156 642.796875 378.164062 646.574219 384.640625 649.355469 C 391.691406 652.386719 398.6875 655.539062 405.792969 658.453125 C 407.019531 658.960938 423.054688 666.34375 423.226562 664.363281 C 423.644531 660.886719 421.625 658.914062 422.484375 655.179688 C 423.46875 650.929688 426.019531 649.097656 428.867188 645.941406 C 431.355469 643.191406 432.363281 640.308594 435.625 638.269531 C 442.148438 634.195312 452.5625 620.179688 460.9375 625.925781 C 465.226562 628.789062 467.109375 628.042969 467.65625 623.3125 C 467.953125 621.140625 468.542969 619.171875 469.429688 617.699219 C 471.0625 614.929688 475.40625 610.238281 478.566406 607.976562 C 480.691406 606.394531 481.382812 606.195312 485.726562 605.753906 C 496.09375 604.714844 497.671875 602.984375 491.996094 599.101562 C 488.335938 596.578125 487.894531 595.746094 489.824219 594.957031 C 494.476562 592.988281 485.226562 592.636719 486.589844 588.914062 C 487.507812 586.386719 487.019531 581.46875 488.835938 579.667969 C 490.214844 578.289062 491.058594 578.433594 493.523438 580.457031 L 495.640625 582.179688 L 496.984375 579.960938 C 498.660156 577.101562 499.890625 576.753906 503.207031 578.179688 C 504.589844 578.78125 506.019531 579.121094 506.414062 578.976562 C 508.242188 578.179688 508.4375 575.144531 510.3125 574.4375 C 512.136719 573.765625 513.835938 578 515.292969 575.964844 C 520.253906 569.953125 525.125 563.714844 530.800781 557.960938 C 533.445312 558.003906 536.652344 558.519531 538.746094 556.585938 C 541.921875 553.757812 540.324219 548.285156 542.160156 544.648438 C 543.710938 541.605469 541.210938 539.421875 539.441406 536.949219 C 536.625 533.050781 534.246094 528.683594 532.386719 524.253906 C 528.964844 516.105469 542.40625 513.0625 537.417969 505.679688 C 535.933594 503.5625 535.933594 502.128906 537.417969 499.019531 C 538.445312 496.722656 539.882812 495.914062 542.171875 494.835938 C 548.511719 491.832031 555.15625 489.390625 561.324219 486.035156 C 566.710938 483.097656 570.941406 478.542969 575.664062 474.703125 C 581.988281 469.558594 589.425781 466.128906 595.902344 461.214844 C 601.449219 457.011719 605.480469 451.898438 611.273438 447.996094 C 617.722656 443.652344 623.644531 437.496094 629.492188 432.355469 C 633.957031 428.421875 639.339844 425.53125 643.609375 421.421875 C 645.285156 419.808594 656.136719 410.777344 651.003906 409 C 646.851562 407.515625 643.515625 402.664062 639.863281 400.183594 C 636.273438 397.75 632.109375 397.039062 628.238281 395.210938 C 625.019531 393.695312 608.46875 377.601562 605.828125 380.636719 C 603.6875 383.203125 618.074219 393.53125 620.390625 395.683594 C 618.0625 395.441406 615.722656 395.230469 613.386719 395.042969 C 613.007812 400.453125 610.703125 405.890625 609.28125 411.117188 C 608.773438 412.96875 604.652344 416 604.035156 412.464844 C 603.628906 410.125 605.9375 408.613281 603.574219 406.714844 C 600.652344 404.382812 597.117188 402.933594 594.203125 400.554688 C 592.257812 398.960938 590.375 395.441406 587.761719 394.929688 C 582.421875 393.582031 579.816406 392.847656 574.292969 393.84375 C 573.175781 392.613281 572.035156 391.390625 570.882812 390.191406 C 566.824219 390.257812 561.492188 391.203125 557.621094 389.953125 C 552.410156 388.265625 546.136719 390.855469 541.3125 388.710938 C 538.316406 387.519531 534.582031 392.300781 532.28125 390.980469 C 529.753906 389.394531 532.398438 373.105469 532.507812 370.964844 C 534.113281 340.242188 536.054688 309.542969 537.851562 278.832031 C 538.921875 260.59375 540.089844 242.519531 539.964844 224.25 C 539.859375 208.234375 539.617188 192.214844 539.359375 176.207031 C 539.234375 169.035156 539.113281 161.871094 538.945312 154.699219 C 538.910156 153.152344 539.789062 146.039062 538.59375 144.835938 C 537.546875 143.667969 529.792969 144.589844 528.375 144.566406 C 519.566406 144.4375 510.753906 144.347656 501.949219 144.273438 C 475.707031 144.035156 449.460938 143.882812 423.222656 143.765625 C 387.378906 143.601562 351.546875 143.601562 315.710938 143.601562 L 315.414062 171.082031 C 315.21875 186.222656 315.414062 171.082031 315.414062 171.082031 Z M 315.414062 171.082031 " fill-opacity="1" fill-rule="nonzero"/></svg>