<svg xmlns="http://www.w3.org/2000/svg" xmlns:xlink="http://www.w3.org/1999/xlink" width="1080" zoomAndPan="magnify" viewBox="0 0 810 809.999993" height="1080" preserveAspectRatio="xMidYMid meet" version="1.0"><defs><clipPath id="228028d112"><path d="M 125.445312 232.023438 L 684.195312 232.023438 L 684.195312 577.773438 L 125.445312 577.773438 Z M 125.445312 232.023438 " clip-rule="nonzero"/></clipPath></defs><g clip-path="url(#228028d112)"><path fill="#000000" d="M 317.753906 577.769531 L 314.449219 577.769531 L 310.859375 573.417969 L 308.683594 577.046875 L 305.25 575.59375 L 302.515625 576.320312 C 301.140625 574.890625 298.03125 572.242188 295.984375 571.964844 L 294.535156 573.78125 L 291.269531 571.605469 L 288.34375 574.6875 C 285.355469 574.640625 281.648438 572.867188 279.296875 571.242188 L 272.40625 571.964844 L 269.140625 574.867188 C 267.867188 573.441406 264.53125 569.738281 262.972656 568.703125 L 260.4375 569.0625 L 258.257812 566.886719 L 253.75 566.886719 C 252.453125 565.3125 249.414062 559 248.464844 557.09375 L 244.472656 554.554688 C 242.027344 555.015625 237.285156 553.6875 235.039062 552.738281 L 232.136719 555.277344 L 227.445312 552.738281 L 228.875 548.75 L 223.792969 549.472656 C 221.710938 545.628906 219.398438 539.9375 216.175781 536.777344 L 216.902344 534.597656 L 213.273438 534.234375 L 212.546875 529.519531 L 210.371094 526.980469 C 205.792969 525.796875 200.667969 520.070312 195.5 520.085938 L 196.222656 518.273438 L 193.683594 517.910156 L 188.96875 513.558594 C 188.253906 511.449219 188.058594 505.886719 186.789062 504.125 L 180.988281 501.582031 C 178.128906 501.882812 177.40625 501.265625 176.273438 499.046875 L 174.457031 499.046875 L 170.101562 492.515625 C 165.917969 492.246094 163.285156 487.742188 159.21875 487.074219 C 159.664062 484.933594 158.503906 481.273438 157.40625 479.453125 L 154.867188 479.089844 L 152.328125 474.011719 L 148.699219 471.835938 L 147.613281 468.933594 L 148.699219 467.484375 L 150.875 468.207031 L 150.875 463.855469 L 147.25 463.492188 C 146.078125 461.617188 143.359375 458.167969 141.808594 456.597656 L 143.257812 454.058594 L 141.082031 451.15625 L 143.621094 450.429688 L 144.347656 446.4375 L 139.996094 442.8125 C 136.910156 441.84375 129.910156 443.703125 126.933594 444.625 L 125.484375 442.085938 C 127.921875 440.484375 131.511719 436.746094 132.011719 433.742188 L 133.828125 434.832031 L 136.726562 431.203125 L 138.527344 431.203125 L 139.628906 425.035156 L 141.082031 427.574219 L 145.070312 425.757812 L 146.523438 427.210938 L 150.515625 426.484375 L 151.242188 427.9375 L 158.132812 427.210938 L 152.691406 422.855469 L 157.769531 421.042969 L 158.859375 419.59375 L 154.503906 417.417969 L 154.140625 415.238281 L 159.21875 411.25 L 158.132812 408.707031 L 153.054688 409.796875 L 153.53125 404.71875 L 150.515625 405.082031 L 149.789062 402.542969 L 151.964844 400.363281 L 152.328125 396.011719 L 156.316406 391.65625 L 153.054688 386.941406 C 153.117188 384.4375 153.019531 379.238281 152.691406 376.78125 L 154.867188 376.058594 C 156.441406 379.644531 156.300781 379.898438 158.859375 376.421875 L 163.210938 377.507812 L 170.464844 371.339844 L 170.828125 368.800781 L 169.015625 365.898438 L 172.644531 365.175781 L 175.183594 361.183594 L 169.015625 357.191406 L 171.917969 353.929688 L 168.652344 350.300781 L 164.660156 352.476562 C 161.613281 350.398438 154.078125 347.699219 150.515625 346.671875 L 153.414062 342.679688 C 154.929688 341.632812 162.585938 340.242188 159.585938 336.875 L 161.035156 334.335938 L 168.597656 334.335938 L 169.378906 336.875 L 174.820312 337.238281 L 177.359375 344.496094 L 184.617188 344.496094 L 187.15625 339.054688 L 187.878906 343.40625 L 205.65625 340.867188 L 203.84375 338.328125 L 203.476562 332.160156 L 202.027344 329.980469 L 204.929688 328.53125 L 202.027344 326.355469 L 202.027344 324.539062 C 202.027344 324.539062 197.675781 321.636719 198.039062 321.636719 C 198.402344 321.636719 205.65625 320.1875 205.65625 320.1875 C 205.957031 318.105469 206.570312 313.175781 206.378906 311.117188 C 209.136719 310.917969 206.65625 308.949219 206.019531 308.214844 L 215.089844 301.683594 L 218.429688 301.683594 L 218.351562 303.5 L 219.804688 305.3125 L 225.972656 306.039062 C 229.625 310.011719 234.824219 315.511719 237.578125 320.1875 C 238.847656 320.730469 241.394531 321.824219 242.660156 322.363281 C 243.140625 323.65625 244.363281 326.730469 245.199219 327.808594 L 248.101562 326.71875 C 251.929688 330.183594 257.191406 335.261719 262.25 336.875 C 266.582031 336.3125 274.988281 338.417969 278.210938 334.699219 L 281.476562 336.511719 L 284.015625 334.699219 C 294.640625 336.414062 307.695312 339.382812 317.753906 333.820312 L 321.015625 335.789062 C 331.414062 331.96875 334.582031 338.328125 343.148438 327.078125 L 350.402344 327.078125 C 349.796875 324.476562 345.6875 321.710938 343.511719 320.550781 L 343.148438 314.746094 L 344.597656 311.84375 L 343.148438 308.578125 L 344.234375 306.765625 L 346.773438 306.039062 L 348.589844 303.136719 L 348.589844 299.144531 C 352.152344 297.625 358.679688 298.15625 362.492188 298.054688 L 364.1875 295.15625 C 366.425781 297.386719 368.167969 299.042969 370.71875 295.882812 C 372.515625 294.734375 381.203125 297.980469 383.050781 298.417969 L 387.042969 293.703125 C 389.027344 293.800781 394.859375 293.828125 396.476562 295.15625 L 398.652344 292.980469 L 402.28125 293.339844 C 402.878906 291.378906 404.402344 286.460938 405.179688 284.632812 C 404.421875 283.363281 406.226562 280.535156 406.632812 279.554688 C 408.761719 278.546875 414.308594 276.050781 415.339844 273.75 C 417.238281 275.59375 419.730469 278.359375 421.867188 279.917969 L 423.683594 278.105469 L 426.949219 278.828125 L 429.125 281.730469 L 427.675781 284.996094 L 429.488281 286.808594 L 431.667969 284.269531 C 433.210938 283.894531 436.277344 283.957031 437.832031 284.269531 L 439.28125 289.710938 C 440.511719 288.355469 442.886719 285.382812 444 283.90625 C 445.25 283.261719 448.6875 283.097656 449.800781 284.269531 C 450.90625 282.175781 453.972656 278.996094 455.96875 277.742188 L 456.699219 273.386719 L 461.773438 273.75 L 465.042969 271.933594 L 465.042969 270.136719 L 469.757812 272.300781 C 472.558594 271.535156 478.035156 261.476562 479.550781 259.238281 C 477.515625 252.921875 483.707031 248.621094 487.171875 244.726562 L 487.171875 238.597656 L 490.074219 239.285156 L 489.707031 237.46875 C 494.414062 239.25 499.875 236.148438 503.859375 233.839844 C 503.859375 233.84375 515.101562 232.753906 515.101562 232.753906 L 517.640625 236.746094 L 520.179688 234.933594 L 523.808594 238.558594 L 523.808594 240.882812 C 526.742188 239.21875 531.253906 238.164062 534.332031 240.007812 L 536.867188 244.363281 L 539.046875 244 L 541.222656 239.648438 C 542.5625 242.164062 546.925781 238.378906 548.117188 237.832031 L 553.195312 240.371094 L 554.28125 234.933594 C 557.664062 235.046875 564.125 237.695312 564.078125 232.03125 C 567.375 233.589844 571.578125 238.59375 573.148438 241.824219 L 578.589844 241.460938 C 578.933594 244.863281 580.742188 251.117188 582.941406 253.796875 C 581.617188 258.855469 587.308594 257.078125 589.46875 262.5 L 596.726562 263.589844 L 597.089844 259.601562 C 600.304688 259.59375 607.820312 259.417969 610.511719 257.425781 C 613.285156 256.863281 618.6875 257.382812 621.398438 258.148438 L 623.933594 253.796875 L 627.925781 252.707031 L 631.554688 254.160156 L 630.464844 257.425781 L 632.277344 260.328125 L 636.632812 260.328125 L 636.632812 264.53125 L 638.085938 266.492188 C 637.957031 269.832031 640.316406 273.613281 642.074219 276.289062 L 644.613281 273.75 C 646.738281 275.011719 649.574219 276.738281 650.417969 273.023438 C 651.5 275.867188 654.6875 279.691406 657.675781 280.644531 L 657.675781 284.542969 L 659.488281 286.808594 L 659.488281 291.519531 C 661.515625 292.949219 665.4375 293.640625 667.832031 292.980469 L 670.371094 290.4375 L 676.902344 290.800781 C 678.558594 292.652344 682.253906 297.003906 683.429688 299.144531 C 682.796875 300.65625 681.097656 305 679.804688 306.039062 L 684.15625 308.941406 C 682.6875 313.695312 678.175781 319.210938 673.273438 318.375 L 674.722656 324.539062 L 669.28125 325.628906 L 667.105469 330.707031 C 664.441406 332.097656 658.84375 333.011719 655.859375 332.882812 L 650.417969 328.53125 L 648.601562 328.53125 L 647.152344 329.621094 C 646.492188 331.132812 646.136719 334.859375 646.0625 336.511719 C 643.5625 336.230469 637.890625 335.507812 636.269531 333.25 L 636.996094 336.511719 L 633.730469 338.328125 L 631.914062 337.238281 L 632.277344 342.316406 C 627.859375 339.257812 629.628906 346.0625 629.015625 347.398438 L 627.199219 346.671875 L 624.660156 354.652344 L 621.398438 354.289062 C 618.980469 359.160156 612.535156 362.109375 611.238281 367.714844 C 611.515625 369.976562 612.714844 374.597656 613.414062 376.78125 L 611.601562 380.773438 L 607.246094 380.773438 C 602.257812 384.925781 602.265625 392.589844 598.539062 397.460938 L 598.179688 404.355469 C 596.273438 406.007812 594.597656 410.277344 594.1875 412.699219 L 588.382812 414.511719 L 587.296875 418.503906 L 582.941406 422.132812 L 581.128906 422.132812 L 584.394531 425.035156 C 584.695312 428.597656 582.613281 432.886719 580.402344 435.558594 L 577.5 435.191406 L 578.953125 441 L 577.136719 443.902344 L 571.695312 446.4375 L 570.96875 451.519531 L 567.707031 454.785156 L 571.695312 458.773438 L 569.15625 464.582031 L 562.988281 464.582031 L 565.164062 468.570312 L 562.988281 470.023438 L 562.265625 473.285156 L 558.273438 470.746094 L 555.007812 471.472656 L 552.832031 475.828125 L 555.007812 477.640625 L 550.652344 481.632812 C 550.105469 483.753906 549.824219 487.898438 550.652344 489.976562 L 553.921875 491.425781 L 554.644531 493.605469 L 552.105469 497.59375 L 546.664062 497.59375 L 544.851562 499.410156 L 544.488281 505.210938 L 542.675781 507.390625 L 543.035156 511.015625 L 537.59375 511.015625 L 536.867188 514.644531 L 533.964844 517.910156 C 531.539062 519.09375 530.652344 516.121094 529.976562 514.644531 L 525.621094 515.734375 L 523.808594 513.558594 L 521.269531 515.734375 L 518.003906 512.46875 C 515.949219 513.335938 511.855469 514.257812 509.660156 513.558594 L 507.121094 516.820312 L 508.574219 522.628906 L 506.394531 522.261719 C 505.007812 525.0625 503.601562 531.648438 499.140625 529.519531 L 498.417969 532.058594 C 496.722656 530.855469 489.152344 524.722656 487.171875 524.441406 L 483.542969 529.882812 L 476.285156 528.433594 L 475.199219 526.617188 L 471.929688 529.519531 L 469.757812 528.433594 L 467.214844 533.511719 L 460.6875 527.707031 L 457.785156 530.246094 L 453.429688 525.53125 L 451.617188 529.519531 L 447.988281 529.882812 L 447.265625 526.253906 C 441.523438 524.75 434.597656 528.039062 430.210938 531.695312 C 427.351562 530.863281 423.027344 527.035156 421.144531 524.804688 L 418.242188 525.53125 L 417.515625 524.078125 L 414.976562 526.980469 L 410.261719 525.53125 L 405.179688 529.882812 L 406.996094 532.421875 L 402.28125 534.597656 L 401.554688 537.136719 L 395.386719 542.582031 L 392.847656 540.402344 L 386.320312 545.121094 C 390.832031 550.449219 377.144531 546.503906 375.433594 547.296875 L 374.707031 542.941406 L 371.804688 541.855469 L 368.542969 546.210938 L 369.632812 551.652344 L 364.914062 551.652344 L 362.738281 553.101562 L 364.1875 556.367188 L 355.480469 553.828125 L 352.578125 557.457031 L 347.5 557.816406 C 348.6875 565.410156 339.773438 554.976562 335.167969 557.09375 L 334.441406 559.996094 L 332.261719 561.808594 L 332.261719 565.074219 L 330.085938 565.800781 L 327.910156 568.703125 L 327.910156 570.515625 L 323.921875 572.332031 L 321.382812 570.878906 C 321.34375 572.039062 320.894531 574.097656 319.929688 574.867188 L 317.753906 573.78125 L 317.753906 577.769531 " fill-opacity="1" fill-rule="nonzero"/></g></svg>