<svg xmlns="http://www.w3.org/2000/svg" xmlns:xlink="http://www.w3.org/1999/xlink" width="1080" zoomAndPan="magnify" viewBox="0 0 810 809.999993" height="1080" preserveAspectRatio="xMidYMid meet" version="1.0"><defs><clipPath id="603c011368"><path d="M 206 115.996094 L 606 115.996094 L 606 693 L 206 693 Z M 206 115.996094 " clip-rule="nonzero"/></clipPath></defs><g clip-path="url(#603c011368)"><path fill="#000000" d="M 293.984375 526.742188 L 293.984375 540.742188 C 293.984375 540.742188 287.257812 552.644531 285.71875 554.1875 C 284.175781 555.726562 272.761719 568.1875 272.265625 569.726562 C 271.773438 571.269531 268.132812 582.1875 272.265625 584.222656 C 276.398438 586.316406 277.449219 587.304688 277.941406 590.449219 C 278.4375 593.535156 278.992188 596.679688 276.398438 599.761719 C 273.808594 602.847656 260.851562 610.125 260.851562 610.125 L 248.386719 617.894531 C 248.386719 617.894531 249.003906 615.429688 248.203125 622.027344 C 247.957031 624.125 249.4375 626.035156 251.535156 626.222656 C 255.914062 626.652344 259.246094 626.160156 259.246094 626.160156 C 259.246094 626.160156 270.105469 649.964844 273.746094 652.554688 C 277.386719 655.144531 281.089844 659.15625 286.273438 658.660156 C 291.457031 658.167969 297.378906 656.253906 301.511719 656.6875 C 305.644531 657.121094 306.140625 657.121094 311.878906 660.140625 C 317.554688 663.164062 324.527344 656.316406 324.527344 656.316406 C 326.625 657.734375 328.167969 657.488281 330.203125 657.367188 C 332.238281 657.242188 334.894531 668.097656 334.894531 668.097656 L 337.484375 678.457031 C 337.484375 678.457031 339.582031 688.574219 337.484375 691.410156 C 335.386719 694.246094 348.898438 686.230469 351.984375 687.769531 C 355.070312 689.3125 362.347656 692.027344 362.347656 692.027344 L 373.207031 680.554688 C 373.207031 680.554688 384.871094 681.605469 385.242188 681.605469 C 385.609375 681.605469 394.433594 684.6875 394.433594 684.6875 L 396.53125 680.554688 C 396.53125 680.554688 391.84375 676.421875 396.53125 673.832031 C 401.222656 671.242188 401.222656 671.734375 403.8125 671.242188 C 406.402344 670.75 409.488281 670.75 409.488281 670.75 C 409.488281 670.75 411.648438 663.964844 411.339844 661.496094 C 410.96875 659.03125 413.808594 660.203125 415.78125 660.695312 C 417.757812 661.191406 422.445312 653.046875 428.371094 647.128906 C 434.292969 641.207031 440.523438 646.511719 447.433594 645.523438 C 454.34375 644.539062 452.246094 642.503906 461.132812 639.109375 C 470.019531 635.71875 470.019531 633.191406 475.386719 637.136719 C 480.816406 641.085938 485.75 650.398438 492.601562 654.34375 C 499.449219 658.292969 533.445312 677.472656 533.445312 677.472656 L 533.445312 646.941406 C 533.445312 646.941406 533.445312 644.96875 533.445312 640.035156 C 533.445312 635.101562 532.460938 632.140625 531.472656 625.296875 C 530.484375 618.449219 529.992188 617.894531 533.445312 611.542969 C 536.902344 605.128906 536.964844 605.128906 536.777344 600.007812 C 536.53125 591.621094 527.03125 586.933594 527.03125 586.933594 L 527.03125 583.972656 L 537.394531 582.988281 L 537.394531 576.082031 C 537.394531 576.082031 534.433594 579.039062 535.421875 573.121094 C 536.40625 567.199219 545.292969 560.847656 551.15625 552.460938 C 557.015625 544.070312 565.40625 537.226562 564.914062 528.839844 C 564.421875 520.449219 561.953125 518.972656 561.457031 512.125 C 560.964844 505.21875 561.519531 501.269531 564.914062 498.371094 C 568.367188 495.410156 592 477.21875 593.417969 475.246094 C 594.839844 473.269531 593.417969 451.128906 593.417969 451.128906 C 593.417969 451.128906 594.40625 442.742188 597.367188 440.769531 C 600.332031 438.796875 604.773438 439.289062 603.292969 432.875 C 601.8125 426.460938 598.847656 422.019531 597.863281 419.121094 C 596.875 416.160156 595.886719 410.242188 595.886719 410.242188 C 595.886719 410.242188 601.871094 409.007812 603.539062 405.183594 C 605.203125 401.359375 606.808594 396.425781 603.539062 396.917969 C 600.269531 397.414062 594.902344 400.867188 594.902344 400.867188 C 594.902344 400.867188 594.40625 404.320312 589.964844 401.359375 C 585.523438 398.398438 586.015625 395.933594 581.574219 392.972656 C 577.128906 390.011719 572.503906 391.738281 569.292969 392.972656 C 566.886719 393.898438 563.246094 395.746094 552.386719 393.957031 C 545.601562 392.847656 543.6875 396.917969 537.765625 388.039062 C 531.84375 379.15625 531.347656 375.765625 526.90625 371.816406 C 522.464844 367.871094 519.996094 367.378906 517.035156 369.351562 C 514.070312 371.324219 509.628906 376.75 509.628906 376.75 C 509.628906 376.75 504.816406 378.910156 501.300781 378.230469 C 495.007812 377.121094 501.546875 361.519531 489.945312 355.535156 C 476.621094 348.691406 480.570312 350.601562 468.785156 341.78125 C 456.9375 332.902344 449.59375 321.121094 448.609375 314.214844 C 447.621094 307.308594 439.230469 288.621094 436.761719 285.167969 C 434.292969 281.714844 432.320312 278.257812 429.355469 280.234375 C 426.394531 282.207031 426.394531 289.605469 426.394531 289.605469 C 426.394531 289.605469 424.421875 289.113281 420.964844 283.191406 C 417.511719 277.273438 415.042969 274.3125 418.003906 270.921875 C 420.964844 267.464844 422.941406 264.507812 422.941406 264.507812 L 411.402344 264.507812 L 404.492188 255.625 L 411.402344 247.238281 L 405.480469 247.238281 C 405.480469 247.238281 398.074219 244.769531 398.074219 243.289062 C 398.074219 241.808594 398.074219 239.34375 398.074219 239.34375 L 401.53125 235.394531 C 401.53125 235.394531 400.542969 226.023438 397.582031 221.148438 C 394.621094 216.214844 385.300781 209.308594 385.300781 209.308594 C 385.300781 209.308594 395.113281 205.855469 394.621094 203.386719 C 394.371094 202.15625 393.507812 200.613281 392.769531 199.441406 C 392.335938 198.761719 392.152344 197.835938 392.398438 197.097656 C 392.953125 195.554688 393.199219 193.335938 393.261719 191.175781 C 393.324219 188.277344 400.914062 182.972656 400.914062 182.972656 L 396.53125 174.832031 C 396.53125 174.832031 395.542969 168.417969 395.542969 166.9375 C 395.542969 165.457031 393.078125 162.003906 393.078125 162.003906 L 397.027344 155.589844 L 397.027344 152.628906 L 388.632812 152.628906 C 388.632812 152.628906 391.101562 145.230469 391.597656 140.789062 C 392.089844 136.347656 394.0625 135.855469 391.101562 133.386719 C 388.140625 130.921875 387.152344 129.441406 381.230469 128.949219 C 375.308594 128.453125 379.253906 127.960938 375.308594 128.453125 C 371.359375 128.949219 364.941406 135.363281 364.941406 135.363281 C 364.941406 135.363281 367.410156 138.816406 360.5 137.828125 C 353.589844 136.84375 355.5625 138.324219 350.132812 134.867188 C 344.703125 131.414062 341.246094 128.949219 339.273438 123.519531 C 337.300781 118.09375 332.609375 115.996094 332.609375 115.996094 C 332.609375 115.996094 326.132812 116.796875 322.242188 122.226562 C 318.355469 127.652344 315.582031 130.429688 315.582031 130.429688 L 306.511719 144.921875 L 307.496094 157.6875 C 307.496094 157.6875 306.511719 162.621094 302.066406 165.089844 C 297.625 167.554688 298.613281 163.609375 288.800781 171.007812 C 278.992188 178.410156 275.660156 186.367188 275.167969 191.238281 C 274.550781 197.527344 273.625 197.097656 270.539062 201.722656 C 265.539062 209.183594 261.097656 206.347656 259 214.734375 C 256.59375 224.664062 262.824219 214.796875 263.132812 223.125 C 263.503906 232.496094 261.160156 239.34375 259.1875 243.785156 C 257.210938 248.222656 254.742188 253.652344 252.273438 255.132812 C 249.808594 256.613281 243.882812 255.625 243.882812 261.050781 C 243.882812 266.480469 241.414062 268.945312 246.351562 274.3125 C 251.289062 279.738281 254.25 279.738281 250.300781 283.6875 C 246.351562 287.632812 241.910156 288.621094 240.921875 291.085938 C 239.933594 293.554688 241.414062 294.542969 237.46875 297.5 C 233.519531 300.460938 228.582031 299.96875 226.609375 301.941406 C 224.632812 303.914062 219.203125 306.382812 219.203125 306.382812 C 219.203125 306.382812 221.488281 307.246094 218.710938 319.640625 C 216.058594 331.605469 218.214844 326.054688 207.851562 343.261719 C 203.53125 350.480469 216.242188 353.625 219.203125 358.496094 C 222.164062 363.429688 227.101562 364.417969 222.164062 368.363281 C 217.230469 372.3125 213.28125 379.710938 213.28125 379.710938 L 214.265625 392.480469 L 212.292969 399.386719 C 212.292969 399.386719 207.914062 405.800781 207.171875 407.28125 C 206.429688 408.761719 210.8125 412.707031 210.8125 412.707031 C 210.8125 412.707031 211.304688 412.707031 212.292969 416.65625 C 213.28125 420.601562 210.8125 421.09375 213.28125 425.042969 C 215.75 428.988281 219.695312 429.976562 221.671875 428.988281 C 223.644531 428.003906 229.074219 426.523438 229.074219 426.523438 C 229.074219 426.523438 235.492188 424.546875 237.46875 432.441406 C 239.441406 440.335938 242.402344 445.210938 248.328125 451.625 C 254.25 458.039062 256.222656 462.972656 256.222656 462.972656 L 256.222656 467.410156 C 256.222656 467.410156 251.289062 465.933594 252.769531 472.839844 C 254.25 479.746094 256.222656 481.226562 261.160156 479.746094 C 266.097656 478.265625 272.511719 477.28125 274.917969 478.265625 C 277.324219 479.253906 282.324219 479.253906 281.828125 483.695312 C 281.335938 488.132812 281.335938 489.613281 278.375 493.5625 C 275.414062 497.507812 273.4375 493.066406 275.414062 503.429688 C 277.386719 513.789062 277.386719 513.296875 281.335938 517.183594 C 285.347656 520.882812 293.984375 526.742188 293.984375 526.742188 Z M 293.984375 526.742188 " fill-opacity="1" fill-rule="nonzero"/></g></svg>