<svg xmlns="http://www.w3.org/2000/svg" xmlns:xlink="http://www.w3.org/1999/xlink" width="1080" zoomAndPan="magnify" viewBox="0 0 810 809.999993" height="1080" preserveAspectRatio="xMidYMid meet" version="1.0"><defs><clipPath id="bc0f4d4d1b"><path d="M 135 195.578125 L 675 195.578125 L 675 614.078125 L 135 614.078125 Z M 135 195.578125 " clip-rule="nonzero"/></clipPath><clipPath id="b1de10d4e1"><path d="M 134.777344 195.578125 L 675.527344 195.578125 L 675.527344 614.078125 L 134.777344 614.078125 Z M 134.777344 195.578125 " clip-rule="nonzero"/></clipPath></defs><g clip-path="url(#bc0f4d4d1b)"><path fill="#000000" d="M 553.066406 195.839844 L 563.925781 261.054688 L 645.53125 287.441406 L 645.050781 339.785156 L 642.96875 370.675781 L 640.84375 420.230469 L 641.324219 434.386719 L 649.78125 439.320312 L 657.191406 447.257812 L 665.644531 457.339844 L 669.371094 464.203125 L 673.578125 479.863281 L 674.9375 497.238281 L 674.699219 502.386719 L 674.539062 507.320312 L 672.816406 516.972656 L 666.40625 530.488281 L 653.386719 545.074219 L 641.324219 551.722656 L 634.59375 554.082031 L 623.738281 554.726562 L 611 551.722656 L 600.0625 546.789062 L 595.054688 541.640625 L 589.964844 537.136719 L 576.222656 541.210938 L 559.4375 547.648438 L 530.832031 558.585938 L 503.429688 564.808594 L 493.414062 568.667969 L 490.410156 573.171875 L 490.730469 579.394531 L 491.289062 592.265625 L 496.777344 597.839844 L 497.21875 604.707031 L 494.617188 611.355469 L 490.410156 614.144531 L 482.035156 608.566406 L 441.332031 592.910156 L 440.933594 602.347656 L 435.484375 601.917969 L 370.742188 592.265625 L 348.066406 588.402344 L 343.457031 579.394531 L 332.480469 574.890625 L 312.328125 572.53125 L 304.398438 568.667969 L 293.859375 566.523438 L 281.71875 564.808594 L 267.820312 565.234375 L 268.339844 575.53125 L 246.785156 580.039062 L 231.722656 581.539062 L 227.914062 577.679688 L 222.46875 571.027344 L 227.035156 566.523438 L 232.121094 562.019531 L 218.703125 549.578125 L 204.359375 537.78125 L 194.304688 530.488281 L 178.277344 516.972656 L 171.1875 526.625 L 150.59375 514.613281 L 135.410156 508.605469 L 184.207031 479.21875 L 202.035156 467.207031 L 205.679688 464.632812 L 211.53125 454.550781 L 216.097656 439.320312 L 219.542969 430.953125 L 225.792969 423.019531 L 234.605469 415.722656 L 244.742188 405 L 253.957031 397.703125 L 259.484375 389.339844 L 263.132812 377.96875 L 267.335938 352.226562 L 271.183594 331.417969 L 277.472656 326.914062 L 286.6875 323.054688 L 297.707031 317.90625 L 311.085938 305.03125 L 322.382812 288.730469 L 330.4375 267.277344 L 336.285156 250.972656 L 376.589844 245.824219 L 398.425781 247.113281 L 405.113281 245.824219 L 434.960938 234.671875 L 447.222656 230.808594 L 453.46875 241.320312 L 479.511719 233.597656 L 478.269531 220.511719 L 495.976562 214.933594 Z M 553.066406 195.839844 " fill-opacity="1" fill-rule="nonzero"/></g><g clip-path="url(#b1de10d4e1)"><path stroke-linecap="butt" transform="matrix(0.881582, 0, 0, 0.881582, 134.52905, 194.959347)" fill="none" stroke-linejoin="miter" d="M 474.756931 0.998769 L 487.07498 74.973525 L 579.642015 104.904611 L 579.097007 164.279378 L 576.73531 199.319353 L 574.324871 255.53042 L 574.869878 271.588193 L 584.462891 277.184486 L 592.868409 286.188182 L 602.45699 297.624471 L 606.684119 305.409655 L 611.456256 323.173345 L 612.998227 342.882223 L 612.727939 348.722219 L 612.54627 354.318512 L 610.59222 365.267396 L 603.321026 380.598493 L 588.552661 397.143671 L 574.869878 404.685152 L 567.235347 407.361448 L 554.921729 408.092555 L 540.472392 404.685152 L 528.065724 399.088859 L 522.385243 393.248863 L 516.611711 388.139975 L 501.023619 392.761458 L 481.983815 400.063669 L 449.535948 412.470336 L 418.452814 419.528844 L 407.091852 423.906625 L 403.684449 429.015514 L 404.047787 436.074022 L 404.681413 450.674011 L 410.906902 456.996981 L 411.4076 464.786596 L 408.456585 472.328077 L 403.684449 475.491778 L 394.184486 469.164377 L 348.013958 451.405118 L 347.562001 462.1103 L 341.380822 461.622895 L 267.94221 450.674011 L 242.22053 446.291799 L 236.992005 436.074022 L 224.541028 430.965133 L 201.681743 428.288838 L 192.686909 423.906625 L 180.732198 421.474032 L 166.960797 419.528844 L 151.195467 420.011818 L 151.784783 431.691809 L 127.334786 436.805129 L 110.249032 438.506615 L 105.928853 434.128833 L 99.752105 426.582921 L 104.931889 421.474032 L 110.700989 416.365144 L 95.480666 402.252559 L 79.210208 388.871082 L 67.804935 380.598493 L 49.624736 365.267396 L 41.582557 376.216281 L 18.222574 362.591101 L 0.99946 355.776296 L 56.350923 322.442238 L 76.573791 308.817058 L 80.70787 305.89706 L 87.345437 294.460771 L 92.525221 277.184486 L 96.433321 267.693385 L 103.522846 258.69412 L 113.519075 250.4171 L 125.017398 238.254135 L 135.470015 229.977115 L 141.739813 220.490445 L 145.878323 207.591942 L 150.646029 178.391963 L 155.010517 154.788278 L 162.144351 149.679389 L 172.596969 145.301608 L 185.096686 139.461612 L 200.2727 124.857192 L 213.087015 106.366826 L 222.22364 82.032033 L 228.856776 63.537236 L 274.575347 57.69724 L 299.344373 59.159455 L 306.930164 57.69724 L 340.787074 45.04687 L 354.695835 40.664658 L 361.780928 52.588352 L 391.322091 43.828358 L 389.913048 28.984666 L 409.998557 22.657266 Z M 474.756931 0.998769 " stroke="#ffffff" stroke-width="0.5" stroke-opacity="1" stroke-miterlimit="4"/></g></svg>